<?xml version="1.0" encoding="UTF-8" standalone="no"?>
<svg
   xmlns:dc="http://purl.org/dc/elements/1.1/"
   xmlns:cc="http://creativecommons.org/ns#"
   xmlns:rdf="http://www.w3.org/1999/02/22-rdf-syntax-ns#"
   xmlns:svg="http://www.w3.org/2000/svg"
   xmlns="http://www.w3.org/2000/svg"
   xmlns:sodipodi="http://sodipodi.sourceforge.net/DTD/sodipodi-0.dtd"
   xmlns:inkscape="http://www.inkscape.org/namespaces/inkscape"
   width="350mm"
   height="70mm"
   viewBox="0 0 350 70"
   version="1.1"
   id="svg8"
   inkscape:version="1.0 (4035a4fb49, 2020-05-01)"
   sodipodi:docname="AquaCulisLogo-White.svg"
   inkscape:export-filename="/home/mega/Downloads/pestrez/pastrezVlist6.png"
   inkscape:export-xdpi="300.13"
   inkscape:export-ydpi="300.13">
  <defs
     id="defs2">
    <clipPath
       clipPathUnits="userSpaceOnUse"
       id="clipPath300">
      <path
         d="M 2,0 H 800 V 620.001 H 2 Z"
         id="path298"
         inkscape:connector-curvature="0" />
    </clipPath>
    <clipPath
       clipPathUnits="userSpaceOnUse"
       id="clipPath308">
      <path
         d="M 12.9607,426.554 H 212.25 V 141.55 H 12.9607 Z"
         id="path306"
         inkscape:connector-curvature="0" />
    </clipPath>
    <clipPath
       clipPathUnits="userSpaceOnUse"
       id="clipPath324">
      <path
         d="M 80.7363,252.765 H 308.532 V -22.3419 H 80.7363 Z"
         id="path322"
         inkscape:connector-curvature="0" />
    </clipPath>
    <clipPath
       clipPathUnits="userSpaceOnUse"
       id="clipPath340">
      <path
         d="M -41.6083,418.626 H 75.5032 V 301.778 H -41.6083 Z"
         id="path338"
         inkscape:connector-curvature="0" />
    </clipPath>
    <clipPath
       clipPathUnits="userSpaceOnUse"
       id="clipPath356">
      <path
         d="m 189.78,36.0524 h 47.441 V -16.0572 H 189.78 Z"
         id="path354"
         inkscape:connector-curvature="0" />
    </clipPath>
    <clipPath
       clipPathUnits="userSpaceOnUse"
       id="clipPath384">
      <path
         d="M 253.011,133.484 H 326.81 V 77.6421 h -73.799 z"
         id="path382"
         inkscape:connector-curvature="0" />
    </clipPath>
    <clipPath
       clipPathUnits="userSpaceOnUse"
       id="clipPath400">
      <path
         d="m 274.953,111.63 h 50.08 V 78.9858 h -50.08 z"
         id="path398"
         inkscape:connector-curvature="0" />
    </clipPath>
    <clipPath
       clipPathUnits="userSpaceOnUse"
       id="clipPath516">
      <path
         d="M 44.7253,191.251 H 79.049 V 159.627 H 44.7253 Z"
         id="path514"
         inkscape:connector-curvature="0" />
    </clipPath>
    <clipPath
       clipPathUnits="userSpaceOnUse"
       id="clipPath1412">
      <path
         d="M 326.282,135.419 H 428.707 V 64.905 H 326.282 Z"
         id="path1410"
         inkscape:connector-curvature="0" />
    </clipPath>
    <clipPath
       clipPathUnits="userSpaceOnUse"
       id="clipPath1476">
      <path
         d="M 382.74,153.487 H 617.857 V -32.701 H 382.74 Z"
         id="path1474"
         inkscape:connector-curvature="0" />
    </clipPath>
    <clipPath
       clipPathUnits="userSpaceOnUse"
       id="clipPath1528">
      <path
         d="m 241.114,149.921 h 56.608 V 85.2342 h -56.608 z"
         id="path1526"
         inkscape:connector-curvature="0" />
    </clipPath>
    <clipPath
       clipPathUnits="userSpaceOnUse"
       id="clipPath1568">
      <path
         d="m 256.589,160.106 h 44.385 v -23.911 h -44.385 z"
         id="path1566"
         inkscape:connector-curvature="0" />
    </clipPath>
    <clipPath
       clipPathUnits="userSpaceOnUse"
       id="clipPath1584">
      <path
         d="m 234.58,126.756 h 20.532 V 96.874 H 234.58 Z"
         id="path1582"
         inkscape:connector-curvature="0" />
    </clipPath>
    <clipPath
       clipPathUnits="userSpaceOnUse"
       id="clipPath1600">
      <path
         d="m 251.13,132.366 h 43.616 V 81.4752 H 251.13 Z"
         id="path1598"
         inkscape:connector-curvature="0" />
    </clipPath>
    <clipPath
       clipPathUnits="userSpaceOnUse"
       id="clipPath1616">
      <path
         d="m 641.085,73.3686 h 20.517 v -18.338 h -20.517 z"
         id="path1614"
         inkscape:connector-curvature="0" />
    </clipPath>
    <clipPath
       clipPathUnits="userSpaceOnUse"
       id="clipPath1632">
      <path
         d="m 662.099,51.8203 h 20.045 V 6.30283 h -20.045 z"
         id="path1630"
         inkscape:connector-curvature="0" />
    </clipPath>
    <clipPath
       clipPathUnits="userSpaceOnUse"
       id="clipPath1648">
      <path
         d="m 669.232,24.9586 h 10.035 V -2.26254 h -10.035 z"
         id="path1646"
         inkscape:connector-curvature="0" />
    </clipPath>
    <clipPath
       clipPathUnits="userSpaceOnUse"
       id="clipPath1704">
      <path
         d="M 176.665,64.6702 H 489.793 V -14.6754 H 176.665 Z"
         id="path1702"
         inkscape:connector-curvature="0" />
    </clipPath>
    <clipPath
       clipPathUnits="userSpaceOnUse"
       id="clipPath1808">
      <path
         d="M 654.889,241.946 H 843.535 V -17.1065 H 654.889 Z"
         id="path1806"
         inkscape:connector-curvature="0" />
    </clipPath>
    <clipPath
       clipPathUnits="userSpaceOnUse"
       id="clipPath1828">
      <path
         d="m 729.2,225.089 h 58.508 V 71.6737 H 729.2 Z"
         id="path1826"
         inkscape:connector-curvature="0" />
    </clipPath>
    <clipPath
       clipPathUnits="userSpaceOnUse"
       id="clipPath4160">
      <path
         d="m 193.093,60.4657 h 3.695 v -2.9788 h -3.695 z"
         id="path4158"
         inkscape:connector-curvature="0" />
    </clipPath>
    <clipPath
       clipPathUnits="userSpaceOnUse"
       id="clipPath4176">
      <path
         d="m 194.855,55.1164 h 2.704 v -1.6698 h -2.704 z"
         id="path4174"
         inkscape:connector-curvature="0" />
    </clipPath>
    <clipPath
       clipPathUnits="userSpaceOnUse"
       id="clipPath4192">
      <path
         d="m 203.25,54.9873 h 2.872 v -2.8757 h -2.872 z"
         id="path4190"
         inkscape:connector-curvature="0" />
    </clipPath>
    <clipPath
       clipPathUnits="userSpaceOnUse"
       id="clipPath4208">
      <path
         d="m 210.069,48.9468 h 2.159 v -1.8432 h -2.159 z"
         id="path4206"
         inkscape:connector-curvature="0" />
    </clipPath>
    <clipPath
       clipPathUnits="userSpaceOnUse"
       id="clipPath4224">
      <path
         d="m 218.879,50.2987 h 2.424 v -4.4035 h -2.424 z"
         id="path4222"
         inkscape:connector-curvature="0" />
    </clipPath>
    <clipPath
       clipPathUnits="userSpaceOnUse"
       id="clipPath4240">
      <path
         d="m 220.57,39.8334 h 1.47 v -1.4706 h -1.47 z"
         id="path4238"
         inkscape:connector-curvature="0" />
    </clipPath>
    <clipPath
       clipPathUnits="userSpaceOnUse"
       id="clipPath4256">
      <path
         d="m 211.913,40.246 h 3.289 v -2.6606 h -3.289 z"
         id="path4254"
         inkscape:connector-curvature="0" />
    </clipPath>
    <clipPath
       clipPathUnits="userSpaceOnUse"
       id="clipPath4272">
      <path
         d="m 229.594,44.5135 h 1.462 v -1.4616 h -1.462 z"
         id="path4270"
         inkscape:connector-curvature="0" />
    </clipPath>
    <clipPath
       clipPathUnits="userSpaceOnUse"
       id="clipPath4288">
      <path
         d="m 229.215,36.2899 h 2.653 v -1.7183 h -2.653 z"
         id="path4286"
         inkscape:connector-curvature="0" />
    </clipPath>
    <clipPath
       clipPathUnits="userSpaceOnUse"
       id="clipPath4304">
      <path
         d="m 230.313,29.3806 h 2.556 v -1.9673 h -2.556 z"
         id="path4302"
         inkscape:connector-curvature="0" />
    </clipPath>
    <clipPath
       clipPathUnits="userSpaceOnUse"
       id="clipPath4320">
      <path
         d="m 241.941,38.3761 h 2.88 v -3.2642 h -2.88 z"
         id="path4318"
         inkscape:connector-curvature="0" />
    </clipPath>
    <clipPath
       clipPathUnits="userSpaceOnUse"
       id="clipPath4336">
      <path
         d="m 245.829,31.5722 h 2.637 V 28.937 h -2.637 z"
         id="path4334"
         inkscape:connector-curvature="0" />
    </clipPath>
    <clipPath
       clipPathUnits="userSpaceOnUse"
       id="clipPath4352">
      <path
         d="m 243.07,20.2814 h 1.685 v -0.9826 h -1.685 z"
         id="path4350"
         inkscape:connector-curvature="0" />
    </clipPath>
    <clipPath
       clipPathUnits="userSpaceOnUse"
       id="clipPath4368">
      <path
         d="m 251.472,40.6179 h 1.712 v -2.7176 h -1.712 z"
         id="path4366"
         inkscape:connector-curvature="0" />
    </clipPath>
    <clipPath
       clipPathUnits="userSpaceOnUse"
       id="clipPath4384">
      <path
         d="m 232.379,48.8836 h 1.691 v -2.3543 h -1.691 z"
         id="path4382"
         inkscape:connector-curvature="0" />
    </clipPath>
    <clipPath
       clipPathUnits="userSpaceOnUse"
       id="clipPath4400">
      <path
         d="m 234.593,43.1342 h 1.948 v -1.9475 h -1.948 z"
         id="path4398"
         inkscape:connector-curvature="0" />
    </clipPath>
    <clipPath
       clipPathUnits="userSpaceOnUse"
       id="clipPath4416">
      <path
         d="m 221.542,31.1384 h 3.821 v -2.6458 h -3.821 z"
         id="path4414"
         inkscape:connector-curvature="0" />
    </clipPath>
    <clipPath
       clipPathUnits="userSpaceOnUse"
       id="clipPath4432">
      <path
         d="m 236.701,34.8344 h 1.997 v -2.3703 h -1.997 z"
         id="path4430"
         inkscape:connector-curvature="0" />
    </clipPath>
    <clipPath
       clipPathUnits="userSpaceOnUse"
       id="clipPath4448">
      <path
         d="m 238.522,26.2054 h 1.728 v -1.411 h -1.728 z"
         id="path4446"
         inkscape:connector-curvature="0" />
    </clipPath>
    <clipPath
       clipPathUnits="userSpaceOnUse"
       id="clipPath4464">
      <path
         d="m 216.552,33.401 h 2.301 v -2.0273 h -2.301 z"
         id="path4462"
         inkscape:connector-curvature="0" />
    </clipPath>
    <clipPath
       clipPathUnits="userSpaceOnUse"
       id="clipPath4480">
      <path
         d="m 216.573,58.324 h 2.991 v -3.3821 h -2.991 z"
         id="path4478"
         inkscape:connector-curvature="0" />
    </clipPath>
    <clipPath
       clipPathUnits="userSpaceOnUse"
       id="clipPath4496">
      <path
         d="m 212.204,64.0707 h 2.642 V 61.428 h -2.642 z"
         id="path4494"
         inkscape:connector-curvature="0" />
    </clipPath>
    <clipPath
       clipPathUnits="userSpaceOnUse"
       id="clipPath4512">
      <path
         d="m 201.76,72.0139 h 1.886 v -2.2737 h -1.886 z"
         id="path4510"
         inkscape:connector-curvature="0" />
    </clipPath>
    <clipPath
       clipPathUnits="userSpaceOnUse"
       id="clipPath4528">
      <path
         d="m 209.298,75.2728 h 2.976 v -3.0196 h -2.976 z"
         id="path4526"
         inkscape:connector-curvature="0" />
    </clipPath>
    <clipPath
       clipPathUnits="userSpaceOnUse"
       id="clipPath4544">
      <path
         d="m 254.075,15.7387 h 1.554 v -1.5542 h -1.554 z"
         id="path4542"
         inkscape:connector-curvature="0" />
    </clipPath>
    <clipPath
       clipPathUnits="userSpaceOnUse"
       id="clipPath4560">
      <path
         d="m 259.356,20.3988 h 2.341 v -2.0136 h -2.341 z"
         id="path4558"
         inkscape:connector-curvature="0" />
    </clipPath>
    <clipPath
       clipPathUnits="userSpaceOnUse"
       id="clipPath4576">
      <path
         d="m 261.05,13.3464 h 1.099 v -1.0983 h -1.099 z"
         id="path4574"
         inkscape:connector-curvature="0" />
    </clipPath>
    <clipPath
       clipPathUnits="userSpaceOnUse"
       id="clipPath4592">
      <path
         d="m 277.668,17.788 h 2.285 v -3.4459 h -2.285 z"
         id="path4590"
         inkscape:connector-curvature="0" />
    </clipPath>
    <clipPath
       clipPathUnits="userSpaceOnUse"
       id="clipPath4608">
      <path
         d="m 279.385,13.5797 h 2.472 v -1.873 h -2.472 z"
         id="path4606"
         inkscape:connector-curvature="0" />
    </clipPath>
    <clipPath
       clipPathUnits="userSpaceOnUse"
       id="clipPath4624">
      <path
         d="m 286.99,15.3414 h 2.822 v -3.6332 h -2.822 z"
         id="path4622"
         inkscape:connector-curvature="0" />
    </clipPath>
    <clipPath
       clipPathUnits="userSpaceOnUse"
       id="clipPath4640">
      <path
         d="m 288.42,29.0544 h 1.648 v -3.1412 h -1.648 z"
         id="path4638"
         inkscape:connector-curvature="0" />
    </clipPath>
    <clipPath
       clipPathUnits="userSpaceOnUse"
       id="clipPath4656">
      <path
         d="m 294.689,18.9083 h 2.085 v -3.1562 h -2.085 z"
         id="path4654"
         inkscape:connector-curvature="0" />
    </clipPath>
    <clipPath
       clipPathUnits="userSpaceOnUse"
       id="clipPath4672">
      <path
         d="m 300.795,13.6125 h 1.795 v -2.6332 h -1.795 z"
         id="path4670"
         inkscape:connector-curvature="0" />
    </clipPath>
    <clipPath
       clipPathUnits="userSpaceOnUse"
       id="clipPath4692">
      <path
         d="m 299.72,36.2273 h 0.772 v -1.1417 h -0.772 z"
         id="path4690"
         inkscape:connector-curvature="0" />
    </clipPath>
    <clipPath
       clipPathUnits="userSpaceOnUse"
       id="clipPath4712">
      <path
         d="m 321.721,27.5588 h 0.858 v -1.5101 h -0.858 z"
         id="path4710"
         inkscape:connector-curvature="0" />
    </clipPath>
    <clipPath
       clipPathUnits="userSpaceOnUse"
       id="clipPath4732">
      <path
         d="m 314.21,24.4395 h 2.315 v -4.0084 h -2.315 z"
         id="path4730"
         inkscape:connector-curvature="0" />
    </clipPath>
    <clipPath
       clipPathUnits="userSpaceOnUse"
       id="clipPath4748">
      <path
         d="m 306.795,28.7308 h 2.287 v -3.1509 h -2.287 z"
         id="path4746"
         inkscape:connector-curvature="0" />
    </clipPath>
    <clipPath
       clipPathUnits="userSpaceOnUse"
       id="clipPath4764">
      <path
         d="m 298.906,28.6934 h 0.863 v -2.2872 h -0.863 z"
         id="path4762"
         inkscape:connector-curvature="0" />
    </clipPath>
    <clipPath
       clipPathUnits="userSpaceOnUse"
       id="clipPath4780">
      <path
         d="m 340.182,14.537 h 1.473 v -4.3391 h -1.473 z"
         id="path4778"
         inkscape:connector-curvature="0" />
    </clipPath>
    <clipPath
       clipPathUnits="userSpaceOnUse"
       id="clipPath4796">
      <path
         d="m 345.958,13.1046 h 1.584 V 9.44731 h -1.584 z"
         id="path4794"
         inkscape:connector-curvature="0" />
    </clipPath>
    <clipPath
       clipPathUnits="userSpaceOnUse"
       id="clipPath4812">
      <path
         d="m 351.315,15.2947 h 0.571 v -2.9652 h -0.571 z"
         id="path4810"
         inkscape:connector-curvature="0" />
    </clipPath>
    <clipPath
       clipPathUnits="userSpaceOnUse"
       id="clipPath4828">
      <path
         d="m 345.109,25.786 h 0.976 v -3.3834 h -0.976 z"
         id="path4826"
         inkscape:connector-curvature="0" />
    </clipPath>
    <clipPath
       clipPathUnits="userSpaceOnUse"
       id="clipPath4844">
      <path
         d="m 362.98,23.4446 h 1.031 v -4.6022 h -1.031 z"
         id="path4842"
         inkscape:connector-curvature="0" />
    </clipPath>
    <clipPath
       clipPathUnits="userSpaceOnUse"
       id="clipPath4860">
      <path
         d="m 368.93,34.9684 h 1.637 v -5.2137 h -1.637 z"
         id="path4858"
         inkscape:connector-curvature="0" />
    </clipPath>
    <clipPath
       clipPathUnits="userSpaceOnUse"
       id="clipPath4876">
      <path
         d="m 373.087,23.4247 h 0.99 v -5.6144 h -0.99 z"
         id="path4874"
         inkscape:connector-curvature="0" />
    </clipPath>
    <clipPath
       clipPathUnits="userSpaceOnUse"
       id="clipPath4892">
      <path
         d="m 367.533,20.1195 h 0.651 v -3.6954 h -0.651 z"
         id="path4890"
         inkscape:connector-curvature="0" />
    </clipPath>
    <clipPath
       clipPathUnits="userSpaceOnUse"
       id="clipPath4908">
      <path
         d="m 381.919,35.3297 h 0.883 v -3.4021 h -0.883 z"
         id="path4906"
         inkscape:connector-curvature="0" />
    </clipPath>
    <clipPath
       clipPathUnits="userSpaceOnUse"
       id="clipPath4924">
      <path
         d="m 388.86,28.1421 h 1.147 v -4.5656 h -1.147 z"
         id="path4922"
         inkscape:connector-curvature="0" />
    </clipPath>
    <clipPath
       clipPathUnits="userSpaceOnUse"
       id="clipPath4940">
      <path
         d="m 382.3,18.0009 h 0.741 V 13.8215 H 382.3 Z"
         id="path4938"
         inkscape:connector-curvature="0" />
    </clipPath>
    <clipPath
       clipPathUnits="userSpaceOnUse"
       id="clipPath4956">
      <path
         d="m 393.337,18.3076 h 0.899 v -3.0147 h -0.899 z"
         id="path4954"
         inkscape:connector-curvature="0" />
    </clipPath>
    <clipPath
       clipPathUnits="userSpaceOnUse"
       id="clipPath4972">
      <path
         d="m 349.752,37.1695 h 1.435 v -3.4829 h -1.435 z"
         id="path4970"
         inkscape:connector-curvature="0" />
    </clipPath>
    <clipPath
       clipPathUnits="userSpaceOnUse"
       id="clipPath4988">
      <path
         d="m 342.849,37.1134 h 1.467 v -4.0869 h -1.467 z"
         id="path4986"
         inkscape:connector-curvature="0" />
    </clipPath>
    <clipPath
       clipPathUnits="userSpaceOnUse"
       id="clipPath5004">
      <path
         d="m 419.626,18.6253 h 0.512 v -2.8906 h -0.512 z"
         id="path5002"
         inkscape:connector-curvature="0" />
    </clipPath>
    <clipPath
       clipPathUnits="userSpaceOnUse"
       id="clipPath5020">
      <path
         d="m 426.423,23.3993 h 1.541 v -2.6572 h -1.541 z"
         id="path5018"
         inkscape:connector-curvature="0" />
    </clipPath>
    <clipPath
       clipPathUnits="userSpaceOnUse"
       id="clipPath5036">
      <path
         d="m 426.143,15.1241 h 1.069 V 10.588 h -1.069 z"
         id="path5034"
         inkscape:connector-curvature="0" />
    </clipPath>
    <clipPath
       clipPathUnits="userSpaceOnUse"
       id="clipPath5052">
      <path
         d="m 437.616,11.8347 h 0.661 V 9.51572 h -0.661 z"
         id="path5050"
         inkscape:connector-curvature="0" />
    </clipPath>
    <clipPath
       clipPathUnits="userSpaceOnUse"
       id="clipPath5068">
      <path
         d="m 434.623,28.8723 h 2.051 v -3.1227 h -2.051 z"
         id="path5066"
         inkscape:connector-curvature="0" />
    </clipPath>
    <clipPath
       clipPathUnits="userSpaceOnUse"
       id="clipPath5084">
      <path
         d="m 442.231,18.0108 h 1.629 v -4.1652 h -1.629 z"
         id="path5082"
         inkscape:connector-curvature="0" />
    </clipPath>
    <clipPath
       clipPathUnits="userSpaceOnUse"
       id="clipPath5100">
      <path
         d="m 432.691,7.68266 h 1.16 V 4.00797 h -1.16 z"
         id="path5098"
         inkscape:connector-curvature="0" />
    </clipPath>
    <clipPath
       clipPathUnits="userSpaceOnUse"
       id="clipPath5584">
      <path
         d="m 400.498,144.415 h 6.447 v -5.298 h -6.447 z"
         id="path5582"
         inkscape:connector-curvature="0" />
    </clipPath>
    <clipPath
       clipPathUnits="userSpaceOnUse"
       id="clipPath5600">
      <path
         d="m 397.662,148.297 h 3.114 v -2.668 h -3.114 z"
         id="path5598"
         inkscape:connector-curvature="0" />
    </clipPath>
    <clipPath
       clipPathUnits="userSpaceOnUse"
       id="clipPath5616">
      <path
         d="m 397.244,153.767 h 2.733 v -2.214 h -2.733 z"
         id="path5614"
         inkscape:connector-curvature="0" />
    </clipPath>
    <clipPath
       clipPathUnits="userSpaceOnUse"
       id="clipPath5632">
      <path
         d="m 409.756,134.341 h 3.653 v -2.911 h -3.653 z"
         id="path5630"
         inkscape:connector-curvature="0" />
    </clipPath>
    <clipPath
       clipPathUnits="userSpaceOnUse"
       id="clipPath5648">
      <path
         d="m 413.39,144.648 h 1.924 v -2.51 h -1.924 z"
         id="path5646"
         inkscape:connector-curvature="0" />
    </clipPath>
    <clipPath
       clipPathUnits="userSpaceOnUse"
       id="clipPath5664">
      <path
         d="m 419.454,136.437 h 2.166 v -2.139 h -2.166 z"
         id="path5662"
         inkscape:connector-curvature="0" />
    </clipPath>
    <clipPath
       clipPathUnits="userSpaceOnUse"
       id="clipPath5680">
      <path
         d="m 415.172,125.724 h 4.989 v -3.046 h -4.989 z"
         id="path5678"
         inkscape:connector-curvature="0" />
    </clipPath>
    <clipPath
       clipPathUnits="userSpaceOnUse"
       id="clipPath5696">
      <path
         d="m 425.637,145.655 h 2.252 v -3.02 h -2.252 z"
         id="path5694"
         inkscape:connector-curvature="0" />
    </clipPath>
    <clipPath
       clipPathUnits="userSpaceOnUse"
       id="clipPath5712">
      <path
         d="m 427.911,130.143 h 1.617 v -1.655 h -1.617 z"
         id="path5710"
         inkscape:connector-curvature="0" />
    </clipPath>
    <clipPath
       clipPathUnits="userSpaceOnUse"
       id="clipPath5728">
      <path
         d="m 425.659,115.96 h 4.444 v -3.813 h -4.444 z"
         id="path5726"
         inkscape:connector-curvature="0" />
    </clipPath>
    <clipPath
       clipPathUnits="userSpaceOnUse"
       id="clipPath5744">
      <path
         d="m 423.428,135.098 h 3.085 v -2.374 h -3.085 z"
         id="path5742"
         inkscape:connector-curvature="0" />
    </clipPath>
    <clipPath
       clipPathUnits="userSpaceOnUse"
       id="clipPath5760">
      <path
         d="m 432.649,122.097 h 2.986 v -2.864 h -2.986 z"
         id="path5758"
         inkscape:connector-curvature="0" />
    </clipPath>
    <clipPath
       clipPathUnits="userSpaceOnUse"
       id="clipPath5776">
      <path
         d="m 432.879,109.549 h 3.649 v -3.106 h -3.649 z"
         id="path5774"
         inkscape:connector-curvature="0" />
    </clipPath>
    <clipPath
       clipPathUnits="userSpaceOnUse"
       id="clipPath5792">
      <path
         d="m 423.867,120.813 h 3.04 v -1.873 h -3.04 z"
         id="path5790"
         inkscape:connector-curvature="0" />
    </clipPath>
    <clipPath
       clipPathUnits="userSpaceOnUse"
       id="clipPath5812">
      <path
         d="m 448.367,85.8688 h 2.14 v -1.2169 h -2.14 z"
         id="path5810"
         inkscape:connector-curvature="0" />
    </clipPath>
    <clipPath
       clipPathUnits="userSpaceOnUse"
       id="clipPath5828">
      <path
         d="m 454.823,91.6986 h 2.457 v -2.0999 h -2.457 z"
         id="path5826"
         inkscape:connector-curvature="0" />
    </clipPath>
    <clipPath
       clipPathUnits="userSpaceOnUse"
       id="clipPath5844">
      <path
         d="m 453.438,78.3754 h 2.637 v -1.6536 h -2.637 z"
         id="path5842"
         inkscape:connector-curvature="0" />
    </clipPath>
    <clipPath
       clipPathUnits="userSpaceOnUse"
       id="clipPath5860">
      <path
         d="m 468.071,90.1904 h 2.45 V 87.735 h -2.45 z"
         id="path5858"
         inkscape:connector-curvature="0" />
    </clipPath>
    <clipPath
       clipPathUnits="userSpaceOnUse"
       id="clipPath5876">
      <path
         d="m 463.47,99.4024 h 2.021 V 97.136 h -2.021 z"
         id="path5874"
         inkscape:connector-curvature="0" />
    </clipPath>
    <clipPath
       clipPathUnits="userSpaceOnUse"
       id="clipPath5892">
      <path
         d="m 459.876,84.9299 h 1.265 v -1.0303 h -1.265 z"
         id="path5890"
         inkscape:connector-curvature="0" />
    </clipPath>
    <clipPath
       clipPathUnits="userSpaceOnUse"
       id="clipPath5908">
      <path
         d="m 464.933,71.7133 h 1.445 v -1.0078 h -1.445 z"
         id="path5906"
         inkscape:connector-curvature="0" />
    </clipPath>
    <clipPath
       clipPathUnits="userSpaceOnUse"
       id="clipPath5924">
      <path
         d="m 460.669,61.7793 h 2.573 V 60.103 h -2.573 z"
         id="path5922"
         inkscape:connector-curvature="0" />
    </clipPath>
    <clipPath
       clipPathUnits="userSpaceOnUse"
       id="clipPath5940">
      <path
         d="m 455.342,68.0634 h 1.219 v -0.7338 h -1.219 z"
         id="path5938"
         inkscape:connector-curvature="0" />
    </clipPath>
    <clipPath
       clipPathUnits="userSpaceOnUse"
       id="clipPath5956">
      <path
         d="m 468.846,54.0851 h 3.1 v -1.9272 h -3.1 z"
         id="path5954"
         inkscape:connector-curvature="0" />
    </clipPath>
    <clipPath
       clipPathUnits="userSpaceOnUse"
       id="clipPath5972">
      <path
         d="m 472.684,67.8094 h 2.446 v -1.9847 h -2.446 z"
         id="path5970"
         inkscape:connector-curvature="0" />
    </clipPath>
    <clipPath
       clipPathUnits="userSpaceOnUse"
       id="clipPath5988">
      <path
         d="m 486.846,69.5167 h 2.288 v -1.8138 h -2.288 z"
         id="path5986"
         inkscape:connector-curvature="0" />
    </clipPath>
    <clipPath
       clipPathUnits="userSpaceOnUse"
       id="clipPath6004">
      <path
         d="m 481.103,80.1101 h 1.716 v -1.9817 h -1.716 z"
         id="path6002"
         inkscape:connector-curvature="0" />
    </clipPath>
    <clipPath
       clipPathUnits="userSpaceOnUse"
       id="clipPath6020">
      <path
         d="m 472.404,84.2163 h 1.993 v -1.7354 h -1.993 z"
         id="path6018"
         inkscape:connector-curvature="0" />
    </clipPath>
    <clipPath
       clipPathUnits="userSpaceOnUse"
       id="clipPath6036">
      <path
         d="m 470.922,75.7226 h 3.017 v -2.195 h -3.017 z"
         id="path6034"
         inkscape:connector-curvature="0" />
    </clipPath>
    <clipPath
       clipPathUnits="userSpaceOnUse"
       id="clipPath6052">
      <path
         d="m 487.35,86.892 h 2.486 v -2.0241 h -2.486 z"
         id="path6050"
         inkscape:connector-curvature="0" />
    </clipPath>
    <clipPath
       clipPathUnits="userSpaceOnUse"
       id="clipPath6068">
      <path
         d="m 493.34,75.5483 h 2.497 v -2.497 h -2.497 z"
         id="path6066"
         inkscape:connector-curvature="0" />
    </clipPath>
    <clipPath
       clipPathUnits="userSpaceOnUse"
       id="clipPath6084">
      <path
         d="m 497.536,25.7968 h 3.121 v -1.7562 h -3.121 z"
         id="path6082"
         inkscape:connector-curvature="0" />
    </clipPath>
    <clipPath
       clipPathUnits="userSpaceOnUse"
       id="clipPath6100">
      <path
         d="m 506.362,30.7335 h 1.985 v -1.9992 h -1.985 z"
         id="path6098"
         inkscape:connector-curvature="0" />
    </clipPath>
    <clipPath
       clipPathUnits="userSpaceOnUse"
       id="clipPath6116">
      <path
         d="m 503.775,17.4749 h 4.279 v -2.4738 h -4.279 z"
         id="path6114"
         inkscape:connector-curvature="0" />
    </clipPath>
    <clipPath
       clipPathUnits="userSpaceOnUse"
       id="clipPath6132">
      <path
         d="m 505.147,23.3873 h 3.216 v -1.7629 h -3.216 z"
         id="path6130"
         inkscape:connector-curvature="0" />
    </clipPath>
    <clipPath
       clipPathUnits="userSpaceOnUse"
       id="clipPath6148">
      <path
         d="m 519.733,37.4293 h 3.397 v -2.912 h -3.397 z"
         id="path6146"
         inkscape:connector-curvature="0" />
    </clipPath>
    <clipPath
       clipPathUnits="userSpaceOnUse"
       id="clipPath6164">
      <path
         d="m 525.442,28.0828 h 3.368 v -2.452 h -3.368 z"
         id="path6162"
         inkscape:connector-curvature="0" />
    </clipPath>
    <clipPath
       clipPathUnits="userSpaceOnUse"
       id="clipPath6180">
      <path
         d="m 516.243,26.8884 h 2.987 V 24.91 h -2.987 z"
         id="path6178"
         inkscape:connector-curvature="0" />
    </clipPath>
    <clipPath
       clipPathUnits="userSpaceOnUse"
       id="clipPath6196">
      <path
         d="m 520.107,16.3052 h 3.187 v -1.9528 h -3.187 z"
         id="path6194"
         inkscape:connector-curvature="0" />
    </clipPath>
    <clipPath
       clipPathUnits="userSpaceOnUse"
       id="clipPath6212">
      <path
         d="m 511.909,10.6943 h 4.18 V 9.21204 h -4.18 z"
         id="path6210"
         inkscape:connector-curvature="0" />
    </clipPath>
    <clipPath
       clipPathUnits="userSpaceOnUse"
       id="clipPath6228">
      <path
         d="m 526.109,7.60458 h 3.842 V 5.34299 h -3.842 z"
         id="path6226"
         inkscape:connector-curvature="0" />
    </clipPath>
    <clipPath
       clipPathUnits="userSpaceOnUse"
       id="clipPath6244">
      <path
         d="m 536.191,19.8476 h 2.763 v -2.1782 h -2.763 z"
         id="path6242"
         inkscape:connector-curvature="0" />
    </clipPath>
    <clipPath
       clipPathUnits="userSpaceOnUse"
       id="clipPath6260">
      <path
         d="m 512.311,18.6583 h 3.541 v -2.0358 h -3.541 z"
         id="path6258"
         inkscape:connector-curvature="0" />
    </clipPath>
    <clipPath
       clipPathUnits="userSpaceOnUse"
       id="clipPath6276">
      <path
         d="m 527.688,17.521 h 2.344 v -1.6785 h -2.344 z"
         id="path6274"
         inkscape:connector-curvature="0" />
    </clipPath>
    <clipPath
       clipPathUnits="userSpaceOnUse"
       id="clipPath6292">
      <path
         d="m 544.117,17.1681 h 4.33 v -2.6416 h -4.33 z"
         id="path6290"
         inkscape:connector-curvature="0" />
    </clipPath>
    <clipPath
       clipPathUnits="userSpaceOnUse"
       id="clipPath6308">
      <path
         d="m 550.566,28.0907 h 2.392 v -1.8368 h -2.392 z"
         id="path6306"
         inkscape:connector-curvature="0" />
    </clipPath>
    <clipPath
       clipPathUnits="userSpaceOnUse"
       id="clipPath6324">
      <path
         d="m 536.24,10.6893 h 1.953 V 9.47577 h -1.953 z"
         id="path6322"
         inkscape:connector-curvature="0" />
    </clipPath>
    <clipPath
       clipPathUnits="userSpaceOnUse"
       id="clipPath6340">
      <path
         d="m 536.093,33.6108 h 3.083 v -2.5181 h -3.083 z"
         id="path6338"
         inkscape:connector-curvature="0" />
    </clipPath>
    <clipPath
       clipPathUnits="userSpaceOnUse"
       id="clipPath6356">
      <path
         d="m 530.219,46.8427 h 2.924 v -2.436 h -2.924 z"
         id="path6354"
         inkscape:connector-curvature="0" />
    </clipPath>
    <clipPath
       clipPathUnits="userSpaceOnUse"
       id="clipPath6372">
      <path
         d="m 537.468,42.2623 h 2.202 v -1.8888 h -2.202 z"
         id="path6370"
         inkscape:connector-curvature="0" />
    </clipPath>
    <clipPath
       clipPathUnits="userSpaceOnUse"
       id="clipPath6388">
      <path
         d="m 546.862,36.5074 h 2.647 v -1.4828 h -2.647 z"
         id="path6386"
         inkscape:connector-curvature="0" />
    </clipPath>
    <clipPath
       clipPathUnits="userSpaceOnUse"
       id="clipPath6404">
      <path
         d="m 556.913,22.8041 h 2.08 v -1.5339 h -2.08 z"
         id="path6402"
         inkscape:connector-curvature="0" />
    </clipPath>
    <clipPath
       clipPathUnits="userSpaceOnUse"
       id="clipPath6420">
      <path
         d="m 540.042,25.1759 h 2.028 V 24.118 h -2.028 z"
         id="path6418"
         inkscape:connector-curvature="0" />
    </clipPath>
    <clipPath
       clipPathUnits="userSpaceOnUse"
       id="clipPath6436">
      <path
         d="m 575.927,3.30591 h 2.774 V 0.820404 h -2.774 z"
         id="path6434"
         inkscape:connector-curvature="0" />
    </clipPath>
    <clipPath
       clipPathUnits="userSpaceOnUse"
       id="clipPath6452">
      <path
         d="m 588.301,7.10339 h 1.924 V 4.89027 h -1.924 z"
         id="path6450"
         inkscape:connector-curvature="0" />
    </clipPath>
    <clipPath
       clipPathUnits="userSpaceOnUse"
       id="clipPath6468">
      <path
         d="m 587.945,14.8569 h 2.093 v -1.5467 h -2.093 z"
         id="path6466"
         inkscape:connector-curvature="0" />
    </clipPath>
    <clipPath
       clipPathUnits="userSpaceOnUse"
       id="clipPath6484">
      <path
         d="m 595.205,10.0274 h 1.982 V 8.16005 h -1.982 z"
         id="path6482"
         inkscape:connector-curvature="0" />
    </clipPath>
    <clipPath
       clipPathUnits="userSpaceOnUse"
       id="clipPath6500">
      <path
         d="m 596.212,0.632904 h 2.529 V -1.40804 h -2.529 z"
         id="path6498"
         inkscape:connector-curvature="0" />
    </clipPath>
    <clipPath
       clipPathUnits="userSpaceOnUse"
       id="clipPath6516">
      <path
         d="m 603.934,10.9952 h 1.674 V 9.02663 h -1.674 z"
         id="path6514"
         inkscape:connector-curvature="0" />
    </clipPath>
    <clipPath
       clipPathUnits="userSpaceOnUse"
       id="clipPath6532">
      <path
         d="m 599.549,22.5931 h 1.734 v -2.0248 h -1.734 z"
         id="path6530"
         inkscape:connector-curvature="0" />
    </clipPath>
    <clipPath
       id="id0">
      <path
         d="m 80.8491,15.0756 c -0.073,0.8247 -0.1728,1.8555 -0.297,3.0925 -0.1383,1.2482 -0.206,2.5298 -0.2031,3.8448 9e-4,1.7162 0.1934,3.3405 0.5882,4.8644 0.3913,1.5268 1.1781,2.5966 2.3603,3.2096 h -1.2239 c -0.8634,0 -1.4893,-0.1728 -1.8831,-0.5182 -0.3885,-0.3455 -0.7189,-0.7857 -0.9894,-1.3178 -0.1414,-0.2814 -0.2877,-0.5823 -0.438,-0.9055 -0.1504,-0.3232 -0.326,-0.6519 -0.5268,-0.9863 -0.3268,-0.5237 -0.7753,-1.0364 -1.3455,-1.5379 -0.5809,-0.5015 -1.3997,-0.9277 -2.4546,-1.2843 0,0 -0.2383,0.2201 -0.7156,0.663 -0.4923,0.457 -1.0688,0.9612 -1.7252,1.5073 -0.1894,0.156 -0.3799,0.3065 -0.5748,0.4541 -0.1907,0.1421 -0.3795,0.287 -0.5629,0.4319 -0.4864,0.3566 -0.9372,0.6575 -1.3552,0.9026 -0.4278,0.2424 -0.7686,0.365 -1.0269,0.365 -0.1936,0 -0.3189,-0.0306 -0.3768,-0.0975 -0.0525,-0.0669 -0.0738,-0.1393 -0.0647,-0.2145 -0.0032,-0.0251 -0.0019,-0.0474 0.0048,-0.0697 0.0067,-0.0223 0.0134,-0.0446 0.0201,-0.0668 0.0067,-0.0223 0.0134,-0.0446 0.021,-0.0697 0.0033,-0.0111 0.0075,-0.0251 0.0142,-0.0474 0.0469,-0.156 0.0981,-0.273 0.1565,-0.351 0.0524,-0.0669 0.1337,-0.1226 0.2439,-0.1672 0.2554,-0.1337 0.7685,-0.3733 1.5394,-0.7188 0.7567,-0.3343 2.0662,-1.237 3.9266,-2.7108 -0.2497,-0.0641 -0.4794,-0.1142 -0.6962,-0.1449 -0.2184,-0.025 -0.424,-0.039 -0.6204,-0.039 -0.3443,0 -0.6484,0.0362 -0.9159,0.1031 -0.2676,0.0669 -0.5062,0.1449 -0.7151,0.2313 -0.0996,0.0362 -0.1822,0.0696 -0.2569,0.103 -0.0887,0.0446 -0.173,0.0836 -0.2485,0.1198 0.3926,-0.3036 0.7968,-0.521 1.2135,-0.6547 0.4134,-0.1226 0.8198,-0.195 1.2103,-0.2145 0.035,0 0.0673,0 0.0996,0 0.0295,0 0.0619,0 0.0941,0 0.2152,0 0.4279,0.0084 0.6364,0.0306 0.1943,0.0335 0.3817,0.0725 0.5654,0.1143 0.4493,-0.4207 0.8875,-0.8498 1.3193,-1.2844 0.4211,-0.4346 0.8261,-0.8692 1.214,-1.3011 0.8557,-0.95 1.6273,-1.8889 2.3141,-2.8139 0.6853,-0.911 1.2403,-1.7469 1.6698,-2.5047 z M 78.423,24.941 c -0.0357,-0.2034 -0.0603,-0.4708 -0.0674,-0.8051 -0.0106,-0.3232 -0.0076,-0.691 0.0086,-1.1033 0.0228,-0.6129 0.0711,-1.2927 0.1448,-2.0394 0.0704,-0.7355 0.1662,-1.4933 0.2823,-2.2734 -0.623,0.8469 -1.2608,1.627 -1.9155,2.3375 -0.6661,0.7132 -1.3472,1.4041 -2.0438,2.0756 0.2091,0.0557 0.4221,0.117 0.6387,0.1839 0.2166,0.0668 0.4299,0.1448 0.6398,0.234 0.4447,0.1672 0.874,0.3678 1.2878,0.6018 0.4032,0.234 0.7424,0.5015 1.0205,0.8024 z"
         id="path4" />
    </clipPath>
    <clipPath
       id="id1">
      <path
         d="m 89.8727,19.0708 -2.9933,9.9629 c -0.0335,0.1115 -0.0405,0.2062 -0.0235,0.2842 0.0089,0.078 0.0354,0.1505 0.0827,0.2173 0.0707,0.1226 0.1704,0.2563 0.299,0.4012 0.1145,0.156 0.21,0.3845 0.2917,0.6854 0.0101,0.0111 0.0184,0.0195 0.0257,0.0306 -0.0075,0.0251 -0.0071,0.0418 2e-4,0.053 -0.0444,-0.0669 -0.0868,-0.1226 -0.1272,-0.1672 -0.0512,-0.0446 -0.1024,-0.0891 -0.1535,-0.1337 -0.1494,-0.1115 -0.3105,-0.1839 -0.4862,-0.2173 -0.1851,-0.0195 -0.3808,-0.0307 -0.5852,-0.0307 -0.2044,0 -0.4039,0.0195 -0.6029,0.0641 -0.1936,0.0446 -0.3858,0.1114 -0.5767,0.2006 -0.1963,0.0891 -0.4002,0.195 -0.6119,0.3176 -0.2204,0.1337 -0.4646,0.2842 -0.7309,0.4541 0.0335,-0.1114 0.1241,-0.234 0.2727,-0.3705 0.1478,-0.1337 0.3081,-0.2731 0.4806,-0.4179 0.1752,-0.1533 0.3404,-0.3093 0.4948,-0.4653 0.1554,-0.1588 0.2577,-0.3204 0.3071,-0.4848 l 1.6222,-5.3993 c -0.1153,0.0975 -0.3004,0.2479 -0.557,0.4485 -0.2546,0.2118 -0.5351,0.4291 -0.8415,0.652 -0.1101,0.0891 -0.2213,0.1727 -0.3308,0.2507 -0.1095,0.078 -0.2227,0.1504 -0.3424,0.2173 -0.2861,0.2006 -0.5545,0.3594 -0.8065,0.482 -0.2661,0.1337 -0.4772,0.2006 -0.6386,0.2006 -0.0214,0 -0.0429,0 -0.0672,0 -0.0215,0 -0.0387,-0.0056 -0.0568,-0.0167 -0.3102,-0.0418 -0.5304,-0.2758 -0.6606,-0.7021 -0.1459,-0.4096 -0.1107,-0.9835 0.1111,-1.7218 0.4679,-1.5574 1.2442,-2.7442 2.3305,-3.5578 1.0729,-0.8135 2.2254,-1.2203 3.4626,-1.2203 z m -1.6577,0.4681 c -0.8102,0.0111 -1.5337,0.3064 -2.1732,0.8859 -0.6368,0.5795 -1.0832,1.2148 -1.3446,1.9057 -0.0241,0.0446 -0.0429,0.0892 -0.0554,0.1309 -0.0143,0.0474 -0.0277,0.092 -0.0411,0.1366 -0.1741,0.5795 -0.1994,0.9862 -0.0788,1.2203 0.1046,0.234 0.2899,0.351 0.5563,0.351 0.0107,0 0.0241,0 0.0349,0 0.1291,0 0.2757,-0.0223 0.4397,-0.0669 0.1506,-0.0445 0.3169,-0.1058 0.491,-0.1838 0.1741,-0.0781 0.3532,-0.1728 0.5346,-0.2842 0.1761,-0.1115 0.3457,-0.2285 0.5116,-0.3511 z"
         id="path7" />
    </clipPath>
    <clipPath
       id="id2">
      <path
         d="m 90.55,20.1741 c 0.305,-0.326 0.6026,-0.5823 0.8953,-0.769 0.283,-0.1894 0.5538,-0.312 0.818,-0.3677 0.0605,-0.0223 0.1247,-0.039 0.1934,-0.0529 0.0538,0 0.113,0 0.1775,0 0.2152,0 0.362,0.0668 0.4392,0.2033 0.0675,0.1338 0.0993,0.2786 0.0927,0.4347 0.0064,0.1309 -0.0052,0.2591 -0.0313,0.3817 -0.026,0.1225 -0.0449,0.2033 -0.055,0.2368 -0.0033,0.0111 -0.005,0.0167 -0.005,0.0167 l -0.9392,3.1259 c -0.0268,0.0892 -0.051,0.17 -0.0753,0.2508 -0.0235,0.078 -0.0486,0.1616 -0.0762,0.2535 -0.0795,0.2647 -0.1138,0.5043 -0.1021,0.716 0.0108,0.2145 0.1673,0.3204 0.4685,0.3204 0.0861,0 0.1984,-0.0334 0.3377,-0.1031 0.135,-0.0557 0.2751,-0.1281 0.4203,-0.2173 0.1767,-0.1226 0.3558,-0.2619 0.5425,-0.4179 0.1753,-0.1449 0.3281,-0.2953 0.4584,-0.4513 0.0973,-0.1003 0.1776,-0.2062 0.2406,-0.3176 0.0625,-0.1003 0.1071,-0.1951 0.1338,-0.2842 l 0.8689,-2.8919 c 0.1005,-0.3344 0.3344,-0.6297 0.7046,-0.886 0.3543,-0.248 0.7407,-0.3705 1.1577,-0.3705 l -1.7846,5.9398 c -0.0034,0.0112 -0.0014,0.0223 0.0069,0.0307 0.004,0.0222 0.0172,0.0501 0.0421,0.0835 0.0257,0.0223 0.0645,0.0363 0.1149,0.0474 0.0356,0.0251 0.0913,0.0362 0.1667,0.0362 0.1291,0 0.318,-0.0557 0.5667,-0.1671 0.2345,-0.1003 0.552,-0.3065 0.9605,-0.6185 -0.0773,0.078 -0.2073,0.2061 -0.3872,0.3844 -0.1888,0.1895 -0.4007,0.3845 -0.6313,0.5879 -0.2276,0.1755 -0.4623,0.3482 -0.7043,0.5182 -0.2464,0.1755 -0.483,0.3092 -0.7035,0.3984 -0.0928,0.0223 -0.1801,0.0446 -0.2595,0.0669 -0.0935,0.025 -0.1803,0.0362 -0.2556,0.0362 -0.3093,0 -0.4961,-0.0947 -0.5567,-0.287 -0.0674,-0.1783 -0.0479,-0.4402 0.0559,-0.7856 l 0.226,-0.7523 c -0.1169,0.1115 -0.2472,0.2229 -0.3882,0.3343 -0.1412,0.1115 -0.2876,0.2229 -0.4395,0.3344 -0.3634,0.2786 -0.748,0.5293 -1.1486,0.7522 -0.4118,0.234 -0.8017,0.3678 -1.1677,0.404 -0.0215,0 -0.0377,0 -0.0484,0 -0.0188,0 -0.043,0 -0.0673,0 -0.3631,0 -0.5674,-0.1616 -0.6101,-0.4848 -0.0561,-0.3148 -0.042,-0.6659 0.042,-1.0531 0.0102,-0.0697 0.0249,-0.1365 0.0442,-0.2006 0.0209,-0.0697 0.041,-0.1365 0.0611,-0.2034 l 1.1702,-3.8949 c 0.0503,-0.1672 0.0767,-0.3092 0.0813,-0.4318 -0.0062,-0.1226 -0.0846,-0.1839 -0.2353,-0.1839 -0.0786,0.0111 -0.183,0.0362 -0.3147,0.0808 -0.1318,0.0446 -0.2942,0.1198 -0.4891,0.2312 z"
         id="path10" />
    </clipPath>
    <clipPath
       id="id3">
      <path
         d="m 104.298,19.0708 h 1.4068 l -1.8575,6.1823 c -0.0168,0.0919 -0.008,0.1532 0.0228,0.1838 0.014,0.0251 0.043,0.0363 0.0887,0.0363 0.0108,0 0.0215,0 0.0323,0 0.1075,0 0.2625,-0.0502 0.4648,-0.1505 0.1989,-0.0891 0.4244,-0.195 0.6764,-0.3176 -0.0524,0.0669 -0.1101,0.1337 -0.1759,0.2006 -0.0638,0.078 -0.134,0.1505 -0.2097,0.2145 -0.1802,0.17 -0.3848,0.3316 -0.6146,0.4876 -0.227,0.156 -0.4515,0.2675 -0.6652,0.3343 -0.0678,0.0195 -0.132,0.0362 -0.1918,0.0474 -0.0652,0.0111 -0.1261,0.0167 -0.1826,0.0167 -0.0403,0 -0.1052,-0.0167 -0.192,-0.0502 -0.0876,-0.0306 -0.1731,-0.0863 -0.2591,-0.1671 -0.1037,-0.1115 -0.1885,-0.2591 -0.2499,-0.4486 -0.0648,-0.1783 -0.057,-0.4012 0.0234,-0.6686 l 0.2753,-0.9166 c -0.1153,0.0975 -0.3004,0.2479 -0.557,0.4485 -0.2546,0.2118 -0.5351,0.4291 -0.8415,0.652 -0.1101,0.0891 -0.2213,0.1727 -0.3308,0.2507 -0.1095,0.078 -0.2227,0.1504 -0.3424,0.2173 -0.2861,0.2006 -0.5545,0.3594 -0.8065,0.482 -0.2661,0.1337 -0.4772,0.2006 -0.6386,0.2006 -0.0214,0 -0.0429,0 -0.0672,0 -0.0215,0 -0.0387,-0.0056 -0.0568,-0.0167 -0.3102,-0.0418 -0.5304,-0.2758 -0.6606,-0.7021 -0.1459,-0.4096 -0.1107,-0.9835 0.1111,-1.7218 0.4679,-1.5574 1.2442,-2.7442 2.3305,-3.5578 1.0702,-0.8135 2.2254,-1.2203 3.4626,-1.2203 z m -0.2509,0.4681 c -0.8102,0.0111 -1.5337,0.3064 -2.1732,0.8859 -0.6368,0.5795 -1.0832,1.2148 -1.3446,1.9057 -0.0241,0.0446 -0.0429,0.0892 -0.0554,0.1309 -0.0143,0.0474 -0.0277,0.092 -0.0411,0.1366 -0.1741,0.5795 -0.1994,0.9862 -0.0788,1.2203 0.1046,0.234 0.2899,0.351 0.5563,0.351 0.0107,0 0.0241,0 0.0349,0 0.1291,0 0.2757,-0.0223 0.4397,-0.0669 0.1506,-0.0445 0.3169,-0.1058 0.491,-0.1838 0.1741,-0.0781 0.3532,-0.1728 0.5346,-0.2842 0.1761,-0.1115 0.3457,-0.2285 0.5116,-0.3511 z"
         id="path13" />
    </clipPath>
    <clipPath
       id="id4">
      <path
         d="m 106.694,22.5645 c 0.6931,-2.3068 1.8297,-4.0843 3.4098,-5.3325 1.5766,-1.237 3.1119,-1.8527 4.6075,-1.8527 l 4.0074,-0.0167 c -0.0258,0.3009 -0.0212,0.5544 0.0111,0.7689 0.0332,0.2118 0.0708,0.4179 0.1173,0.6213 0.0231,0.0753 0.0481,0.1533 0.0784,0.2313 0.0163,0.0891 0.0326,0.1783 0.0496,0.2646 0.0491,0.1589 0.0887,0.3316 0.1187,0.5183 0.0259,0.2005 0.0352,0.429 0.0371,0.6825 -0.0885,-0.064 -0.2121,-0.2256 -0.3717,-0.482 -0.1597,-0.2563 -0.3897,-0.5293 -0.6935,-0.8163 -0.3273,-0.3343 -0.7623,-0.6408 -1.3035,-0.9166 -0.5503,-0.2814 -1.2509,-0.4207 -2.1009,-0.4207 -1.5896,0 -2.7822,0.4959 -3.5779,1.4878 -0.801,0.9918 -1.4035,2.0839 -1.8075,3.2764 -0.0201,0.0668 -0.0402,0.1337 -0.0603,0.2006 -0.02,0.0668 -0.0393,0.1309 -0.0602,0.2006 -0.1231,0.4095 -0.2247,0.8553 -0.3023,1.3373 -0.0928,0.4792 -0.147,0.9639 -0.1653,1.4543 -0.042,1.1785 0.1567,2.2539 0.6006,3.2207 0.4334,0.9834 1.2706,1.4738 2.5079,1.4738 1.127,0 2.0508,-0.2006 2.7639,-0.6046 0.6973,-0.3872 1.2674,-0.8163 1.7119,-1.2844 0.1377,-0.1448 0.2646,-0.2897 0.3853,-0.4318 0.1164,-0.1365 0.2264,-0.2702 0.3285,-0.404 -0.3264,0.8804 -0.8652,1.6354 -1.6155,2.2707 -0.7537,0.6463 -2.0935,0.9695 -4.0167,0.9695 -1.7565,0 -3.1374,-0.5071 -4.1454,-1.5212 -1.022,-1.003 -1.1949,-2.63 -0.5185,-4.8811 z"
         id="path16" />
    </clipPath>
    <clipPath
       id="id5">
      <path
         d="m 119.234,20.1741 c 0.305,-0.326 0.6026,-0.5823 0.8953,-0.769 0.283,-0.1894 0.5538,-0.312 0.818,-0.3677 0.0605,-0.0223 0.1247,-0.039 0.1934,-0.0529 0.0538,0 0.113,0 0.1775,0 0.2152,0 0.362,0.0668 0.4392,0.2033 0.0675,0.1338 0.0993,0.2786 0.0927,0.4347 0.006,0.1309 -0.005,0.2591 -0.0313,0.3817 -0.026,0.1225 -0.0449,0.2033 -0.055,0.2368 -0.003,0.0111 -0.005,0.0167 -0.005,0.0167 l -0.9392,3.1259 c -0.0268,0.0892 -0.051,0.17 -0.0753,0.2508 -0.0235,0.078 -0.0486,0.1616 -0.0762,0.2535 -0.0795,0.2647 -0.1138,0.5043 -0.1021,0.716 0.0108,0.2145 0.1673,0.3204 0.4685,0.3204 0.0861,0 0.1984,-0.0334 0.3377,-0.1031 0.135,-0.0557 0.2751,-0.1281 0.4203,-0.2173 0.1767,-0.1226 0.3558,-0.2619 0.5425,-0.4179 0.1753,-0.1449 0.3281,-0.2953 0.4584,-0.4513 0.0973,-0.1003 0.1776,-0.2062 0.2406,-0.3176 0.0625,-0.1003 0.1071,-0.1951 0.1338,-0.2842 l 0.8689,-2.8919 c 0.1005,-0.3344 0.3344,-0.6297 0.7046,-0.886 0.3543,-0.248 0.7407,-0.3705 1.1577,-0.3705 l -1.7846,5.9398 c -0.003,0.0112 -0.001,0.0223 0.007,0.0307 0.004,0.0222 0.0172,0.0501 0.0421,0.0835 0.0257,0.0223 0.0645,0.0363 0.1149,0.0474 0.0356,0.0251 0.0913,0.0362 0.1667,0.0362 0.1291,0 0.318,-0.0557 0.5667,-0.1671 0.2345,-0.1003 0.552,-0.3065 0.9605,-0.6185 -0.0773,0.078 -0.2073,0.2061 -0.3872,0.3844 -0.1888,0.1895 -0.4007,0.3845 -0.6313,0.5879 -0.2276,0.1755 -0.4623,0.3482 -0.7043,0.5182 -0.2464,0.1755 -0.483,0.3092 -0.7035,0.3984 -0.0928,0.0223 -0.1801,0.0446 -0.2595,0.0669 -0.0935,0.025 -0.1803,0.0362 -0.2556,0.0362 -0.3093,0 -0.4961,-0.0947 -0.5567,-0.287 -0.0674,-0.1783 -0.0479,-0.4402 0.0559,-0.7856 l 0.226,-0.7523 c -0.1169,0.1115 -0.2472,0.2229 -0.3882,0.3343 -0.1412,0.1115 -0.2876,0.2229 -0.4395,0.3344 -0.3634,0.2786 -0.748,0.5293 -1.1486,0.7522 -0.4118,0.234 -0.8017,0.3678 -1.1677,0.404 -0.0215,0 -0.0377,0 -0.0484,0 -0.0188,0 -0.043,0 -0.0673,0 -0.3631,0 -0.5674,-0.1616 -0.6101,-0.4848 -0.0561,-0.3148 -0.042,-0.6659 0.042,-1.0531 0.0102,-0.0697 0.0249,-0.1365 0.0442,-0.2006 0.0209,-0.0697 0.041,-0.1365 0.0611,-0.2034 l 1.1702,-3.8949 c 0.0503,-0.1672 0.0767,-0.3092 0.0813,-0.4318 -0.006,-0.1226 -0.0846,-0.1839 -0.2353,-0.1839 -0.0786,0.0111 -0.183,0.0362 -0.3147,0.0808 -0.1318,0.0446 -0.2942,0.1198 -0.4891,0.2312 z"
         id="path19" />
    </clipPath>
    <clipPath
       id="id6">
      <path
         d="m 126.772,24.9243 2.0893,-6.954 c 0.2319,-0.7717 0.6443,-1.4459 1.238,-2.0254 0.5796,-0.5684 1.2192,-0.8526 1.9211,-0.8526 l 1.4549,-0.0167 c -0.1712,0.2118 -0.336,0.3845 -0.4946,0.5182 -0.1693,0.1338 -0.3286,0.2341 -0.4777,0.3009 -0.2057,0.1115 -0.3926,0.1783 -0.5606,0.2006 -0.1815,0.0223 -0.3372,0.039 -0.4697,0.0502 -0.1513,0.0111 -0.2746,0.0278 -0.3692,0.0473 -0.097,0.0363 -0.1635,0.1143 -0.2003,0.2368 l -2.5523,8.4947 c -0.0326,0.1087 -0.0345,0.1867 -0.002,0.2313 0.0155,0.0557 0.0618,0.0808 0.1372,0.0808 0.1316,-0.0084 0.3326,-0.0864 0.602,-0.2313 0.2587,-0.1449 0.5594,-0.3399 0.8985,-0.5823 -0.2342,0.287 -0.499,0.56 -0.7912,0.8163 -0.2956,0.2675 -0.584,0.4932 -0.8627,0.6687 -0.215,0.1337 -0.4066,0.234 -0.5773,0.3009 -0.183,0.0808 -0.3453,0.1198 -0.4878,0.1198 -0.3443,0 -0.5425,-0.1282 -0.5911,-0.3873 -0.0628,-0.2563 -0.0324,-0.5906 0.0907,-1.0002 z"
         id="path22" />
    </clipPath>
    <clipPath
       id="id7">
      <path
         d="m 132.09,20.4109 c 0.0391,-0.0585 0.1196,-0.1476 0.2426,-0.2702 0.1121,-0.1226 0.2529,-0.2508 0.4222,-0.3845 0.1825,-0.1421 0.3813,-0.2842 0.5962,-0.4179 0.1955,-0.1226 0.3908,-0.2173 0.5848,-0.2814 0.0546,-0.0112 0.1117,-0.0223 0.1688,-0.0334 0.0571,-0.0112 0.1127,-0.0168 0.1692,-0.0168 0.2878,0 0.4728,0.1003 0.5559,0.2982 0.0655,0.2117 0.0733,0.4457 0.0285,0.702 -0.0168,0.0558 -0.0281,0.1115 -0.0341,0.1672 -0.0201,0.0669 -0.0385,0.1282 -0.0553,0.1839 l -1.4062,4.6805 c -0.0354,0.1895 -0.0309,0.3177 0.0135,0.3845 0.0445,0.0669 0.1044,0.1003 0.1797,0.1003 0.0539,0 0.1181,-0.0167 0.1926,-0.0501 0.0713,-0.0223 0.1467,-0.0585 0.2238,-0.1003 0.039,-0.0223 0.0824,-0.0502 0.1211,-0.0808 0.0398,-0.0251 0.0805,-0.053 0.1201,-0.0864 0.0558,-0.0334 0.1089,-0.0669 0.1611,-0.0975 0.0432,-0.0362 0.0865,-0.0641 0.1228,-0.0864 -0.5775,0.6687 -1.022,1.0559 -1.3319,1.1562 -0.3205,0.1003 -0.5562,0.1505 -0.7068,0.1505 -0.0109,0 -0.0216,0 -0.0297,0 -0.3039,0 -0.4967,-0.1282 -0.5776,-0.3873 -0.0904,-0.2451 -0.0874,-0.5238 0.005,-0.833 l 1.4875,-4.9508 c 0.0243,-0.0808 0.0291,-0.1505 0.0169,-0.2173 -0.0236,-0.0558 -0.079,-0.0864 -0.1651,-0.0864 -0.0968,0 -0.2366,0.0446 -0.4148,0.1365 -0.1774,0.0892 -0.4093,0.234 -0.6955,0.4346 z m 2.0765,-3.9478 c 0.1339,-0.4458 0.3356,-0.7411 0.6042,-0.8832 0.2695,-0.1449 0.5387,-0.2173 0.805,-0.2173 0.2475,0 0.4396,0.0947 0.5772,0.2814 0.1361,0.2006 0.1491,0.4792 0.042,0.8358 -0.0837,0.2786 -0.2303,0.5071 -0.4345,0.6854 -0.2158,0.1811 -0.4327,0.312 -0.6531,0.4012 -0.1243,0.0557 -0.2437,0.0947 -0.3579,0.117 -0.1177,0.0334 -0.2142,0.0501 -0.2868,0.0501 -0.2045,0 -0.3287,-0.1059 -0.3718,-0.3204 -0.0481,-0.1978 -0.0441,-0.4262 0.0123,-0.6853 0.002,-0.0418 0.01,-0.0864 0.0224,-0.1282 0.0108,-0.0362 0.0225,-0.0752 0.0359,-0.1198 z"
         id="path25" />
    </clipPath>
    <clipPath
       id="id8">
      <path
         d="m 139.73,18.9677 c 0.1257,0.0112 0.2417,0.0279 0.3526,0.053 0.1008,0.0223 0.2045,0.0446 0.3054,0.0668 0.0188,0 0.0403,0 0.0618,0 0.0209,0.0112 0.039,0.0223 0.0572,0.0335 0.0802,0.0195 0.1612,0.0362 0.2413,0.0473 0.0711,0.014 0.1574,0.0223 0.2543,0.0223 0.1182,0 0.2603,-0.0251 0.4217,-0.0696 0.1633,-0.0335 0.3468,-0.0892 0.5505,-0.1672 -0.3016,0.3232 -0.5335,0.6297 -0.6941,0.9222 -0.1615,0.287 -0.291,0.521 -0.3884,0.7021 -0.0166,0.0195 -0.027,0.0362 -0.0303,0.0473 -0.0175,0.0223 -0.0279,0.039 -0.0313,0.0502 -0.0929,-0.156 -0.1883,-0.2953 -0.2779,-0.4179 -0.0923,-0.1226 -0.1859,-0.2229 -0.2807,-0.3009 -0.1569,-0.1226 -0.3264,-0.2118 -0.5025,-0.2703 -0.1784,-0.0418 -0.3924,-0.064 -0.6398,-0.064 -0.4196,0 -0.7282,0.078 -0.9276,0.2312 -0.2017,0.17 -0.3339,0.3594 -0.3975,0.5711 -0.0536,0.1784 -0.01,0.3288 0.1253,0.4514 0.122,0.1309 0.2924,0.2535 0.5171,0.365 0.1432,0.0696 0.2898,0.1365 0.4383,0.2061 0.1523,0.0752 0.3064,0.1533 0.4658,0.2313 0.4065,0.2229 0.7552,0.5126 1.0435,0.8692 0.2936,0.3566 0.3403,0.8637 0.1419,1.524 -0.2369,0.7884 -0.609,1.3289 -1.1158,1.6187 -0.5243,0.3037 -1.0432,0.482 -1.5648,0.5349 -0.1324,0.0111 -0.2632,0.0167 -0.395,0.0167 -0.1432,0.0112 -0.2793,0.0167 -0.4058,0.0167 -0.8177,0 -1.2926,-0.156 -1.4257,-0.4652 -0.1356,-0.3009 -0.0204,-1.0782 0.3439,-2.3264 0.002,0.1003 0.0124,0.2006 0.036,0.3009 0.01,0.1114 0.0288,0.2173 0.0499,0.3176 0.102,0.4123 0.3002,0.7913 0.5945,1.1367 0.2942,0.3455 0.7265,0.5182 1.2968,0.5182 0.3901,0 0.7019,-0.0891 0.9384,-0.2674 0.2223,-0.1672 0.3855,-0.4235 0.4893,-0.769 0.0703,-0.234 0.0277,-0.4235 -0.1225,-0.5683 -0.1474,-0.1449 -0.3423,-0.2842 -0.5845,-0.4179 -0.1097,-0.0558 -0.2258,-0.1171 -0.3456,-0.1839 -0.1332,-0.0669 -0.2584,-0.1338 -0.3774,-0.2034 -0.3956,-0.2229 -0.7238,-0.5182 -0.9898,-0.886 -0.2829,-0.3566 -0.3159,-0.8915 -0.1016,-1.6047 0.231,-0.769 0.6265,-1.2705 1.1809,-1.5045 0.5438,-0.234 1.1061,-0.351 1.6871,-0.351 z"
         id="path28" />
    </clipPath>
  </defs>
  <sodipodi:namedview
     id="base"
     pagecolor="#4c4c4c"
     bordercolor="#666666"
     borderopacity="1.0"
     inkscape:pageopacity="0"
     inkscape:pageshadow="2"
     inkscape:zoom="0.72559305"
     inkscape:cx="790.45974"
     inkscape:cy="372.83328"
     inkscape:document-units="mm"
     inkscape:current-layer="g9449"
     showgrid="false"
     inkscape:window-width="1350"
     inkscape:window-height="705"
     inkscape:window-x="0"
     inkscape:window-y="26"
     inkscape:window-maximized="1"
     inkscape:document-rotation="0" />
  <metadata
     id="metadata5">
    <rdf:RDF>
      <cc:Work
         rdf:about="">
        <dc:format>image/svg+xml</dc:format>
        <dc:type
           rdf:resource="http://purl.org/dc/dcmitype/StillImage" />
        <dc:title></dc:title>
      </cc:Work>
    </rdf:RDF>
  </metadata>
  <g
     inkscape:label="Layer 1"
     inkscape:groupmode="layer"
     id="layer1"
     transform="translate(107.47122,-7.7160134)">
    <g
       id="g9449">
      <text
         id="text4967"
         y="111.94916"
         x="300.38208"
         style="line-height:0%;font-family:Cantarell;-inkscape-font-specification:'Cantarell, Normal';letter-spacing:0.0820209px;word-spacing:-0.291042px;writing-mode:lr-tb;stroke-width:0.264583"
         xml:space="preserve"><tspan
           style="font-style:normal;font-variant:normal;font-weight:normal;font-stretch:normal;font-size:7.05556px;line-height:0;font-family:Neckar;-inkscape-font-specification:'Neckar, Normal';font-variant-ligatures:normal;font-variant-caps:normal;font-variant-numeric:normal;font-feature-settings:normal;text-align:start;word-spacing:-0.518583px;writing-mode:lr-tb;text-anchor:start;stroke-width:0.264583"
           y="111.94916"
           x="300.38208"
           id="tspan4965"
           sodipodi:role="line"></tspan></text>
      <flowRoot
         style="line-height:0.01%;font-family:Cantarell;-inkscape-font-specification:'Cantarell, Normal';letter-spacing:0.31px;word-spacing:-1.1px;writing-mode:lr-tb"
         id="flowRoot20476"
         xml:space="preserve"><flowRegion
           id="flowRegion20478"><rect
             y="130.50426"
             x="1244.5079"
             height="574.17072"
             width="797.61646"
             id="rect20480" /></flowRegion><flowPara
           id="flowPara20482"
           style="font-size:26.6667px;line-height:0"></flowPara></flowRoot>
      <flowRoot
         style="line-height:0.01%;font-family:Cantarell;-inkscape-font-specification:'Cantarell, Normal';letter-spacing:0.31px;word-spacing:-1.1px;writing-mode:lr-tb"
         id="flowRoot20492"
         xml:space="preserve"><flowRegion
           id="flowRegion20494"><rect
             y="-2.4318113"
             x="1945.9579"
             height="149.90663"
             width="214.96046"
             id="rect20496" /></flowRegion><flowPara
           id="flowPara20498"
           style="font-size:26.6667px;line-height:0"></flowPara></flowRoot>
      <text
         id="text9514"
         y="28.013163"
         x="404.76212"
         style="line-height:0%;font-family:Cantarell;-inkscape-font-specification:'Cantarell, Normal';letter-spacing:0.0820209px;word-spacing:-0.291042px;writing-mode:lr-tb;stroke-width:0.264583"
         xml:space="preserve"><tspan
           style="font-size:7.05555px;line-height:0;stroke-width:0.264583"
           y="28.013163"
           x="404.76212"
           id="tspan9512"
           sodipodi:role="line"></tspan></text>
      <g
         style="fill:#ffffff;stroke:#ffffff"
         id="g3122"
         transform="translate(0.31279752,-0.39214391)">
        <path
           inkscape:connector-curvature="0"
           id="path72"
           d="m -45.374413,9.4144842 c -0.342082,3.4807658 -0.809734,7.8314058 -1.391731,13.0523478 -0.648067,5.268209 -0.965307,10.677388 -0.951717,16.227541 0.0042,7.243469 0.906264,14.099065 2.756278,20.530909 1.833618,6.444082 5.520535,10.959328 11.06028,13.546584 h -5.73515 c -4.04586,0 -6.978804,-0.729324 -8.824133,-2.187138 -1.820495,-1.458231 -3.368738,-3.316163 -4.636291,-5.561967 -0.662593,-1.187688 -1.34815,-2.457683 -2.052454,-3.821796 -0.704768,-1.364113 -1.527622,-2.751438 -2.468562,-4.162821 -1.531374,-2.210353 -3.633026,-4.37428 -6.304963,-6.490933 -2.722077,-2.116653 -6.558939,-3.915492 -11.502165,-5.420576 0,0 -1.116662,0.928966 -3.353273,2.79829 -2.306893,1.928835 -5.008353,4.056884 -8.084222,6.361778 -0.887521,0.658421 -1.780194,1.293628 -2.693489,1.916598 -0.893613,0.599751 -1.778324,1.211324 -2.637725,1.822894 -2.279256,1.505083 -4.391684,2.775074 -6.350419,3.809555 -2.004651,1.023087 -3.601631,1.540539 -4.812011,1.540539 -0.90721,0 -1.49436,-0.129137 -1.76567,-0.411515 -0.24603,-0.282381 -0.34585,-0.587936 -0.30318,-0.905328 -0.0152,-0.105941 -0.009,-0.200056 0.0224,-0.29417 0.0312,-0.09412 0.0628,-0.188229 0.0942,-0.281926 0.0312,-0.09411 0.0628,-0.188229 0.0984,-0.294169 0.0156,-0.04685 0.035,-0.105941 0.0665,-0.200055 0.21975,-0.658422 0.45969,-1.15224 0.73335,-1.481451 0.24558,-0.282343 0.62652,-0.517451 1.14291,-0.705691 1.19679,-0.5643 3.601162,-1.575565 7.213571,-3.033801 3.545863,-1.410961 9.682131,-5.220938 18.399898,-11.441327 -1.170085,-0.270556 -2.246451,-0.481996 -3.262371,-0.61157 -1.023415,-0.105522 -1.986843,-0.164615 -2.90717,-0.164615 -1.613374,0 -3.038378,0.152789 -4.29187,0.435152 -1.253963,0.282343 -2.372036,0.611569 -3.350934,0.976236 -0.466716,0.152788 -0.85378,0.293751 -1.203821,0.434725 -0.415648,0.188229 -0.810671,0.352844 -1.164462,0.505633 1.839706,-1.281388 3.733773,-2.198957 5.686412,-2.763256 1.937182,-0.517452 3.841554,-0.823029 5.671422,-0.905329 0.164007,0 0.31535,0 0.466725,0 0.138224,0 0.290025,0 0.440946,0 1.008418,0 2.005123,0.03536 2.982146,0.129137 0.910485,0.141381 1.788632,0.305996 2.64944,0.482417 2.105409,-1.775623 4.158794,-3.586703 6.182192,-5.420997 1.973257,-1.83429 3.871074,-3.668585 5.688758,-5.491482 4.009777,-4.009614 7.625464,-7.97238 10.843782,-11.876476 3.211295,-3.84501 5.812001,-7.373047 7.824618,-10.5714541 z M -56.743027,51.052843 c -0.167314,-0.858476 -0.282571,-1.987079 -0.315844,-3.39804 -0.04966,-1.364113 -0.03536,-2.916467 0.04008,-4.656639 0.106815,-2.586834 0.333185,-5.456031 0.67853,-8.607587 0.329876,-3.104285 0.778804,-6.302689 1.322843,-9.595214 -2.919353,3.574462 -5.908062,6.866988 -8.97596,9.865759 -3.121321,3.010163 -6.312925,5.926208 -9.577171,8.760371 0.979837,0.235077 1.977949,0.493818 2.99293,0.776177 1.014976,0.281925 2.014492,0.611151 2.998074,0.987632 2.083848,0.705692 4.09553,1.552354 6.034586,2.539986 1.889375,0.987628 3.478854,2.116653 4.782019,3.386644 z"
           class="fil1 str0"
           style="clip-rule:evenodd;fill:#ffffff;fill-rule:evenodd;stroke:#ffffff;stroke-width:0.6;stroke-miterlimit:4;stroke-dasharray:none;image-rendering:optimizeQuality;shape-rendering:geometricPrecision;text-rendering:geometricPrecision" />
        <path
           inkscape:connector-curvature="0"
           d="m -3.090169,26.276809 -14.026489,42.049874 c -0.156971,0.470603 -0.18975,0.870299 -0.110123,1.199506 0.04179,0.329192 0.16587,0.63521 0.387539,0.917147 0.331283,0.517451 0.798487,1.081754 1.401101,1.693324 0.53654,0.658421 0.984054,1.622839 1.366897,2.89283 0.0473,0.04685 0.08624,0.08229 0.120428,0.129136 -0.03498,0.105941 -0.03346,0.176441 9.36e-4,0.223708 -0.208079,-0.282382 -0.406742,-0.517451 -0.596051,-0.705692 -0.239907,-0.188229 -0.47984,-0.37604 -0.719294,-0.564299 -0.700083,-0.470603 -1.454992,-0.776177 -2.278313,-0.917147 -0.867375,-0.08229 -1.78442,-0.129593 -2.742228,-0.129593 -0.957812,0 -1.89266,0.08229 -2.825166,0.270555 -0.9072,0.188229 -1.807844,0.470177 -2.702396,0.846658 -0.919854,0.376078 -1.87532,0.823029 -2.867341,1.34048 -1.032784,0.5643 -2.177095,1.199506 -3.424966,1.916595 0.156971,-0.470182 0.581525,-0.987633 1.277862,-1.563751 0.692584,-0.564299 1.443744,-1.152657 2.252072,-1.763805 0.820979,-0.647025 1.595102,-1.305447 2.318613,-1.963868 0.728199,-0.67024 1.207571,-1.352295 1.439059,-2.046168 l 7.601568,-22.788537 c -0.540293,0.411515 -1.40766,1.046299 -2.610079,1.892961 -1.193049,0.893932 -2.507459,1.811079 -3.943236,2.75186 -0.515926,0.37604 -1.037005,0.728906 -1.550118,1.058117 -0.513112,0.32923 -1.043564,0.634785 -1.604476,0.917147 -1.340655,0.846662 -2.598363,1.516898 -3.779225,2.03435 -1.246936,0.564303 -2.236142,0.846662 -2.992454,0.846662 -0.100275,0 -0.201044,0 -0.314894,0 -0.100732,0 -0.181347,-0.02358 -0.266145,-0.0705 -1.453585,-0.176441 -2.48543,-1.164054 -3.095547,-2.963315 -0.683682,-1.728775 -0.518733,-4.151006 0.520611,-7.267106 2.192565,-6.573237 5.830276,-11.582298 10.920637,-15.016216 5.027564,-3.433496 10.428134,-5.150453 16.2256124,-5.150453 z m -7.767917,1.975683 c -3.796569,0.04685 -7.18686,1.293206 -10.183532,3.73907 -2.984024,2.445864 -5.075835,5.127242 -6.300746,8.043287 -0.112937,0.188229 -0.201044,0.376496 -0.259604,0.552481 -0.06704,0.200055 -0.129783,0.388299 -0.192602,0.57654 -0.815826,2.445863 -0.93438,4.162402 -0.369271,5.150457 0.490152,0.987628 1.358459,1.481446 2.606798,1.481446 0.05016,0 0.112937,0 0.16355,0 0.604961,0 1.291921,-0.09411 2.06042,-0.282381 0.705703,-0.187811 1.484979,-0.446544 2.300806,-0.775755 0.815823,-0.329648 1.655081,-0.729329 2.505116,-1.199506 0.825196,-0.470603 1.619933,-0.964418 2.397335,-1.481869 z"
           class="fil1 str0"
           id="1"
           style="clip-rule:evenodd;fill:#ffffff;fill-rule:evenodd;stroke:#ffffff;stroke-width:0.6;stroke-miterlimit:4;stroke-dasharray:none;image-rendering:optimizeQuality;shape-rendering:geometricPrecision;text-rendering:geometricPrecision" />
        <path
           inkscape:connector-curvature="0"
           d="M 0.08363559,30.933448 C 1.5128533,29.557516 2.907395,28.475766 4.2789727,27.68777 c 1.326129,-0.799391 2.5950858,-1.316843 3.8331197,-1.551931 0.2835224,-0.09412 0.5843429,-0.164615 0.9062679,-0.223289 0.2521129,0 0.5295131,0 0.8317558,0 1.0084209,0 1.6963169,0.281925 2.0580739,0.858058 0.316301,0.564722 0.465317,1.175873 0.434387,1.834717 0.03004,0.55248 -0.02434,1.093569 -0.146667,1.61102 -0.121835,0.517029 -0.210398,0.858054 -0.257702,0.999447 -0.01559,0.04685 -0.02358,0.0705 -0.02358,0.0705 L 7.5135734,44.47961 c -0.1255621,0.376497 -0.2389559,0.717511 -0.352844,1.05854 -0.1101235,0.329192 -0.2277381,0.682055 -0.3570648,1.069932 -0.3725415,1.117206 -0.5332663,2.128471 -0.4784403,3.021982 0.050613,0.905328 0.7839646,1.352294 2.1953746,1.352294 0.4034491,0 0.929692,-0.140962 1.5824511,-0.435147 0.632602,-0.235077 1.289107,-0.540666 1.969508,-0.917147 0.82801,-0.517452 1.667264,-1.105388 2.542134,-1.763806 0.821451,-0.611573 1.537463,-1.246358 2.148048,-1.904779 0.455944,-0.423329 0.832227,-0.870295 1.127438,-1.340476 0.292877,-0.423333 0.501869,-0.823447 0.626982,-1.19951 l 4.071813,-12.205686 c 0.470942,-1.411383 1.566986,-2.657741 3.301732,-3.739492 1.660234,-1.046721 3.470891,-1.56375 5.424937,-1.56375 l -8.362565,25.069793 c -0.01597,0.04727 -0.0068,0.09412 0.03232,0.129593 0.01863,0.0937 0.08061,0.211463 0.197279,0.352426 0.120429,0.09411 0.302231,0.153207 0.538415,0.200055 0.166783,0.105941 0.427828,0.152789 0.781147,0.152789 0.604957,0 1.490139,-0.235077 2.65554,-0.70527 1.098858,-0.423329 2.586647,-1.293628 4.500861,-2.610467 -0.362198,0.329192 -0.971399,0.869873 -1.814399,1.622417 -0.884711,0.79981 -1.877671,1.622838 -2.958254,2.481315 -1.066521,0.740725 -2.166315,1.469632 -3.300321,2.187138 -1.15462,0.740726 -2.26332,1.305025 -3.296572,1.681506 -0.434858,0.09411 -0.843943,0.188229 -1.216005,0.282382 -0.438137,0.105522 -0.844883,0.152788 -1.197738,0.152788 -1.449364,0 -2.324701,-0.399696 -2.608669,-1.211328 -0.315844,-0.75254 -0.224468,-1.857927 0.261924,-3.315737 l 1.05903,-3.175192 c -0.547792,0.470603 -1.158369,0.94078 -1.819091,1.410961 -0.661658,0.470603 -1.347683,0.94078 -2.059477,1.411383 -1.70288,1.175873 -3.5051034,2.23399 -5.3822987,3.174771 -1.9296789,0.987632 -3.7567329,1.552354 -5.4717964,1.705142 -0.1007311,0 -0.1766692,0 -0.2268256,0 -0.088106,0 -0.2015002,0 -0.3153883,0 -1.70147292,0 -2.6588174,-0.682058 -2.858903,-2.046171 -0.2629123,-1.328658 -0.196823,-2.810527 0.196823,-4.444762 0.047837,-0.29417 0.116702,-0.576118 0.20709,-0.846662 0.097917,-0.29417 0.19214572,-0.576118 0.28633631,-0.85848 L 4.6276224,32.273962 C 4.863346,31.568271 4.9870448,30.968938 5.008579,30.451487 4.9792989,29.934035 4.6121306,29.67531 3.9059711,29.67531 3.5376505,29.722158 3.0484375,29.828099 2.4313009,30.016328 1.813689,30.204557 1.0526883,30.52196 0.13939702,30.992141 Z"
           class="fil1 str0"
           id="12"
           style="clip-rule:evenodd;fill:#ffffff;fill-rule:evenodd;stroke:#ffffff;stroke-width:0.6;stroke-miterlimit:4;stroke-dasharray:none;image-rendering:optimizeQuality;shape-rendering:geometricPrecision;text-rendering:geometricPrecision" />
        <path
           inkscape:connector-curvature="0"
           d="m 64.506235,26.276809 h 6.5922 l -8.704169,26.0933 c -0.07871,0.387877 -0.03879,0.646603 0.106854,0.775754 0.06578,0.105941 0.201538,0.153207 0.415663,0.153207 0.05057,0 0.100769,0 0.151344,0 0.503769,0 1.230067,-0.211881 2.178057,-0.63521 0.932019,-0.37604 1.988726,-0.823025 3.169588,-1.340476 -0.245649,0.282381 -0.5159,0.564299 -0.824292,0.846662 -0.298885,0.329192 -0.627886,0.635206 -0.982593,0.905328 -0.844445,0.717511 -1.803197,1.399565 -2.880019,2.057987 -1.063704,0.658421 -2.115733,1.129024 -3.117112,1.410961 -0.317898,0.08229 -0.618532,0.152789 -0.898746,0.200055 -0.30535,0.04685 -0.590925,0.0705 -0.855663,0.0705 -0.18899,0 -0.49297,-0.0705 -0.899735,-0.211882 -0.410491,-0.129136 -0.811134,-0.364251 -1.214096,-0.705269 -0.485936,-0.4706 -0.883308,-1.093569 -1.171052,-1.893379 -0.303448,-0.752544 -0.266943,-1.693324 0.109516,-2.821927 l 1.290034,-3.868644 c -0.540274,0.411515 -1.407649,1.046299 -2.610072,1.892961 -1.19303,0.893933 -2.507439,1.81108 -3.943228,2.75186 -0.515937,0.37604 -1.037009,0.728907 -1.550133,1.058117 -0.513085,0.32923 -1.043549,0.634785 -1.604472,0.917147 -1.340643,0.846662 -2.59836,1.516899 -3.779218,2.03435 -1.246936,0.564303 -2.236142,0.846662 -2.992458,0.846662 -0.100275,0 -0.201044,0 -0.314894,0 -0.100731,0 -0.181346,-0.02358 -0.266144,-0.0705 -1.453585,-0.176441 -2.485434,-1.164055 -3.095547,-2.963315 -0.683679,-1.728776 -0.518737,-4.151007 0.520611,-7.267107 2.192561,-6.573237 5.830272,-11.582298 10.920625,-15.016216 5.014917,-3.433496 10.428119,-5.150453 16.225613,-5.150453 z m -1.17569,1.975683 c -3.796562,0.04685 -7.186891,1.293206 -10.183536,3.73907 -2.98402,2.445864 -5.075834,5.127242 -6.300753,8.043287 -0.112938,0.188229 -0.201044,0.376496 -0.259604,0.552481 -0.06704,0.200055 -0.129783,0.388299 -0.192602,0.57654 -0.815823,2.445863 -0.934385,4.162402 -0.369272,5.150457 0.490153,0.987628 1.358467,1.481446 2.606825,1.481446 0.05019,0 0.112937,0 0.163512,0 0.604957,0 1.291898,-0.09411 2.060405,-0.282381 0.705726,-0.187811 1.484994,-0.446544 2.300806,-0.775755 0.815811,-0.329648 1.655085,-0.729329 2.50512,-1.199506 0.825203,-0.470603 1.619948,-0.964418 2.397353,-1.481869 z"
           class="fil1 str0"
           id="123"
           style="clip-rule:evenodd;fill:#ffffff;fill-rule:evenodd;stroke:#ffffff;stroke-width:0.6;stroke-miterlimit:4;stroke-dasharray:none;image-rendering:optimizeQuality;shape-rendering:geometricPrecision;text-rendering:geometricPrecision" />
        <path
           inkscape:connector-curvature="0"
           d="m 75.733814,41.022477 c 3.247807,-9.736185 8.573891,-17.238384 15.978177,-22.506592 7.387896,-5.220942 14.582239,-7.819591 21.590599,-7.819591 l 18.77849,-0.0705 c -0.12092,1.269992 -0.0992,2.339927 0.0517,3.245256 0.1559,0.893932 0.33158,1.763805 0.54966,2.622286 0.108,0.317822 0.2255,0.647025 0.36734,0.976236 0.0764,0.37604 0.15286,0.75254 0.23272,1.116784 0.23005,0.670658 0.41573,1.399565 0.55624,2.18756 0.12168,0.84624 0.16503,1.810657 0.17378,2.880589 -0.4149,-0.270137 -0.99393,-0.952176 -1.74178,-2.034349 -0.74836,-1.081755 -1.82613,-2.23399 -3.24975,-3.445315 -1.53371,-1.410961 -3.57209,-2.704589 -6.10817,-3.868643 -2.57862,-1.187692 -5.8616,-1.775628 -9.84468,-1.775628 -7.44882,0 -13.03732,2.09302 -16.765927,6.279478 -3.753478,4.186036 -6.576724,8.795405 -8.469853,13.828525 -0.0943,0.281925 -0.188229,0.564299 -0.282914,0.846662 -0.09354,0.281925 -0.184046,0.552484 -0.281773,0.846662 -0.576855,1.728353 -1.052942,3.609918 -1.416547,5.644271 -0.434904,2.022531 -0.688843,4.068281 -0.774629,6.138085 -0.196595,4.974032 0.734321,9.512915 2.814424,13.593433 2.030896,4.150584 5.95397,6.220389 11.75192,6.220389 5.281099,0 9.609949,-0.846662 12.951529,-2.551801 3.26751,-1.634235 5.93899,-3.445314 8.02187,-5.420997 0.64526,-0.611151 1.23991,-1.222725 1.80551,-1.822476 0.54545,-0.576118 1.06093,-1.140421 1.53938,-1.705142 -1.52953,3.715858 -4.05431,6.902444 -7.5702,9.583822 -3.53178,2.727804 -9.81004,4.091914 -18.822107,4.091914 -8.230896,0 -14.701717,-2.140287 -19.425203,-6.420445 -4.789004,-4.23331 -5.599225,-11.100298 -2.429638,-20.601394 z"
           class="fil1 str0"
           id="1234"
           style="clip-rule:evenodd;fill:#ffffff;fill-rule:evenodd;stroke:#ffffff;stroke-width:0.6;stroke-miterlimit:4;stroke-dasharray:none;image-rendering:optimizeQuality;shape-rendering:geometricPrecision;text-rendering:geometricPrecision" />
        <path
           inkscape:connector-curvature="0"
           d="m 134.49574,30.933448 c 1.42925,-1.375932 2.82378,-2.457682 4.19538,-3.245678 1.32612,-0.799391 2.59505,-1.316843 3.8331,-1.551931 0.28368,-0.09412 0.58435,-0.164615 0.90624,-0.223289 0.25211,0 0.52955,0 0.83178,0 1.00845,0 1.69631,0.281925 2.05809,0.858058 0.31599,0.564722 0.46532,1.175873 0.43437,1.834717 0.0304,0.55248 -0.0266,1.093569 -0.14678,1.61102 -0.12207,0.517029 -0.21067,0.858054 -0.25782,0.999447 -0.0152,0.04685 -0.0266,0.0705 -0.0266,0.0705 l -4.4011,13.193318 c -0.12586,0.376497 -0.2388,0.717511 -0.35288,1.05854 -0.11028,0.329192 -0.22778,0.682055 -0.35706,1.069932 -0.37266,1.117206 -0.53328,2.128471 -0.47845,3.021982 0.0506,0.905328 0.78398,1.352294 2.19536,1.352294 0.4035,0 0.92974,-0.140962 1.58249,-0.435147 0.63261,-0.235077 1.28909,-0.540666 1.96949,-0.917147 0.82802,-0.517452 1.66729,-1.105388 2.54212,-1.763806 0.82147,-0.611573 1.53747,-1.246358 2.14805,-1.904779 0.45597,-0.423329 0.83224,-0.870295 1.12744,-1.340476 0.2928,-0.423333 0.50187,-0.823447 0.62701,-1.19951 l 4.07164,-12.205686 c 0.47092,-1.411383 1.56698,-2.657741 3.30173,-3.739492 1.66022,-1.046721 3.47087,-1.56375 5.42491,-1.56375 l -8.36254,25.069793 c -0.0152,0.04727 -0.008,0.09412 0.0342,0.129593 0.0152,0.0937 0.0806,0.211463 0.19698,0.352426 0.12016,0.09411 0.30231,0.153207 0.53845,0.200055 0.16655,0.105941 0.42779,0.152789 0.78109,0.152789 0.605,0 1.49017,-0.235077 2.65555,-0.70527 1.09884,-0.423329 2.58669,-1.293628 4.50085,-2.610467 -0.36201,0.329192 -0.97138,0.869873 -1.81434,1.622417 -0.88475,0.79981 -1.87769,1.622838 -2.95828,2.481315 -1.06655,0.740725 -2.16631,1.469632 -3.30032,2.187138 -1.15466,0.740726 -2.26331,1.305025 -3.29659,1.681506 -0.43483,0.09411 -0.84396,0.188229 -1.216,0.282382 -0.43814,0.105522 -0.8449,0.152788 -1.19775,0.152788 -1.44936,0 -2.32468,-0.399696 -2.60862,-1.211328 -0.31562,-0.75254 -0.22436,-1.857927 0.262,-3.315737 l 1.05906,-3.175192 c -0.5478,0.470603 -1.15839,0.94078 -1.81909,1.410961 -0.66169,0.470603 -1.34772,0.94078 -2.05953,1.411383 -1.70285,1.175873 -3.50506,2.23399 -5.38229,3.174771 -1.92967,0.987632 -3.75671,1.552354 -5.47176,1.705142 -0.10077,0 -0.17682,0 -0.22664,0 -0.0882,0 -0.20115,0 -0.31523,0 -1.70148,0 -2.65879,-0.682058 -2.85888,-2.046171 -0.26314,-1.328658 -0.19659,-2.810527 0.1966,-4.444762 0.0475,-0.29417 0.11674,-0.576118 0.20724,-0.846662 0.0981,-0.29417 0.19203,-0.576118 0.28595,-0.85848 l 5.48352,-16.438993 c 0.23576,-0.705691 0.35972,-1.305024 0.38113,-1.822475 -0.0304,-0.517452 -0.39634,-0.776177 -1.1026,-0.776177 -0.36848,0.04685 -0.85753,0.152789 -1.47465,0.341018 -0.61762,0.188229 -1.37864,0.505632 -2.29191,0.975813 z"
           class="fil1 str0"
           id="12345"
           style="clip-rule:evenodd;fill:#ffffff;fill-rule:evenodd;stroke:#ffffff;stroke-width:0.6;stroke-miterlimit:4;stroke-dasharray:none;image-rendering:optimizeQuality;shape-rendering:geometricPrecision;text-rendering:geometricPrecision" />
        <path
           inkscape:connector-curvature="0"
           d="m 169.81854,50.982358 9.79038,-29.350373 c 1.08671,-3.25707 3.01916,-6.10263 5.80122,-8.548494 2.71602,-2.399016 5.71312,-3.5985255 9.00218,-3.5985255 l 6.81762,-0.070462 c -0.8022,0.8939315 -1.57447,1.6228345 -2.31769,2.1871375 -0.7933,0.564722 -1.53975,0.988051 -2.23844,1.269991 -0.96392,0.470604 -1.8397,0.75254 -2.62699,0.846662 -0.8505,0.09412 -1.58006,0.164615 -2.20099,0.211882 -0.70896,0.04685 -1.28673,0.117348 -1.73004,0.199637 -0.45456,0.153207 -0.76615,0.482417 -0.93863,0.999447 L 177.2172,50.982381 c -0.15287,0.458785 -0.16161,0.787996 -0.008,0.976236 0.0726,0.235077 0.28976,0.341018 0.64291,0.341018 0.61667,-0.03536 1.55854,-0.36467 2.82096,-0.976236 1.21224,-0.61157 2.62129,-1.434598 4.21033,-2.457682 -1.09744,1.211324 -2.33827,2.363564 -3.70755,3.445314 -1.38517,1.129021 -2.73658,2.081624 -4.04255,2.822345 -1.0075,0.564299 -1.90533,0.987632 -2.70521,1.269995 -0.85753,0.341018 -1.61805,0.505633 -2.28579,0.505633 -1.61341,0 -2.54215,-0.541089 -2.76989,-1.634658 -0.29432,-1.08175 -0.15211,-2.492712 0.42502,-4.221491 z"
           class="fil1 str0"
           id="123456"
           style="clip-rule:evenodd;fill:#ffffff;fill-rule:evenodd;stroke:#ffffff;stroke-width:0.6;stroke-miterlimit:4;stroke-dasharray:none;image-rendering:optimizeQuality;shape-rendering:geometricPrecision;text-rendering:geometricPrecision" />
        <path
           inkscape:connector-curvature="0"
           d="m 194.73851,31.932895 c 0.18329,-0.246903 0.56043,-0.622966 1.13679,-1.140417 0.52529,-0.517451 1.18508,-1.05854 1.97842,-1.622839 0.85521,-0.599755 1.78677,-1.19951 2.79378,-1.763809 0.91608,-0.517451 1.83126,-0.917147 2.74035,-1.187687 0.25591,-0.04727 0.52342,-0.09412 0.79098,-0.140963 0.2677,-0.04727 0.52814,-0.07092 0.79284,-0.07092 1.34863,0 2.21555,0.423329 2.60494,1.258595 0.30687,0.893514 0.34375,1.881142 0.13347,2.962893 -0.0791,0.235495 -0.13157,0.470603 -0.16009,0.705695 -0.0939,0.282344 -0.18024,0.541085 -0.25934,0.776177 l -6.58938,19.754733 c -0.1658,0.799814 -0.14488,1.340898 0.0631,1.622839 0.20838,0.282344 0.48924,0.423329 0.84209,0.423329 0.25249,0 0.55339,-0.0705 0.90247,-0.211463 0.33425,-0.09412 0.68743,-0.246903 1.04872,-0.423333 0.18291,-0.09411 0.38619,-0.211881 0.56746,-0.341018 0.18671,-0.10594 0.37722,-0.223707 0.56283,-0.36467 0.26124,-0.140962 0.51027,-0.282381 0.75489,-0.411514 0.20268,-0.152789 0.40521,-0.270556 0.57541,-0.36467 -2.70609,2.822345 -4.78904,4.45658 -6.24118,4.879913 -1.50188,0.423329 -2.60635,0.635206 -3.31207,0.635206 -0.051,0 -0.10115,0 -0.13918,0 -1.42407,0 -2.3275,-0.541088 -2.70662,-1.634657 -0.42361,-1.03448 -0.40939,-2.210775 0.0266,-3.5158 l 6.97037,-20.895572 c 0.11408,-0.341018 0.13651,-0.63521 0.0795,-0.917147 -0.11066,-0.235496 -0.37,-0.36467 -0.77365,-0.36467 -0.45357,0 -1.10865,0.188229 -1.94374,0.576118 -0.83128,0.376496 -1.91792,0.987628 -3.25906,1.83429 z m 9.73034,-16.662266 c 0.62751,-1.881564 1.57265,-3.127922 2.83131,-3.727673 1.26284,-0.611574 2.52432,-0.917147 3.77218,-0.917147 1.15976,0 2.05995,0.399696 2.70472,1.187687 0.63782,0.846662 0.69869,2.022535 0.1966,3.527618 -0.39213,1.175873 -1.07918,2.14029 -2.03607,2.89283 -1.01119,0.764359 -2.02763,1.316843 -3.06038,1.693324 -0.58248,0.235077 -1.14196,0.399696 -1.6771,0.493814 -0.55157,0.140963 -1.00377,0.211463 -1.34395,0.211463 -0.9583,0 -1.54029,-0.446966 -1.74224,-1.352294 -0.2255,-0.834844 -0.20687,-1.798839 0.0578,-2.892408 0.008,-0.176441 0.046,-0.36467 0.10496,-0.541088 0.0506,-0.152789 0.10533,-0.317404 0.16845,-0.505633 z"
           class="fil1 str0"
           id="1234567"
           style="clip-rule:evenodd;fill:#ffffff;fill-rule:evenodd;stroke:#ffffff;stroke-width:0.6;stroke-miterlimit:4;stroke-dasharray:none;image-rendering:optimizeQuality;shape-rendering:geometricPrecision;text-rendering:geometricPrecision" />
        <path
           inkscape:connector-curvature="0"
           d="m 230.53926,25.841658 c 0.58903,0.04727 1.13257,0.117767 1.65224,0.223707 0.47236,0.09411 0.95829,0.188229 1.43111,0.281925 0.0882,0 0.18861,0 0.28938,0 0.0981,0.04727 0.1829,0.09411 0.26808,0.141381 0.3757,0.08229 0.75539,0.152789 1.1307,0.199637 0.33311,0.05909 0.73756,0.09412 1.19167,0.09412 0.55388,0 1.21976,-0.105941 1.97606,-0.293752 0.7652,-0.141381 1.62508,-0.376496 2.57961,-0.705691 -1.41328,1.364113 -2.49995,2.657741 -3.25252,3.89228 -0.7568,1.211325 -1.36358,2.198957 -1.82001,2.963315 -0.0776,0.08229 -0.12662,0.152789 -0.14183,0.199637 -0.0818,0.09412 -0.13081,0.164615 -0.14678,0.211882 -0.43536,-0.658422 -0.88236,-1.246358 -1.30224,-1.763809 -0.43255,-0.517452 -0.87114,-0.940781 -1.31536,-1.269992 -0.73524,-0.517451 -1.52949,-0.893932 -2.35469,-1.140843 -0.83601,-0.176441 -1.83879,-0.270099 -2.99805,-0.270099 -1.96626,0 -3.41235,0.329192 -4.34673,0.975814 -0.94517,0.717506 -1.56466,1.516898 -1.86267,2.410408 -0.25097,0.752966 -0.0468,1.38775 0.58713,1.905202 0.57168,0.552481 1.37019,1.069932 2.42313,1.540535 0.67105,0.293751 1.35799,0.576118 2.05387,0.869873 0.71363,0.317404 1.43575,0.647025 2.18273,0.976236 1.9048,0.940784 3.53878,2.163505 4.88977,3.668588 1.37583,1.50508 1.59467,3.64537 0.66493,6.432263 -1.1101,3.327559 -2.85374,5.608816 -5.22859,6.831959 -2.45682,1.281813 -4.88836,2.034353 -7.3326,2.257623 -0.6204,0.04685 -1.2333,0.0705 -1.85092,0.0705 -0.67105,0.04727 -1.30882,0.0705 -1.90157,0.0705 -3.8317,0 -6.0571,-0.658422 -6.68077,-1.963442 -0.63541,-1.269995 -0.0954,-4.550702 1.61147,-9.818911 0.008,0.423329 0.0582,0.846658 0.16884,1.269991 0.0453,0.470181 0.13499,0.917147 0.23386,1.340476 0.47799,1.740172 1.40674,3.339796 2.78579,4.79761 1.37863,1.458231 3.40436,2.187138 6.07676,2.187138 1.82802,0 3.2891,-0.37604 4.39733,-1.128599 1.04169,-0.705696 1.80643,-1.787446 2.29282,-3.245678 0.32931,-0.987632 0.13005,-1.787446 -0.574,-2.398593 -0.69071,-0.611574 -1.60402,-1.19951 -2.73894,-1.763809 -0.51408,-0.235496 -1.05812,-0.494237 -1.61946,-0.776177 -0.6242,-0.282344 -1.21086,-0.564722 -1.76852,-0.858481 -1.85373,-0.94078 -3.39169,-2.187138 -4.63815,-3.739492 -1.32566,-1.505079 -1.48032,-3.762703 -0.47612,-6.77287 1.08248,-3.245677 2.93576,-5.36233 5.5337,-6.349963 2.54821,-0.987628 5.18311,-1.481446 7.90562,-1.481446 z"
           class="fil1 str0"
           id="12345678"
           style="clip-rule:evenodd;fill:#ffffff;fill-rule:evenodd;stroke:#ffffff;stroke-width:0.6;stroke-miterlimit:4;stroke-dasharray:none;image-rendering:optimizeQuality;shape-rendering:geometricPrecision;text-rendering:geometricPrecision" />
        <path
           style="clip-rule:evenodd;fill:#ffffff;fill-rule:evenodd;stroke:#ffffff;stroke-width:0;stroke-miterlimit:4;stroke-dasharray:none;image-rendering:optimizeQuality;shape-rendering:geometricPrecision;text-rendering:geometricPrecision"
           inkscape:connector-curvature="0"
           id="path136"
           d="m -11.18751,62.755429 c 0.02168,-0.01977 0.09046,-0.03536 0.206634,-0.04769 l 0.601679,0.04305 c 0.282571,0.0232 0.6091735,0.04008 0.979365,0.05571 0.3701838,0.01407 0.8017684,0.02168 1.2942631,0.02168 h 0.702893 0.5623182 0.4568795 0.3519314 0.2811267 0.2281945 0.1935147 c 0.4807751,0 0.8073887,-0.01559 0.9803047,-0.04643 l 1.452174,-0.07385 c 0.085749,0.04304 0.233366,0.191195 0.4428288,0.444011 l 0.3406376,0.480733 -0.030421,0.05529 c -0.057153,0.01863 -0.1377685,0.03422 -0.2418079,0.04643 -0.036885,-0.01863 -0.067953,-0.03422 -0.092327,-0.04643 -0.085292,-0.04304 -0.1719919,-0.09833 -0.259604,-0.166288 l -0.3401814,-0.26801 C -3.2626743,63.142637 -3.6277094,63.086929 -4.1670637,63.086929 H -6.260749 l -1.0880858,2.921954 c -0.4297022,1.146327 -0.7342911,2.126783 -0.9100134,2.9401 0.3401813,0 0.6311986,0.01407 0.874402,0.04179 0.2422642,0.02776 0.4118909,0.06331 0.5098308,0.106359 l 0.044985,0.110998 c 0.00456,0.05529 -0.080615,0.08948 -0.2553831,0.10172 l -1.0051585,-0.03727 -0.9690565,-0.03727 -0.7525665,0.03727 -0.752567,0.03727 c -0.0937,0 -0.156515,-0.04643 -0.187886,-0.138871 -0.0068,-0.07385 0.41472,-0.147732 1.2638039,-0.221997 l 2.0379239,-5.862054 h -1.9507643 c -0.574034,0 -1.0093605,0.0494 -1.3050395,0.149405 -0.182297,0.06331 -0.343946,0.160394 -0.485,0.29166 -0.141039,0.130847 -0.279758,0.212299 -0.417507,0.2431 -0.130772,-0.01825 -0.220247,-0.03384 -0.268046,-0.04768 l -0.03765,-0.02738 c 0.03042,-0.05571 0.05529,-0.100465 0.07639,-0.131266 0.06232,-0.0878 0.146667,-0.195835 0.253026,-0.320332 z"
           class="fil2" />
        <path
           style="clip-rule:evenodd;fill:#ffffff;fill-rule:evenodd;stroke:#ffffff;stroke-width:0;stroke-miterlimit:4;stroke-dasharray:none;image-rendering:optimizeQuality;shape-rendering:geometricPrecision;text-rendering:geometricPrecision"
           inkscape:connector-curvature="0"
           d="M 0.734045,65.037956 H 1.84087 l -0.7469424,1.71358 c -0.15229445,0.397586 -0.26428124,0.731862 -0.33459146,1.001561 -0.0698159,0.269681 -0.0974608,0.497614 -0.0810716,0.684166 0.0114078,0.131266 0.0613741,0.235951 0.15134378,0.317403 l 0.19541598,0.03727 c 0.1293267,0 0.3088098,-0.05993 0.5388866,-0.178951 0.2296014,-0.119858 0.3959807,-0.189522 0.4999896,-0.209333 0.1190217,0.01863 0.1747679,0.05232 0.1673148,0.101719 -0.027759,0.09244 -0.3237921,0.252836 -0.8898634,0.480734 -0.56559611,0.227928 -0.94843884,0.348204 -1.14618584,0.360449 -0.38707504,0 -0.58949544,-0.104686 -0.60777078,-0.31402 -0.0117881,-0.135905 -0.010267,-0.26082 0.002814,-0.374785 0.0136894,-0.113964 0.0534266,-0.263368 0.11902162,-0.448232 L 0.00773554,67.39577 -1.998794,68.579241 c -0.950785,0.511542 -1.7661401,0.767313 -2.446073,0.767313 -0.5623144,0 -0.8580014,-0.163322 -0.8865818,-0.491282 -0.031942,-0.366762 0.2281945,-0.843285 0.7802115,-1.431644 0.5534087,-0.587092 1.2145985,-1.08977 1.987315,-1.504239 0.8626823,-0.457518 1.65695579,-0.68712 2.38328046,-0.68712 0.30458887,0 0.57824733,0.04601 0.82051146,0.138453 z m -0.25679009,0.888867 c -0.017492,-0.1988 -0.36505033,-0.297136 -1.0454395,-0.297136 -0.80785641,0 -1.64711471,0.386611 -2.51729961,1.161944 -0.804107,0.719621 -1.1869497,1.308401 -1.1471174,1.767604 0.013689,0.155337 0.1785324,0.232568 0.4953048,0.232568 0.4920232,0 1.2530239,-0.278998 2.2820589,-0.836954 0.93813374,-0.533069 1.49857725,-0.958508 1.68226221,-1.274212 0.18320964,-0.316149 0.26663885,-0.567258 0.25024961,-0.75381 z"
           class="fil2"
           id="path138" />
        <path
           style="clip-rule:evenodd;fill:#ffffff;fill-rule:evenodd;stroke:#ffffff;stroke-width:0;stroke-miterlimit:4;stroke-dasharray:none;image-rendering:optimizeQuality;shape-rendering:geometricPrecision;text-rendering:geometricPrecision"
           inkscape:connector-curvature="0"
           d="m 3.8783262,66.027276 -0.073086,-0.02776 -0.085749,0.01863 c -0.089057,0.05529 -0.192602,0.112253 -0.310673,0.170927 -0.1176147,0.05868 -0.2614673,0.124916 -0.4306377,0.198801 l -0.142902,-0.02776 -0.055746,-0.03689 -0.020914,-0.03727 c 0.04008,-0.07385 0.3856377,-0.280252 1.0355984,-0.619593 0.6499417,-0.338927 1.0515275,-0.508588 1.2042896,-0.508588 h 0.069816 c 0.07263,0.02472 0.1171583,0.06499 0.1340039,0.121988 0.020154,0.229601 -0.1133938,0.548686 -0.4006656,0.955554 -0.2863363,0.408137 -0.4386041,0.714977 -0.455944,0.919679 1.0440325,-0.659266 1.8968775,-1.157301 2.5594743,-1.493265 0.6616575,-0.33596 1.1274427,-0.503944 1.3968841,-0.503944 0.1059026,0 0.2019565,0.03118 0.2900249,0.09411 0.087156,0.06331 0.1462102,0.134232 0.1766691,0.215684 0.020914,0.24523 -0.030421,0.52716 -0.1551083,0.84624 L 8.295458,67.138128 c 0.4587579,-0.35117 1.0815224,-0.7365 1.862673,-1.1573 0.99342,-0.530111 1.729586,-0.795167 2.206615,-0.795167 0.328508,0 0.500465,0.09583 0.516866,0.286564 0.02091,0.240591 -0.110124,0.616638 -0.393619,1.12818 l -0.653224,1.110875 c -0.205721,0.368473 -0.301775,0.63985 -0.286336,0.812473 0.008,0.09244 0.0656,0.15701 0.174768,0.194161 0.210854,0 0.467192,-0.08187 0.768967,-0.24523 0.302725,-0.163322 0.506557,-0.244812 0.611516,-0.244812 l 0.07312,0.02738 0.07544,0.06499 c -0.08107,0.135487 -0.465314,0.338927 -1.150403,0.610308 -0.685557,0.270973 -1.151338,0.406445 -1.397352,0.406445 -0.257702,0 -0.394079,-0.08312 -0.408601,-0.249451 -0.01939,-0.221996 0.134992,-0.610303 0.461096,-1.164898 l 0.722579,-1.192753 c 0.201044,-0.38239 0.295691,-0.638161 0.284435,-0.767735 l -0.03924,-0.04601 c -0.04966,-0.03726 -0.115714,-0.05867 -0.198725,-0.06457 -0.514987,0 -1.6339954,0.536023 -3.3542114,1.608488 l -0.7061747,1.821632 -0.9564052,0.01103 0.7441285,-1.647738 c 0.3224231,-0.739459 0.4685991,-1.278859 0.4390795,-1.617774 -0.00418,-0.0494 -0.060423,-0.08948 -0.1682274,-0.120276 h -0.088068 c -0.2928768,0 -0.8589368,0.227928 -1.6986628,0.684168 -0.6930519,0.376078 -1.2052289,0.68712 -1.5351203,0.934027 l -0.5941803,1.758322 -0.9938951,-0.01103 0.9653071,-2.237363 c 0.2113109,-0.530114 0.3111294,-0.866078 0.298961,-1.007889 z"
           class="fil2"
           id="path140" />
        <path
           style="clip-rule:evenodd;fill:#ffffff;fill-rule:evenodd;stroke:#ffffff;stroke-width:0;stroke-miterlimit:4;stroke-dasharray:none;image-rendering:optimizeQuality;shape-rendering:geometricPrecision;text-rendering:geometricPrecision"
           inkscape:connector-curvature="0"
           d="m 15.229133,65.990133 -0.0033,-0.03727 -0.08902,-0.0087 -0.386147,0.2123 c -0.233822,0.129592 -0.397836,0.203439 -0.490152,0.221996 -0.08153,0 -0.154196,-0.02434 -0.217395,-0.07385 l -0.0028,-0.03727 0.01521,-0.02738 c 0.197735,-0.154462 0.571688,-0.363834 1.123222,-0.628875 0.619019,-0.289531 1.027632,-0.440635 1.22585,-0.453298 0.08385,0.02472 0.134993,0.06795 0.151344,0.129593 0.0061,0.06795 0.0049,0.120277 -0.0037,0.157428 -0.008,0.03688 -0.04263,0.11058 -0.103583,0.221578 l -0.214163,0.370146 c -0.672905,1.423624 -0.997644,2.262266 -0.975619,2.514664 0.008,0.09244 0.07639,0.141799 0.206177,0.14815 l 0.488278,-0.240591 c 0.236636,-0.110998 0.400665,-0.172639 0.493434,-0.184845 l 0.10826,0.02776 0.03803,0.03688 0.0033,0.03727 -0.04639,0.06457 c -1.049653,0.598067 -1.784879,0.896887 -2.207087,0.896887 -0.164463,0 -0.252113,-0.06457 -0.263368,-0.194161 -0.01255,-0.147731 0.03042,-0.323298 0.129783,-0.526734 L 14.46468,68.10779 Z m 0.570748,-1.923348 c -0.0091,-0.104686 0.06982,-0.203439 0.237131,-0.295881 0.167771,-0.09244 0.357065,-0.138453 0.56841,-0.138453 0.304589,0 0.465317,0.09244 0.48125,0.277286 0.0087,0.104686 -0.07594,0.206406 -0.254927,0.30516 -0.178532,0.09875 -0.367369,0.147731 -0.56747,0.147731 -0.0586,0 -0.14758,-0.01825 -0.268046,-0.05529 -0.119934,-0.03727 -0.182297,-0.07723 -0.186062,-0.120276 z"
           class="fil2"
           id="path142" />
        <path
           style="clip-rule:evenodd;fill:#ffffff;fill-rule:evenodd;stroke:#ffffff;stroke-width:0;stroke-miterlimit:4;stroke-dasharray:none;image-rendering:optimizeQuality;shape-rendering:geometricPrecision;text-rendering:geometricPrecision"
           inkscape:connector-curvature="0"
           d="m 18.574439,66.054708 c -0.0014,-0.01217 -0.01141,-0.02282 -0.02966,-0.03194 -0.01825,-0.0091 -0.03384,-0.01673 -0.04594,-0.0232 -0.04499,0.01863 -0.08484,0.03384 -0.119022,0.04643 -0.101225,0.04305 -0.208535,0.09244 -0.320978,0.147732 -0.100275,0.0616 -0.195416,0.110998 -0.286336,0.148149 -0.03346,0.01217 -0.07358,0.02738 -0.118566,0.04601 l -0.142902,-0.02776 -0.0562,-0.03688 -0.02053,-0.03727 c 0.04095,-0.07385 0.385641,-0.280252 1.035598,-0.619593 0.649942,-0.338926 1.051528,-0.508587 1.203822,-0.508587 h 0.08761 c 0.07217,0.01863 0.111036,0.05867 0.116702,0.121987 0.0033,0.03727 -0.0087,0.104686 -0.03536,0.201767 -0.02662,0.09708 -0.07963,0.229601 -0.158873,0.397585 l -0.573095,1.424046 c 2.192561,-1.429955 3.662546,-2.145355 4.411835,-2.145355 0.328507,0 0.501397,0.0975 0.517797,0.289949 0.02282,0.263368 -0.113888,0.64407 -0.409571,1.143372 l -0.696334,1.128176 c -0.188381,0.363416 -0.276487,0.631834 -0.261467,0.804457 0.0091,0.104686 0.08016,0.169254 0.210398,0.194161 0.199637,0 0.450324,-0.08187 0.752099,-0.24523 0.302726,-0.163322 0.506549,-0.244812 0.611517,-0.244812 l 0.110123,0.05529 0.02091,0.03727 c -0.02586,0.104686 -0.392687,0.30052 -1.100261,0.587092 -0.707118,0.286564 -1.1893,0.42966 -1.447965,0.42966 -0.257246,0 -0.393155,-0.07681 -0.406746,-0.230856 -0.01939,-0.221996 0.130278,-0.598066 0.446571,-1.12818 l 0.709068,-1.146449 c 0.192602,-0.351589 0.280214,-0.61368 0.265232,-0.785884 l -0.04639,-0.138872 -0.14621,-0.05529 c -0.349536,0.01825 -0.989678,0.268008 -1.920309,0.748745 -0.751627,0.3883 -1.319566,0.721309 -1.706158,0.998603 l -0.550602,1.68446 -0.954995,-0.0017 0.884236,-2.701213 z"
           class="fil2"
           id="path144" />
        <path
           style="clip-rule:evenodd;fill:#ffffff;fill-rule:evenodd;stroke:#ffffff;stroke-width:0;stroke-miterlimit:4;stroke-dasharray:none;image-rendering:optimizeQuality;shape-rendering:geometricPrecision;text-rendering:geometricPrecision"
           inkscape:connector-curvature="0"
           d="m 25.419224,68.976663 c -0.0091,-0.104686 0.115751,-0.215684 0.375355,-0.332995 l 0.611049,-0.249451 c -0.896423,-0.06795 -1.364555,-0.329648 -1.403915,-0.785885 -0.04594,-0.524204 0.469066,-1.06951 1.544489,-1.636768 1.075431,-0.566831 2.104938,-0.850457 3.089459,-0.850457 0.316301,0 0.558565,0.02168 0.726321,0.06628 0.0956,0.01977 0.301319,0.09875 0.618551,0.23888 h 0.615262 0.896423 l -0.352387,0.397585 h -0.351437 -0.351437 l 0.02206,0.249451 c 0.02396,0.278998 -0.193971,0.601021 -0.654163,0.96484 -0.396445,0.297554 -0.854248,0.554591 -1.374388,0.77491 -0.520143,0.219068 -1.328003,0.420797 -2.425455,0.607353 -0.258235,0.129555 -0.394547,0.240591 -0.410035,0.332994 0.02472,0.01825 0.04407,0.03194 0.05575,0.03841 0.07495,0.0494 0.130772,0.08316 0.167771,0.10172 0.212718,0.0308 0.914231,0.0802 2.104466,0.147731 0.514987,0 0.985457,0.02206 1.410938,0.06499 0.425957,0.04305 0.817238,0.09541 1.173835,0.15701 0.832695,0.148149 1.262869,0.379006 1.290518,0.693451 0.03118,0.363833 -0.439548,0.742832 -1.412818,1.137462 -0.723043,0.301775 -1.528564,0.5394 -2.415617,0.712023 -0.738037,0.135487 -1.447022,0.20344 -2.126487,0.20344 -0.574498,0 -1.089485,-0.06499 -1.546368,-0.194161 -0.540758,-0.160394 -0.824257,-0.38239 -0.848625,-0.666019 -0.027,-0.308126 0.319572,-0.637739 1.038405,-0.989317 0.336949,-0.166288 0.94985,-0.397586 1.837838,-0.693455 L 26.190202,69.35568 C 25.691144,69.269589 25.43389,69.142962 25.419361,68.976674 Z M 27.374205,68.0152 c 0.726796,0 1.433906,-0.219068 2.122741,-0.656733 0.687903,-0.43768 1.015448,-0.850461 0.981712,-1.238761 -0.01749,-0.197507 -0.160737,-0.359156 -0.429239,-0.485372 -0.268502,-0.126627 -0.590898,-0.189522 -0.965307,-0.189522 -0.609174,0 -1.284418,0.223289 -2.024805,0.670236 -0.739911,0.446966 -1.095573,0.839909 -1.066053,1.178828 0.01939,0.221996 0.151344,0.397585 0.396908,0.527159 0.245573,0.129136 0.574031,0.194161 0.984054,0.194161 z m 0.691653,1.488622 c -1.773639,0.480729 -2.640543,0.955131 -2.599775,1.423624 0.02091,0.240591 0.237131,0.43768 0.649006,0.591735 0.374861,0.135905 0.802704,0.20344 1.283015,0.20344 0.761473,0 1.678513,-0.163322 2.752069,-0.490016 1.200073,-0.351171 1.783476,-0.705692 1.752546,-1.063179 -0.02244,-0.258729 -0.565596,-0.443593 -1.629779,-0.554595 -0.342995,-0.03726 -0.705703,-0.06499 -1.088545,-0.08358 -0.381927,-0.01825 -0.754909,-0.02738 -1.118537,-0.02738 z"
           class="fil2"
           id="path146" />
        <path
           style="clip-rule:evenodd;fill:#ffffff;fill-rule:evenodd;stroke:#ffffff;stroke-width:0;stroke-miterlimit:4;stroke-dasharray:none;image-rendering:optimizeQuality;shape-rendering:geometricPrecision;text-rendering:geometricPrecision"
           inkscape:connector-curvature="0"
           d="m 42.445198,68.514501 2.551507,-2.356384 -1.336909,-3.071367 c -0.389395,-0.0308 -0.798019,-0.0802 -1.224907,-0.147731 l -0.0099,-0.110998 c -0.0046,-0.05571 0.07449,-0.08651 0.237587,-0.09244 l 0.723511,0.03688 0.742253,0.03727 0.822387,-0.03727 0.805517,-0.03688 h 0.08761 c 0.03689,0.01863 0.07594,0.06164 0.117159,0.129592 l -0.06419,0.07385 c -0.07963,0.02434 -0.252569,0.05867 -0.518265,0.10172 l -0.539355,0.06457 0.962026,2.307004 1.247864,-1.151391 c 0.62511,-0.622544 0.932969,-0.985944 0.924071,-1.091037 -0.0038,-0.05529 -0.13233,-0.107614 -0.382846,-0.15701 l -0.549667,-0.05529 -0.09126,-0.04643 0.02282,-0.147732 0.103431,-0.02776 h 0.122824 l 0.723484,0.03689 0.742269,0.03727 0.664468,-0.03727 0.681807,-0.03689 h 0.08822 l 0.0829,0.140126 -0.04753,0.06628 -0.900609,0.149404 c -0.195074,0.05571 -0.406309,0.18359 -0.63496,0.383657 l -2.632104,2.373268 1.138668,2.686021 3.643811,-3.376518 1.140554,-1.026038 c 0.574042,-0.542355 0.856157,-0.869033 0.846308,-0.980035 -0.0038,-0.0494 -0.207242,-0.09244 -0.608721,-0.129593 l -0.69025,-0.05529 -0.07643,-0.06499 c -0.0076,-0.0802 0.0014,-0.126209 0.02282,-0.138453 0.0924,-0.01863 0.161991,-0.02776 0.208383,-0.02776 l 0.864104,0.03688 0.864067,0.02776 0.664962,-0.02776 0.647584,-0.03688 c 0.104952,0 0.161991,0.04601 0.169976,0.138453 -0.01141,0.01255 -0.02281,0.02662 -0.03042,0.04179 -0.01141,0.01559 -0.03841,0.03232 -0.08328,0.05107 l -0.761966,0.129136 c -0.184427,0.03727 -0.368473,0.144765 -0.551987,0.323716 l -6.505048,5.8342 -0.182754,0.120277 H 46.54621 46.440307 c -0.09792,-0.0494 -0.323792,-0.492974 -0.678058,-1.331616 l -0.604021,-1.488622 -1.592289,1.357781 c -0.60074,0.505637 -1.10214,0.969483 -1.505129,1.388595 l -0.08856,0.02776 -0.05107,0.01825 c -0.164006,0 -0.275042,-0.0616 -0.332234,-0.184882 L 39.633965,64.677219 39.33451,63.863477 c -0.109173,-0.31402 -0.254927,-0.579073 -0.438137,-0.795171 l -0.497183,-0.06457 c -0.214619,-0.03689 -0.335504,-0.08316 -0.363643,-0.138452 l 0.04407,-0.10172 0.120428,-0.02776 h 0.104952 l 0.75913,0.03688 0.79333,0.02776 0.700551,-0.02776 0.700083,-0.03688 c 0.08202,0 0.133091,0.0494 0.153207,0.147731 l -0.04875,0.04643 c -0.109668,0.0494 -0.503743,0.10172 -1.180862,0.15701 0.01445,0.166706 0.187887,0.622543 0.522482,1.368756 l 1.16821,2.718096 c 0.06282,0.178951 0.131685,0.363834 0.20709,0.555013 0.07495,0.190777 0.19728,0.452876 0.366914,0.785885 z"
           class="fil2"
           id="path148" />
        <path
           style="clip-rule:evenodd;fill:#ffffff;fill-rule:evenodd;stroke:#ffffff;stroke-width:0;stroke-miterlimit:4;stroke-dasharray:none;image-rendering:optimizeQuality;shape-rendering:geometricPrecision;text-rendering:geometricPrecision"
           inkscape:connector-curvature="0"
           d="m 56.732222,65.037956 h 1.106825 l -0.746946,1.71358 c -0.152105,0.397586 -0.264282,0.731862 -0.33463,1.001561 -0.06997,0.269681 -0.09735,0.497614 -0.081,0.684166 0.01141,0.131266 0.06122,0.235951 0.151343,0.317403 l 0.195454,0.03727 c 0.129289,0 0.308772,-0.05993 0.538868,-0.178951 0.229677,-0.119858 0.396003,-0.189522 0.500005,-0.209333 0.119021,0.01863 0.17492,0.05232 0.167315,0.101719 -0.02662,0.09244 -0.323983,0.252836 -0.889887,0.480734 -0.5656,0.227928 -0.948408,0.348204 -1.146182,0.360449 -0.387067,0 -0.58948,-0.104686 -0.60777,-0.31402 -0.01141,-0.135905 -0.01141,-0.26082 0.0028,-0.374785 0.01521,-0.113964 0.05324,-0.263368 0.119022,-0.448232 l 0.298505,-0.813743 -2.00656,1.183471 c -0.950766,0.511542 -1.766121,0.767313 -2.446066,0.767313 -0.562291,0 -0.857982,-0.163322 -0.886578,-0.491282 -0.03042,-0.366762 0.228157,-0.843285 0.780219,-1.431644 0.553394,-0.587092 1.214591,-1.08977 1.987319,-1.504239 0.862698,-0.457518 1.656949,-0.68712 2.383285,-0.68712 0.304588,0 0.578224,0.04601 0.820488,0.138453 z m -0.256676,0.888867 c -0.01901,-0.1988 -0.365051,-0.297136 -1.045413,-0.297136 -0.807864,0 -1.647138,0.386611 -2.517326,1.161944 -0.8041,0.719621 -1.186946,1.308401 -1.147095,1.767604 0.01521,0.155337 0.178342,0.232568 0.49529,0.232568 0.492019,0 1.253035,-0.278998 2.282059,-0.836954 0.938141,-0.533069 1.498569,-0.958508 1.682273,-1.274212 0.183286,-0.316149 0.266563,-0.567258 0.250212,-0.75381 z"
           class="fil2"
           id="path150" />
        <path
           style="clip-rule:evenodd;fill:#ffffff;fill-rule:evenodd;stroke:#ffffff;stroke-width:0;stroke-miterlimit:4;stroke-dasharray:none;image-rendering:optimizeQuality;shape-rendering:geometricPrecision;text-rendering:geometricPrecision"
           inkscape:connector-curvature="0"
           d="m 60.162364,65.648259 -1.355668,0.0087 0.185948,-0.286564 h 1.321444 l 0.258577,-0.656311 1.048721,-0.240591 -0.360867,0.906172 1.123709,-0.0091 -0.150584,0.286565 h -1.106901 l -0.815355,1.904779 c -0.172258,0.480729 -0.246789,0.832311 -0.227776,1.054319 0.01141,0.110998 0.13157,0.166288 0.365811,0.166288 0.304969,0 0.682758,-0.166288 1.13447,-0.499302 l 0.03803,0.221996 -0.03803,0.184845 c -1.028568,0.431353 -1.718361,0.647025 -2.07071,0.647025 -0.351361,0 -0.539856,-0.144765 -0.564687,-0.434303 -0.01521,-0.154044 0.04221,-0.391676 0.166554,-0.712023 z"
           class="fil2"
           id="path152" />
        <path
           style="clip-rule:evenodd;fill:#ffffff;fill-rule:evenodd;stroke:#ffffff;stroke-width:0;stroke-miterlimit:4;stroke-dasharray:none;image-rendering:optimizeQuality;shape-rendering:geometricPrecision;text-rendering:geometricPrecision"
           inkscape:connector-curvature="0"
           d="m 65.949514,65.148958 c 0.246409,0 0.470003,0.04305 0.671009,0.129136 0.200397,0.08651 0.30649,0.194161 0.317898,0.323716 0.03803,0.425444 -0.400947,0.841597 -1.314904,1.248047 -0.767062,0.339344 -1.613827,0.573585 -2.539762,0.702737 -0.08061,0.02472 -0.107233,0.185301 -0.08176,0.481155 0.01901,0.227928 0.148682,0.428394 0.386573,0.601017 0.237663,0.17222 0.567463,0.25873 0.988754,0.25873 0.773185,0 1.581049,-0.212718 2.422604,-0.638162 l 0.388284,-0.184882 0.08898,0.0091 0.09354,0.07385 0.0038,0.04643 c -0.03422,0.04305 -0.109135,0.09541 -0.231959,0.15701 -0.591838,0.345239 -1.148502,0.604394 -1.672387,0.776599 -0.52438,0.172638 -1.032788,0.259148 -1.524352,0.259148 -0.585753,0 -1.059976,-0.129593 -1.422669,-0.3883 -0.289379,-0.228346 -0.448442,-0.505636 -0.477037,-0.832314 -0.05096,-0.591732 0.304208,-1.22652 1.065148,-1.904776 0.836916,-0.74579 1.783461,-1.118472 2.837354,-1.118472 z m -2.178513,2.024645 c 0.456883,-0.135487 0.898784,-0.314438 1.324714,-0.536023 0.537955,-0.277705 0.797559,-0.520828 0.779306,-0.730595 -0.01901,-0.234241 -0.217889,-0.351589 -0.592788,-0.351589 -0.45734,0 -0.957345,0.237625 -1.502334,0.712023 -0.499055,0.456252 -0.737098,0.813739 -0.714586,1.072886 z"
           class="fil2"
           id="path154" />
        <path
           style="clip-rule:evenodd;fill:#ffffff;fill-rule:evenodd;stroke:#ffffff;stroke-width:0;stroke-miterlimit:4;stroke-dasharray:none;image-rendering:optimizeQuality;shape-rendering:geometricPrecision;text-rendering:geometricPrecision"
           inkscape:connector-curvature="0"
           d="m 68.611112,66.063994 -0.0076,-0.07385 -0.05932,-0.04601 c -0.07073,0 -0.211806,0.05696 -0.421633,0.170927 -0.206862,0.113965 -0.375698,0.186556 -0.507953,0.217357 l -0.08974,-0.01863 -0.05514,-0.02776 -0.03803,-0.04601 c 0.06236,-0.08651 0.411518,-0.286983 1.045907,-0.601017 0.634503,-0.314438 1.027198,-0.477779 1.178542,-0.490019 0.152485,0 0.237663,0.04012 0.256676,0.119858 0.01521,0.17895 -0.172638,0.647447 -0.562786,1.405478 0.525787,-0.419112 0.921258,-0.714978 1.187897,-0.887605 0.555295,-0.351171 1.074959,-0.573163 1.558575,-0.665593 l 0.13119,0.693451 c -0.70854,0.07385 -1.293343,0.224962 -1.753915,0.452875 -0.213707,0.09875 -0.630282,0.360868 -1.249803,0.785885 l -0.234621,0.730591 -0.5548,1.497908 h -0.931601 c 0.213326,-0.776599 0.582977,-1.849063 1.108232,-3.217819 z"
           class="fil2"
           id="path156" />
      </g>
    </g>
  </g>
</svg>
