<?xml version="1.0" encoding="UTF-8" standalone="no"?>
<svg
   xmlns:dc="http://purl.org/dc/elements/1.1/"
   xmlns:cc="http://creativecommons.org/ns#"
   xmlns:rdf="http://www.w3.org/1999/02/22-rdf-syntax-ns#"
   xmlns:svg="http://www.w3.org/2000/svg"
   xmlns="http://www.w3.org/2000/svg"
   xmlns:sodipodi="http://sodipodi.sourceforge.net/DTD/sodipodi-0.dtd"
   xmlns:inkscape="http://www.inkscape.org/namespaces/inkscape"
   width="123.6343mm"
   height="85.54232mm"
   viewBox="0 0 123.6343 85.54232"
   version="1.1"
   id="svg8"
   inkscape:version="1.0.2 (e86c870879, 2021-01-15)"
   sodipodi:docname="favicon.svg"
   inkscape:export-filename="/home/mega/Downloads/pestrez/pastrezVlist6.png"
   inkscape:export-xdpi="300.13"
   inkscape:export-ydpi="300.13">
  <defs
     id="defs2">
    <clipPath
       clipPathUnits="userSpaceOnUse"
       id="clipPath300">
      <path
         d="M 2,0 H 800 V 620.001 H 2 Z"
         id="path298"
         inkscape:connector-curvature="0" />
    </clipPath>
    <clipPath
       clipPathUnits="userSpaceOnUse"
       id="clipPath308">
      <path
         d="M 12.9607,426.554 H 212.25 V 141.55 H 12.9607 Z"
         id="path306"
         inkscape:connector-curvature="0" />
    </clipPath>
    <clipPath
       clipPathUnits="userSpaceOnUse"
       id="clipPath324">
      <path
         d="M 80.7363,252.765 H 308.532 V -22.3419 H 80.7363 Z"
         id="path322"
         inkscape:connector-curvature="0" />
    </clipPath>
    <clipPath
       clipPathUnits="userSpaceOnUse"
       id="clipPath340">
      <path
         d="M -41.6083,418.626 H 75.5032 V 301.778 H -41.6083 Z"
         id="path338"
         inkscape:connector-curvature="0" />
    </clipPath>
    <clipPath
       clipPathUnits="userSpaceOnUse"
       id="clipPath356">
      <path
         d="m 189.78,36.0524 h 47.441 V -16.0572 H 189.78 Z"
         id="path354"
         inkscape:connector-curvature="0" />
    </clipPath>
    <clipPath
       clipPathUnits="userSpaceOnUse"
       id="clipPath384">
      <path
         d="M 253.011,133.484 H 326.81 V 77.6421 h -73.799 z"
         id="path382"
         inkscape:connector-curvature="0" />
    </clipPath>
    <clipPath
       clipPathUnits="userSpaceOnUse"
       id="clipPath400">
      <path
         d="m 274.953,111.63 h 50.08 V 78.9858 h -50.08 z"
         id="path398"
         inkscape:connector-curvature="0" />
    </clipPath>
    <clipPath
       clipPathUnits="userSpaceOnUse"
       id="clipPath516">
      <path
         d="M 44.7253,191.251 H 79.049 V 159.627 H 44.7253 Z"
         id="path514"
         inkscape:connector-curvature="0" />
    </clipPath>
    <clipPath
       clipPathUnits="userSpaceOnUse"
       id="clipPath1412">
      <path
         d="M 326.282,135.419 H 428.707 V 64.905 H 326.282 Z"
         id="path1410"
         inkscape:connector-curvature="0" />
    </clipPath>
    <clipPath
       clipPathUnits="userSpaceOnUse"
       id="clipPath1476">
      <path
         d="M 382.74,153.487 H 617.857 V -32.701 H 382.74 Z"
         id="path1474"
         inkscape:connector-curvature="0" />
    </clipPath>
    <clipPath
       clipPathUnits="userSpaceOnUse"
       id="clipPath1528">
      <path
         d="m 241.114,149.921 h 56.608 V 85.2342 h -56.608 z"
         id="path1526"
         inkscape:connector-curvature="0" />
    </clipPath>
    <clipPath
       clipPathUnits="userSpaceOnUse"
       id="clipPath1568">
      <path
         d="m 256.589,160.106 h 44.385 v -23.911 h -44.385 z"
         id="path1566"
         inkscape:connector-curvature="0" />
    </clipPath>
    <clipPath
       clipPathUnits="userSpaceOnUse"
       id="clipPath1584">
      <path
         d="m 234.58,126.756 h 20.532 V 96.874 H 234.58 Z"
         id="path1582"
         inkscape:connector-curvature="0" />
    </clipPath>
    <clipPath
       clipPathUnits="userSpaceOnUse"
       id="clipPath1600">
      <path
         d="m 251.13,132.366 h 43.616 V 81.4752 H 251.13 Z"
         id="path1598"
         inkscape:connector-curvature="0" />
    </clipPath>
    <clipPath
       clipPathUnits="userSpaceOnUse"
       id="clipPath1616">
      <path
         d="m 641.085,73.3686 h 20.517 v -18.338 h -20.517 z"
         id="path1614"
         inkscape:connector-curvature="0" />
    </clipPath>
    <clipPath
       clipPathUnits="userSpaceOnUse"
       id="clipPath1632">
      <path
         d="m 662.099,51.8203 h 20.045 V 6.30283 h -20.045 z"
         id="path1630"
         inkscape:connector-curvature="0" />
    </clipPath>
    <clipPath
       clipPathUnits="userSpaceOnUse"
       id="clipPath1648">
      <path
         d="m 669.232,24.9586 h 10.035 V -2.26254 h -10.035 z"
         id="path1646"
         inkscape:connector-curvature="0" />
    </clipPath>
    <clipPath
       clipPathUnits="userSpaceOnUse"
       id="clipPath1704">
      <path
         d="M 176.665,64.6702 H 489.793 V -14.6754 H 176.665 Z"
         id="path1702"
         inkscape:connector-curvature="0" />
    </clipPath>
    <clipPath
       clipPathUnits="userSpaceOnUse"
       id="clipPath1808">
      <path
         d="M 654.889,241.946 H 843.535 V -17.1065 H 654.889 Z"
         id="path1806"
         inkscape:connector-curvature="0" />
    </clipPath>
    <clipPath
       clipPathUnits="userSpaceOnUse"
       id="clipPath1828">
      <path
         d="m 729.2,225.089 h 58.508 V 71.6737 H 729.2 Z"
         id="path1826"
         inkscape:connector-curvature="0" />
    </clipPath>
    <clipPath
       clipPathUnits="userSpaceOnUse"
       id="clipPath4160">
      <path
         d="m 193.093,60.4657 h 3.695 v -2.9788 h -3.695 z"
         id="path4158"
         inkscape:connector-curvature="0" />
    </clipPath>
    <clipPath
       clipPathUnits="userSpaceOnUse"
       id="clipPath4176">
      <path
         d="m 194.855,55.1164 h 2.704 v -1.6698 h -2.704 z"
         id="path4174"
         inkscape:connector-curvature="0" />
    </clipPath>
    <clipPath
       clipPathUnits="userSpaceOnUse"
       id="clipPath4192">
      <path
         d="m 203.25,54.9873 h 2.872 v -2.8757 h -2.872 z"
         id="path4190"
         inkscape:connector-curvature="0" />
    </clipPath>
    <clipPath
       clipPathUnits="userSpaceOnUse"
       id="clipPath4208">
      <path
         d="m 210.069,48.9468 h 2.159 v -1.8432 h -2.159 z"
         id="path4206"
         inkscape:connector-curvature="0" />
    </clipPath>
    <clipPath
       clipPathUnits="userSpaceOnUse"
       id="clipPath4224">
      <path
         d="m 218.879,50.2987 h 2.424 v -4.4035 h -2.424 z"
         id="path4222"
         inkscape:connector-curvature="0" />
    </clipPath>
    <clipPath
       clipPathUnits="userSpaceOnUse"
       id="clipPath4240">
      <path
         d="m 220.57,39.8334 h 1.47 v -1.4706 h -1.47 z"
         id="path4238"
         inkscape:connector-curvature="0" />
    </clipPath>
    <clipPath
       clipPathUnits="userSpaceOnUse"
       id="clipPath4256">
      <path
         d="m 211.913,40.246 h 3.289 v -2.6606 h -3.289 z"
         id="path4254"
         inkscape:connector-curvature="0" />
    </clipPath>
    <clipPath
       clipPathUnits="userSpaceOnUse"
       id="clipPath4272">
      <path
         d="m 229.594,44.5135 h 1.462 v -1.4616 h -1.462 z"
         id="path4270"
         inkscape:connector-curvature="0" />
    </clipPath>
    <clipPath
       clipPathUnits="userSpaceOnUse"
       id="clipPath4288">
      <path
         d="m 229.215,36.2899 h 2.653 v -1.7183 h -2.653 z"
         id="path4286"
         inkscape:connector-curvature="0" />
    </clipPath>
    <clipPath
       clipPathUnits="userSpaceOnUse"
       id="clipPath4304">
      <path
         d="m 230.313,29.3806 h 2.556 v -1.9673 h -2.556 z"
         id="path4302"
         inkscape:connector-curvature="0" />
    </clipPath>
    <clipPath
       clipPathUnits="userSpaceOnUse"
       id="clipPath4320">
      <path
         d="m 241.941,38.3761 h 2.88 v -3.2642 h -2.88 z"
         id="path4318"
         inkscape:connector-curvature="0" />
    </clipPath>
    <clipPath
       clipPathUnits="userSpaceOnUse"
       id="clipPath4336">
      <path
         d="m 245.829,31.5722 h 2.637 V 28.937 h -2.637 z"
         id="path4334"
         inkscape:connector-curvature="0" />
    </clipPath>
    <clipPath
       clipPathUnits="userSpaceOnUse"
       id="clipPath4352">
      <path
         d="m 243.07,20.2814 h 1.685 v -0.9826 h -1.685 z"
         id="path4350"
         inkscape:connector-curvature="0" />
    </clipPath>
    <clipPath
       clipPathUnits="userSpaceOnUse"
       id="clipPath4368">
      <path
         d="m 251.472,40.6179 h 1.712 v -2.7176 h -1.712 z"
         id="path4366"
         inkscape:connector-curvature="0" />
    </clipPath>
    <clipPath
       clipPathUnits="userSpaceOnUse"
       id="clipPath4384">
      <path
         d="m 232.379,48.8836 h 1.691 v -2.3543 h -1.691 z"
         id="path4382"
         inkscape:connector-curvature="0" />
    </clipPath>
    <clipPath
       clipPathUnits="userSpaceOnUse"
       id="clipPath4400">
      <path
         d="m 234.593,43.1342 h 1.948 v -1.9475 h -1.948 z"
         id="path4398"
         inkscape:connector-curvature="0" />
    </clipPath>
    <clipPath
       clipPathUnits="userSpaceOnUse"
       id="clipPath4416">
      <path
         d="m 221.542,31.1384 h 3.821 v -2.6458 h -3.821 z"
         id="path4414"
         inkscape:connector-curvature="0" />
    </clipPath>
    <clipPath
       clipPathUnits="userSpaceOnUse"
       id="clipPath4432">
      <path
         d="m 236.701,34.8344 h 1.997 v -2.3703 h -1.997 z"
         id="path4430"
         inkscape:connector-curvature="0" />
    </clipPath>
    <clipPath
       clipPathUnits="userSpaceOnUse"
       id="clipPath4448">
      <path
         d="m 238.522,26.2054 h 1.728 v -1.411 h -1.728 z"
         id="path4446"
         inkscape:connector-curvature="0" />
    </clipPath>
    <clipPath
       clipPathUnits="userSpaceOnUse"
       id="clipPath4464">
      <path
         d="m 216.552,33.401 h 2.301 v -2.0273 h -2.301 z"
         id="path4462"
         inkscape:connector-curvature="0" />
    </clipPath>
    <clipPath
       clipPathUnits="userSpaceOnUse"
       id="clipPath4480">
      <path
         d="m 216.573,58.324 h 2.991 v -3.3821 h -2.991 z"
         id="path4478"
         inkscape:connector-curvature="0" />
    </clipPath>
    <clipPath
       clipPathUnits="userSpaceOnUse"
       id="clipPath4496">
      <path
         d="m 212.204,64.0707 h 2.642 V 61.428 h -2.642 z"
         id="path4494"
         inkscape:connector-curvature="0" />
    </clipPath>
    <clipPath
       clipPathUnits="userSpaceOnUse"
       id="clipPath4512">
      <path
         d="m 201.76,72.0139 h 1.886 v -2.2737 h -1.886 z"
         id="path4510"
         inkscape:connector-curvature="0" />
    </clipPath>
    <clipPath
       clipPathUnits="userSpaceOnUse"
       id="clipPath4528">
      <path
         d="m 209.298,75.2728 h 2.976 v -3.0196 h -2.976 z"
         id="path4526"
         inkscape:connector-curvature="0" />
    </clipPath>
    <clipPath
       clipPathUnits="userSpaceOnUse"
       id="clipPath4544">
      <path
         d="m 254.075,15.7387 h 1.554 v -1.5542 h -1.554 z"
         id="path4542"
         inkscape:connector-curvature="0" />
    </clipPath>
    <clipPath
       clipPathUnits="userSpaceOnUse"
       id="clipPath4560">
      <path
         d="m 259.356,20.3988 h 2.341 v -2.0136 h -2.341 z"
         id="path4558"
         inkscape:connector-curvature="0" />
    </clipPath>
    <clipPath
       clipPathUnits="userSpaceOnUse"
       id="clipPath4576">
      <path
         d="m 261.05,13.3464 h 1.099 v -1.0983 h -1.099 z"
         id="path4574"
         inkscape:connector-curvature="0" />
    </clipPath>
    <clipPath
       clipPathUnits="userSpaceOnUse"
       id="clipPath4592">
      <path
         d="m 277.668,17.788 h 2.285 v -3.4459 h -2.285 z"
         id="path4590"
         inkscape:connector-curvature="0" />
    </clipPath>
    <clipPath
       clipPathUnits="userSpaceOnUse"
       id="clipPath4608">
      <path
         d="m 279.385,13.5797 h 2.472 v -1.873 h -2.472 z"
         id="path4606"
         inkscape:connector-curvature="0" />
    </clipPath>
    <clipPath
       clipPathUnits="userSpaceOnUse"
       id="clipPath4624">
      <path
         d="m 286.99,15.3414 h 2.822 v -3.6332 h -2.822 z"
         id="path4622"
         inkscape:connector-curvature="0" />
    </clipPath>
    <clipPath
       clipPathUnits="userSpaceOnUse"
       id="clipPath4640">
      <path
         d="m 288.42,29.0544 h 1.648 v -3.1412 h -1.648 z"
         id="path4638"
         inkscape:connector-curvature="0" />
    </clipPath>
    <clipPath
       clipPathUnits="userSpaceOnUse"
       id="clipPath4656">
      <path
         d="m 294.689,18.9083 h 2.085 v -3.1562 h -2.085 z"
         id="path4654"
         inkscape:connector-curvature="0" />
    </clipPath>
    <clipPath
       clipPathUnits="userSpaceOnUse"
       id="clipPath4672">
      <path
         d="m 300.795,13.6125 h 1.795 v -2.6332 h -1.795 z"
         id="path4670"
         inkscape:connector-curvature="0" />
    </clipPath>
    <clipPath
       clipPathUnits="userSpaceOnUse"
       id="clipPath4692">
      <path
         d="m 299.72,36.2273 h 0.772 v -1.1417 h -0.772 z"
         id="path4690"
         inkscape:connector-curvature="0" />
    </clipPath>
    <clipPath
       clipPathUnits="userSpaceOnUse"
       id="clipPath4712">
      <path
         d="m 321.721,27.5588 h 0.858 v -1.5101 h -0.858 z"
         id="path4710"
         inkscape:connector-curvature="0" />
    </clipPath>
    <clipPath
       clipPathUnits="userSpaceOnUse"
       id="clipPath4732">
      <path
         d="m 314.21,24.4395 h 2.315 v -4.0084 h -2.315 z"
         id="path4730"
         inkscape:connector-curvature="0" />
    </clipPath>
    <clipPath
       clipPathUnits="userSpaceOnUse"
       id="clipPath4748">
      <path
         d="m 306.795,28.7308 h 2.287 v -3.1509 h -2.287 z"
         id="path4746"
         inkscape:connector-curvature="0" />
    </clipPath>
    <clipPath
       clipPathUnits="userSpaceOnUse"
       id="clipPath4764">
      <path
         d="m 298.906,28.6934 h 0.863 v -2.2872 h -0.863 z"
         id="path4762"
         inkscape:connector-curvature="0" />
    </clipPath>
    <clipPath
       clipPathUnits="userSpaceOnUse"
       id="clipPath4780">
      <path
         d="m 340.182,14.537 h 1.473 v -4.3391 h -1.473 z"
         id="path4778"
         inkscape:connector-curvature="0" />
    </clipPath>
    <clipPath
       clipPathUnits="userSpaceOnUse"
       id="clipPath4796">
      <path
         d="m 345.958,13.1046 h 1.584 V 9.44731 h -1.584 z"
         id="path4794"
         inkscape:connector-curvature="0" />
    </clipPath>
    <clipPath
       clipPathUnits="userSpaceOnUse"
       id="clipPath4812">
      <path
         d="m 351.315,15.2947 h 0.571 v -2.9652 h -0.571 z"
         id="path4810"
         inkscape:connector-curvature="0" />
    </clipPath>
    <clipPath
       clipPathUnits="userSpaceOnUse"
       id="clipPath4828">
      <path
         d="m 345.109,25.786 h 0.976 v -3.3834 h -0.976 z"
         id="path4826"
         inkscape:connector-curvature="0" />
    </clipPath>
    <clipPath
       clipPathUnits="userSpaceOnUse"
       id="clipPath4844">
      <path
         d="m 362.98,23.4446 h 1.031 v -4.6022 h -1.031 z"
         id="path4842"
         inkscape:connector-curvature="0" />
    </clipPath>
    <clipPath
       clipPathUnits="userSpaceOnUse"
       id="clipPath4860">
      <path
         d="m 368.93,34.9684 h 1.637 v -5.2137 h -1.637 z"
         id="path4858"
         inkscape:connector-curvature="0" />
    </clipPath>
    <clipPath
       clipPathUnits="userSpaceOnUse"
       id="clipPath4876">
      <path
         d="m 373.087,23.4247 h 0.99 v -5.6144 h -0.99 z"
         id="path4874"
         inkscape:connector-curvature="0" />
    </clipPath>
    <clipPath
       clipPathUnits="userSpaceOnUse"
       id="clipPath4892">
      <path
         d="m 367.533,20.1195 h 0.651 v -3.6954 h -0.651 z"
         id="path4890"
         inkscape:connector-curvature="0" />
    </clipPath>
    <clipPath
       clipPathUnits="userSpaceOnUse"
       id="clipPath4908">
      <path
         d="m 381.919,35.3297 h 0.883 v -3.4021 h -0.883 z"
         id="path4906"
         inkscape:connector-curvature="0" />
    </clipPath>
    <clipPath
       clipPathUnits="userSpaceOnUse"
       id="clipPath4924">
      <path
         d="m 388.86,28.1421 h 1.147 v -4.5656 h -1.147 z"
         id="path4922"
         inkscape:connector-curvature="0" />
    </clipPath>
    <clipPath
       clipPathUnits="userSpaceOnUse"
       id="clipPath4940">
      <path
         d="m 382.3,18.0009 h 0.741 V 13.8215 H 382.3 Z"
         id="path4938"
         inkscape:connector-curvature="0" />
    </clipPath>
    <clipPath
       clipPathUnits="userSpaceOnUse"
       id="clipPath4956">
      <path
         d="m 393.337,18.3076 h 0.899 v -3.0147 h -0.899 z"
         id="path4954"
         inkscape:connector-curvature="0" />
    </clipPath>
    <clipPath
       clipPathUnits="userSpaceOnUse"
       id="clipPath4972">
      <path
         d="m 349.752,37.1695 h 1.435 v -3.4829 h -1.435 z"
         id="path4970"
         inkscape:connector-curvature="0" />
    </clipPath>
    <clipPath
       clipPathUnits="userSpaceOnUse"
       id="clipPath4988">
      <path
         d="m 342.849,37.1134 h 1.467 v -4.0869 h -1.467 z"
         id="path4986"
         inkscape:connector-curvature="0" />
    </clipPath>
    <clipPath
       clipPathUnits="userSpaceOnUse"
       id="clipPath5004">
      <path
         d="m 419.626,18.6253 h 0.512 v -2.8906 h -0.512 z"
         id="path5002"
         inkscape:connector-curvature="0" />
    </clipPath>
    <clipPath
       clipPathUnits="userSpaceOnUse"
       id="clipPath5020">
      <path
         d="m 426.423,23.3993 h 1.541 v -2.6572 h -1.541 z"
         id="path5018"
         inkscape:connector-curvature="0" />
    </clipPath>
    <clipPath
       clipPathUnits="userSpaceOnUse"
       id="clipPath5036">
      <path
         d="m 426.143,15.1241 h 1.069 V 10.588 h -1.069 z"
         id="path5034"
         inkscape:connector-curvature="0" />
    </clipPath>
    <clipPath
       clipPathUnits="userSpaceOnUse"
       id="clipPath5052">
      <path
         d="m 437.616,11.8347 h 0.661 V 9.51572 h -0.661 z"
         id="path5050"
         inkscape:connector-curvature="0" />
    </clipPath>
    <clipPath
       clipPathUnits="userSpaceOnUse"
       id="clipPath5068">
      <path
         d="m 434.623,28.8723 h 2.051 v -3.1227 h -2.051 z"
         id="path5066"
         inkscape:connector-curvature="0" />
    </clipPath>
    <clipPath
       clipPathUnits="userSpaceOnUse"
       id="clipPath5084">
      <path
         d="m 442.231,18.0108 h 1.629 v -4.1652 h -1.629 z"
         id="path5082"
         inkscape:connector-curvature="0" />
    </clipPath>
    <clipPath
       clipPathUnits="userSpaceOnUse"
       id="clipPath5100">
      <path
         d="m 432.691,7.68266 h 1.16 V 4.00797 h -1.16 z"
         id="path5098"
         inkscape:connector-curvature="0" />
    </clipPath>
    <clipPath
       clipPathUnits="userSpaceOnUse"
       id="clipPath5584">
      <path
         d="m 400.498,144.415 h 6.447 v -5.298 h -6.447 z"
         id="path5582"
         inkscape:connector-curvature="0" />
    </clipPath>
    <clipPath
       clipPathUnits="userSpaceOnUse"
       id="clipPath5600">
      <path
         d="m 397.662,148.297 h 3.114 v -2.668 h -3.114 z"
         id="path5598"
         inkscape:connector-curvature="0" />
    </clipPath>
    <clipPath
       clipPathUnits="userSpaceOnUse"
       id="clipPath5616">
      <path
         d="m 397.244,153.767 h 2.733 v -2.214 h -2.733 z"
         id="path5614"
         inkscape:connector-curvature="0" />
    </clipPath>
    <clipPath
       clipPathUnits="userSpaceOnUse"
       id="clipPath5632">
      <path
         d="m 409.756,134.341 h 3.653 v -2.911 h -3.653 z"
         id="path5630"
         inkscape:connector-curvature="0" />
    </clipPath>
    <clipPath
       clipPathUnits="userSpaceOnUse"
       id="clipPath5648">
      <path
         d="m 413.39,144.648 h 1.924 v -2.51 h -1.924 z"
         id="path5646"
         inkscape:connector-curvature="0" />
    </clipPath>
    <clipPath
       clipPathUnits="userSpaceOnUse"
       id="clipPath5664">
      <path
         d="m 419.454,136.437 h 2.166 v -2.139 h -2.166 z"
         id="path5662"
         inkscape:connector-curvature="0" />
    </clipPath>
    <clipPath
       clipPathUnits="userSpaceOnUse"
       id="clipPath5680">
      <path
         d="m 415.172,125.724 h 4.989 v -3.046 h -4.989 z"
         id="path5678"
         inkscape:connector-curvature="0" />
    </clipPath>
    <clipPath
       clipPathUnits="userSpaceOnUse"
       id="clipPath5696">
      <path
         d="m 425.637,145.655 h 2.252 v -3.02 h -2.252 z"
         id="path5694"
         inkscape:connector-curvature="0" />
    </clipPath>
    <clipPath
       clipPathUnits="userSpaceOnUse"
       id="clipPath5712">
      <path
         d="m 427.911,130.143 h 1.617 v -1.655 h -1.617 z"
         id="path5710"
         inkscape:connector-curvature="0" />
    </clipPath>
    <clipPath
       clipPathUnits="userSpaceOnUse"
       id="clipPath5728">
      <path
         d="m 425.659,115.96 h 4.444 v -3.813 h -4.444 z"
         id="path5726"
         inkscape:connector-curvature="0" />
    </clipPath>
    <clipPath
       clipPathUnits="userSpaceOnUse"
       id="clipPath5744">
      <path
         d="m 423.428,135.098 h 3.085 v -2.374 h -3.085 z"
         id="path5742"
         inkscape:connector-curvature="0" />
    </clipPath>
    <clipPath
       clipPathUnits="userSpaceOnUse"
       id="clipPath5760">
      <path
         d="m 432.649,122.097 h 2.986 v -2.864 h -2.986 z"
         id="path5758"
         inkscape:connector-curvature="0" />
    </clipPath>
    <clipPath
       clipPathUnits="userSpaceOnUse"
       id="clipPath5776">
      <path
         d="m 432.879,109.549 h 3.649 v -3.106 h -3.649 z"
         id="path5774"
         inkscape:connector-curvature="0" />
    </clipPath>
    <clipPath
       clipPathUnits="userSpaceOnUse"
       id="clipPath5792">
      <path
         d="m 423.867,120.813 h 3.04 v -1.873 h -3.04 z"
         id="path5790"
         inkscape:connector-curvature="0" />
    </clipPath>
    <clipPath
       clipPathUnits="userSpaceOnUse"
       id="clipPath5812">
      <path
         d="m 448.367,85.8688 h 2.14 v -1.2169 h -2.14 z"
         id="path5810"
         inkscape:connector-curvature="0" />
    </clipPath>
    <clipPath
       clipPathUnits="userSpaceOnUse"
       id="clipPath5828">
      <path
         d="m 454.823,91.6986 h 2.457 v -2.0999 h -2.457 z"
         id="path5826"
         inkscape:connector-curvature="0" />
    </clipPath>
    <clipPath
       clipPathUnits="userSpaceOnUse"
       id="clipPath5844">
      <path
         d="m 453.438,78.3754 h 2.637 v -1.6536 h -2.637 z"
         id="path5842"
         inkscape:connector-curvature="0" />
    </clipPath>
    <clipPath
       clipPathUnits="userSpaceOnUse"
       id="clipPath5860">
      <path
         d="m 468.071,90.1904 h 2.45 V 87.735 h -2.45 z"
         id="path5858"
         inkscape:connector-curvature="0" />
    </clipPath>
    <clipPath
       clipPathUnits="userSpaceOnUse"
       id="clipPath5876">
      <path
         d="m 463.47,99.4024 h 2.021 V 97.136 h -2.021 z"
         id="path5874"
         inkscape:connector-curvature="0" />
    </clipPath>
    <clipPath
       clipPathUnits="userSpaceOnUse"
       id="clipPath5892">
      <path
         d="m 459.876,84.9299 h 1.265 v -1.0303 h -1.265 z"
         id="path5890"
         inkscape:connector-curvature="0" />
    </clipPath>
    <clipPath
       clipPathUnits="userSpaceOnUse"
       id="clipPath5908">
      <path
         d="m 464.933,71.7133 h 1.445 v -1.0078 h -1.445 z"
         id="path5906"
         inkscape:connector-curvature="0" />
    </clipPath>
    <clipPath
       clipPathUnits="userSpaceOnUse"
       id="clipPath5924">
      <path
         d="m 460.669,61.7793 h 2.573 V 60.103 h -2.573 z"
         id="path5922"
         inkscape:connector-curvature="0" />
    </clipPath>
    <clipPath
       clipPathUnits="userSpaceOnUse"
       id="clipPath5940">
      <path
         d="m 455.342,68.0634 h 1.219 v -0.7338 h -1.219 z"
         id="path5938"
         inkscape:connector-curvature="0" />
    </clipPath>
    <clipPath
       clipPathUnits="userSpaceOnUse"
       id="clipPath5956">
      <path
         d="m 468.846,54.0851 h 3.1 v -1.9272 h -3.1 z"
         id="path5954"
         inkscape:connector-curvature="0" />
    </clipPath>
    <clipPath
       clipPathUnits="userSpaceOnUse"
       id="clipPath5972">
      <path
         d="m 472.684,67.8094 h 2.446 v -1.9847 h -2.446 z"
         id="path5970"
         inkscape:connector-curvature="0" />
    </clipPath>
    <clipPath
       clipPathUnits="userSpaceOnUse"
       id="clipPath5988">
      <path
         d="m 486.846,69.5167 h 2.288 v -1.8138 h -2.288 z"
         id="path5986"
         inkscape:connector-curvature="0" />
    </clipPath>
    <clipPath
       clipPathUnits="userSpaceOnUse"
       id="clipPath6004">
      <path
         d="m 481.103,80.1101 h 1.716 v -1.9817 h -1.716 z"
         id="path6002"
         inkscape:connector-curvature="0" />
    </clipPath>
    <clipPath
       clipPathUnits="userSpaceOnUse"
       id="clipPath6020">
      <path
         d="m 472.404,84.2163 h 1.993 v -1.7354 h -1.993 z"
         id="path6018"
         inkscape:connector-curvature="0" />
    </clipPath>
    <clipPath
       clipPathUnits="userSpaceOnUse"
       id="clipPath6036">
      <path
         d="m 470.922,75.7226 h 3.017 v -2.195 h -3.017 z"
         id="path6034"
         inkscape:connector-curvature="0" />
    </clipPath>
    <clipPath
       clipPathUnits="userSpaceOnUse"
       id="clipPath6052">
      <path
         d="m 487.35,86.892 h 2.486 v -2.0241 h -2.486 z"
         id="path6050"
         inkscape:connector-curvature="0" />
    </clipPath>
    <clipPath
       clipPathUnits="userSpaceOnUse"
       id="clipPath6068">
      <path
         d="m 493.34,75.5483 h 2.497 v -2.497 h -2.497 z"
         id="path6066"
         inkscape:connector-curvature="0" />
    </clipPath>
    <clipPath
       clipPathUnits="userSpaceOnUse"
       id="clipPath6084">
      <path
         d="m 497.536,25.7968 h 3.121 v -1.7562 h -3.121 z"
         id="path6082"
         inkscape:connector-curvature="0" />
    </clipPath>
    <clipPath
       clipPathUnits="userSpaceOnUse"
       id="clipPath6100">
      <path
         d="m 506.362,30.7335 h 1.985 v -1.9992 h -1.985 z"
         id="path6098"
         inkscape:connector-curvature="0" />
    </clipPath>
    <clipPath
       clipPathUnits="userSpaceOnUse"
       id="clipPath6116">
      <path
         d="m 503.775,17.4749 h 4.279 v -2.4738 h -4.279 z"
         id="path6114"
         inkscape:connector-curvature="0" />
    </clipPath>
    <clipPath
       clipPathUnits="userSpaceOnUse"
       id="clipPath6132">
      <path
         d="m 505.147,23.3873 h 3.216 v -1.7629 h -3.216 z"
         id="path6130"
         inkscape:connector-curvature="0" />
    </clipPath>
    <clipPath
       clipPathUnits="userSpaceOnUse"
       id="clipPath6148">
      <path
         d="m 519.733,37.4293 h 3.397 v -2.912 h -3.397 z"
         id="path6146"
         inkscape:connector-curvature="0" />
    </clipPath>
    <clipPath
       clipPathUnits="userSpaceOnUse"
       id="clipPath6164">
      <path
         d="m 525.442,28.0828 h 3.368 v -2.452 h -3.368 z"
         id="path6162"
         inkscape:connector-curvature="0" />
    </clipPath>
    <clipPath
       clipPathUnits="userSpaceOnUse"
       id="clipPath6180">
      <path
         d="m 516.243,26.8884 h 2.987 V 24.91 h -2.987 z"
         id="path6178"
         inkscape:connector-curvature="0" />
    </clipPath>
    <clipPath
       clipPathUnits="userSpaceOnUse"
       id="clipPath6196">
      <path
         d="m 520.107,16.3052 h 3.187 v -1.9528 h -3.187 z"
         id="path6194"
         inkscape:connector-curvature="0" />
    </clipPath>
    <clipPath
       clipPathUnits="userSpaceOnUse"
       id="clipPath6212">
      <path
         d="m 511.909,10.6943 h 4.18 V 9.21204 h -4.18 z"
         id="path6210"
         inkscape:connector-curvature="0" />
    </clipPath>
    <clipPath
       clipPathUnits="userSpaceOnUse"
       id="clipPath6228">
      <path
         d="m 526.109,7.60458 h 3.842 V 5.34299 h -3.842 z"
         id="path6226"
         inkscape:connector-curvature="0" />
    </clipPath>
    <clipPath
       clipPathUnits="userSpaceOnUse"
       id="clipPath6244">
      <path
         d="m 536.191,19.8476 h 2.763 v -2.1782 h -2.763 z"
         id="path6242"
         inkscape:connector-curvature="0" />
    </clipPath>
    <clipPath
       clipPathUnits="userSpaceOnUse"
       id="clipPath6260">
      <path
         d="m 512.311,18.6583 h 3.541 v -2.0358 h -3.541 z"
         id="path6258"
         inkscape:connector-curvature="0" />
    </clipPath>
    <clipPath
       clipPathUnits="userSpaceOnUse"
       id="clipPath6276">
      <path
         d="m 527.688,17.521 h 2.344 v -1.6785 h -2.344 z"
         id="path6274"
         inkscape:connector-curvature="0" />
    </clipPath>
    <clipPath
       clipPathUnits="userSpaceOnUse"
       id="clipPath6292">
      <path
         d="m 544.117,17.1681 h 4.33 v -2.6416 h -4.33 z"
         id="path6290"
         inkscape:connector-curvature="0" />
    </clipPath>
    <clipPath
       clipPathUnits="userSpaceOnUse"
       id="clipPath6308">
      <path
         d="m 550.566,28.0907 h 2.392 v -1.8368 h -2.392 z"
         id="path6306"
         inkscape:connector-curvature="0" />
    </clipPath>
    <clipPath
       clipPathUnits="userSpaceOnUse"
       id="clipPath6324">
      <path
         d="m 536.24,10.6893 h 1.953 V 9.47577 h -1.953 z"
         id="path6322"
         inkscape:connector-curvature="0" />
    </clipPath>
    <clipPath
       clipPathUnits="userSpaceOnUse"
       id="clipPath6340">
      <path
         d="m 536.093,33.6108 h 3.083 v -2.5181 h -3.083 z"
         id="path6338"
         inkscape:connector-curvature="0" />
    </clipPath>
    <clipPath
       clipPathUnits="userSpaceOnUse"
       id="clipPath6356">
      <path
         d="m 530.219,46.8427 h 2.924 v -2.436 h -2.924 z"
         id="path6354"
         inkscape:connector-curvature="0" />
    </clipPath>
    <clipPath
       clipPathUnits="userSpaceOnUse"
       id="clipPath6372">
      <path
         d="m 537.468,42.2623 h 2.202 v -1.8888 h -2.202 z"
         id="path6370"
         inkscape:connector-curvature="0" />
    </clipPath>
    <clipPath
       clipPathUnits="userSpaceOnUse"
       id="clipPath6388">
      <path
         d="m 546.862,36.5074 h 2.647 v -1.4828 h -2.647 z"
         id="path6386"
         inkscape:connector-curvature="0" />
    </clipPath>
    <clipPath
       clipPathUnits="userSpaceOnUse"
       id="clipPath6404">
      <path
         d="m 556.913,22.8041 h 2.08 v -1.5339 h -2.08 z"
         id="path6402"
         inkscape:connector-curvature="0" />
    </clipPath>
    <clipPath
       clipPathUnits="userSpaceOnUse"
       id="clipPath6420">
      <path
         d="m 540.042,25.1759 h 2.028 V 24.118 h -2.028 z"
         id="path6418"
         inkscape:connector-curvature="0" />
    </clipPath>
    <clipPath
       clipPathUnits="userSpaceOnUse"
       id="clipPath6436">
      <path
         d="m 575.927,3.30591 h 2.774 V 0.820404 h -2.774 z"
         id="path6434"
         inkscape:connector-curvature="0" />
    </clipPath>
    <clipPath
       clipPathUnits="userSpaceOnUse"
       id="clipPath6452">
      <path
         d="m 588.301,7.10339 h 1.924 V 4.89027 h -1.924 z"
         id="path6450"
         inkscape:connector-curvature="0" />
    </clipPath>
    <clipPath
       clipPathUnits="userSpaceOnUse"
       id="clipPath6468">
      <path
         d="m 587.945,14.8569 h 2.093 v -1.5467 h -2.093 z"
         id="path6466"
         inkscape:connector-curvature="0" />
    </clipPath>
    <clipPath
       clipPathUnits="userSpaceOnUse"
       id="clipPath6484">
      <path
         d="m 595.205,10.0274 h 1.982 V 8.16005 h -1.982 z"
         id="path6482"
         inkscape:connector-curvature="0" />
    </clipPath>
    <clipPath
       clipPathUnits="userSpaceOnUse"
       id="clipPath6500">
      <path
         d="m 596.212,0.632904 h 2.529 V -1.40804 h -2.529 z"
         id="path6498"
         inkscape:connector-curvature="0" />
    </clipPath>
    <clipPath
       clipPathUnits="userSpaceOnUse"
       id="clipPath6516">
      <path
         d="m 603.934,10.9952 h 1.674 V 9.02663 h -1.674 z"
         id="path6514"
         inkscape:connector-curvature="0" />
    </clipPath>
    <clipPath
       clipPathUnits="userSpaceOnUse"
       id="clipPath6532">
      <path
         d="m 599.549,22.5931 h 1.734 v -2.0248 h -1.734 z"
         id="path6530"
         inkscape:connector-curvature="0" />
    </clipPath>
    <clipPath
       id="id0">
      <path
         d="m 80.8491,15.0756 c -0.073,0.8247 -0.1728,1.8555 -0.297,3.0925 -0.1383,1.2482 -0.206,2.5298 -0.2031,3.8448 9e-4,1.7162 0.1934,3.3405 0.5882,4.8644 0.3913,1.5268 1.1781,2.5966 2.3603,3.2096 h -1.2239 c -0.8634,0 -1.4893,-0.1728 -1.8831,-0.5182 -0.3885,-0.3455 -0.7189,-0.7857 -0.9894,-1.3178 -0.1414,-0.2814 -0.2877,-0.5823 -0.438,-0.9055 -0.1504,-0.3232 -0.326,-0.6519 -0.5268,-0.9863 -0.3268,-0.5237 -0.7753,-1.0364 -1.3455,-1.5379 -0.5809,-0.5015 -1.3997,-0.9277 -2.4546,-1.2843 0,0 -0.2383,0.2201 -0.7156,0.663 -0.4923,0.457 -1.0688,0.9612 -1.7252,1.5073 -0.1894,0.156 -0.3799,0.3065 -0.5748,0.4541 -0.1907,0.1421 -0.3795,0.287 -0.5629,0.4319 -0.4864,0.3566 -0.9372,0.6575 -1.3552,0.9026 -0.4278,0.2424 -0.7686,0.365 -1.0269,0.365 -0.1936,0 -0.3189,-0.0306 -0.3768,-0.0975 -0.0525,-0.0669 -0.0738,-0.1393 -0.0647,-0.2145 -0.0032,-0.0251 -0.0019,-0.0474 0.0048,-0.0697 0.0067,-0.0223 0.0134,-0.0446 0.0201,-0.0668 0.0067,-0.0223 0.0134,-0.0446 0.021,-0.0697 0.0033,-0.0111 0.0075,-0.0251 0.0142,-0.0474 0.0469,-0.156 0.0981,-0.273 0.1565,-0.351 0.0524,-0.0669 0.1337,-0.1226 0.2439,-0.1672 0.2554,-0.1337 0.7685,-0.3733 1.5394,-0.7188 0.7567,-0.3343 2.0662,-1.237 3.9266,-2.7108 -0.2497,-0.0641 -0.4794,-0.1142 -0.6962,-0.1449 -0.2184,-0.025 -0.424,-0.039 -0.6204,-0.039 -0.3443,0 -0.6484,0.0362 -0.9159,0.1031 -0.2676,0.0669 -0.5062,0.1449 -0.7151,0.2313 -0.0996,0.0362 -0.1822,0.0696 -0.2569,0.103 -0.0887,0.0446 -0.173,0.0836 -0.2485,0.1198 0.3926,-0.3036 0.7968,-0.521 1.2135,-0.6547 0.4134,-0.1226 0.8198,-0.195 1.2103,-0.2145 0.035,0 0.0673,0 0.0996,0 0.0295,0 0.0619,0 0.0941,0 0.2152,0 0.4279,0.0084 0.6364,0.0306 0.1943,0.0335 0.3817,0.0725 0.5654,0.1143 0.4493,-0.4207 0.8875,-0.8498 1.3193,-1.2844 0.4211,-0.4346 0.8261,-0.8692 1.214,-1.3011 0.8557,-0.95 1.6273,-1.8889 2.3141,-2.8139 0.6853,-0.911 1.2403,-1.7469 1.6698,-2.5047 z M 78.423,24.941 c -0.0357,-0.2034 -0.0603,-0.4708 -0.0674,-0.8051 -0.0106,-0.3232 -0.0076,-0.691 0.0086,-1.1033 0.0228,-0.6129 0.0711,-1.2927 0.1448,-2.0394 0.0704,-0.7355 0.1662,-1.4933 0.2823,-2.2734 -0.623,0.8469 -1.2608,1.627 -1.9155,2.3375 -0.6661,0.7132 -1.3472,1.4041 -2.0438,2.0756 0.2091,0.0557 0.4221,0.117 0.6387,0.1839 0.2166,0.0668 0.4299,0.1448 0.6398,0.234 0.4447,0.1672 0.874,0.3678 1.2878,0.6018 0.4032,0.234 0.7424,0.5015 1.0205,0.8024 z"
         id="path4" />
    </clipPath>
    <clipPath
       id="id1">
      <path
         d="m 89.8727,19.0708 -2.9933,9.9629 c -0.0335,0.1115 -0.0405,0.2062 -0.0235,0.2842 0.0089,0.078 0.0354,0.1505 0.0827,0.2173 0.0707,0.1226 0.1704,0.2563 0.299,0.4012 0.1145,0.156 0.21,0.3845 0.2917,0.6854 0.0101,0.0111 0.0184,0.0195 0.0257,0.0306 -0.0075,0.0251 -0.0071,0.0418 2e-4,0.053 -0.0444,-0.0669 -0.0868,-0.1226 -0.1272,-0.1672 -0.0512,-0.0446 -0.1024,-0.0891 -0.1535,-0.1337 -0.1494,-0.1115 -0.3105,-0.1839 -0.4862,-0.2173 -0.1851,-0.0195 -0.3808,-0.0307 -0.5852,-0.0307 -0.2044,0 -0.4039,0.0195 -0.6029,0.0641 -0.1936,0.0446 -0.3858,0.1114 -0.5767,0.2006 -0.1963,0.0891 -0.4002,0.195 -0.6119,0.3176 -0.2204,0.1337 -0.4646,0.2842 -0.7309,0.4541 0.0335,-0.1114 0.1241,-0.234 0.2727,-0.3705 0.1478,-0.1337 0.3081,-0.2731 0.4806,-0.4179 0.1752,-0.1533 0.3404,-0.3093 0.4948,-0.4653 0.1554,-0.1588 0.2577,-0.3204 0.3071,-0.4848 l 1.6222,-5.3993 c -0.1153,0.0975 -0.3004,0.2479 -0.557,0.4485 -0.2546,0.2118 -0.5351,0.4291 -0.8415,0.652 -0.1101,0.0891 -0.2213,0.1727 -0.3308,0.2507 -0.1095,0.078 -0.2227,0.1504 -0.3424,0.2173 -0.2861,0.2006 -0.5545,0.3594 -0.8065,0.482 -0.2661,0.1337 -0.4772,0.2006 -0.6386,0.2006 -0.0214,0 -0.0429,0 -0.0672,0 -0.0215,0 -0.0387,-0.0056 -0.0568,-0.0167 -0.3102,-0.0418 -0.5304,-0.2758 -0.6606,-0.7021 -0.1459,-0.4096 -0.1107,-0.9835 0.1111,-1.7218 0.4679,-1.5574 1.2442,-2.7442 2.3305,-3.5578 1.0729,-0.8135 2.2254,-1.2203 3.4626,-1.2203 z m -1.6577,0.4681 c -0.8102,0.0111 -1.5337,0.3064 -2.1732,0.8859 -0.6368,0.5795 -1.0832,1.2148 -1.3446,1.9057 -0.0241,0.0446 -0.0429,0.0892 -0.0554,0.1309 -0.0143,0.0474 -0.0277,0.092 -0.0411,0.1366 -0.1741,0.5795 -0.1994,0.9862 -0.0788,1.2203 0.1046,0.234 0.2899,0.351 0.5563,0.351 0.0107,0 0.0241,0 0.0349,0 0.1291,0 0.2757,-0.0223 0.4397,-0.0669 0.1506,-0.0445 0.3169,-0.1058 0.491,-0.1838 0.1741,-0.0781 0.3532,-0.1728 0.5346,-0.2842 0.1761,-0.1115 0.3457,-0.2285 0.5116,-0.3511 z"
         id="path7" />
    </clipPath>
    <clipPath
       id="id2">
      <path
         d="m 90.55,20.1741 c 0.305,-0.326 0.6026,-0.5823 0.8953,-0.769 0.283,-0.1894 0.5538,-0.312 0.818,-0.3677 0.0605,-0.0223 0.1247,-0.039 0.1934,-0.0529 0.0538,0 0.113,0 0.1775,0 0.2152,0 0.362,0.0668 0.4392,0.2033 0.0675,0.1338 0.0993,0.2786 0.0927,0.4347 0.0064,0.1309 -0.0052,0.2591 -0.0313,0.3817 -0.026,0.1225 -0.0449,0.2033 -0.055,0.2368 -0.0033,0.0111 -0.005,0.0167 -0.005,0.0167 l -0.9392,3.1259 c -0.0268,0.0892 -0.051,0.17 -0.0753,0.2508 -0.0235,0.078 -0.0486,0.1616 -0.0762,0.2535 -0.0795,0.2647 -0.1138,0.5043 -0.1021,0.716 0.0108,0.2145 0.1673,0.3204 0.4685,0.3204 0.0861,0 0.1984,-0.0334 0.3377,-0.1031 0.135,-0.0557 0.2751,-0.1281 0.4203,-0.2173 0.1767,-0.1226 0.3558,-0.2619 0.5425,-0.4179 0.1753,-0.1449 0.3281,-0.2953 0.4584,-0.4513 0.0973,-0.1003 0.1776,-0.2062 0.2406,-0.3176 0.0625,-0.1003 0.1071,-0.1951 0.1338,-0.2842 l 0.8689,-2.8919 c 0.1005,-0.3344 0.3344,-0.6297 0.7046,-0.886 0.3543,-0.248 0.7407,-0.3705 1.1577,-0.3705 l -1.7846,5.9398 c -0.0034,0.0112 -0.0014,0.0223 0.0069,0.0307 0.004,0.0222 0.0172,0.0501 0.0421,0.0835 0.0257,0.0223 0.0645,0.0363 0.1149,0.0474 0.0356,0.0251 0.0913,0.0362 0.1667,0.0362 0.1291,0 0.318,-0.0557 0.5667,-0.1671 0.2345,-0.1003 0.552,-0.3065 0.9605,-0.6185 -0.0773,0.078 -0.2073,0.2061 -0.3872,0.3844 -0.1888,0.1895 -0.4007,0.3845 -0.6313,0.5879 -0.2276,0.1755 -0.4623,0.3482 -0.7043,0.5182 -0.2464,0.1755 -0.483,0.3092 -0.7035,0.3984 -0.0928,0.0223 -0.1801,0.0446 -0.2595,0.0669 -0.0935,0.025 -0.1803,0.0362 -0.2556,0.0362 -0.3093,0 -0.4961,-0.0947 -0.5567,-0.287 -0.0674,-0.1783 -0.0479,-0.4402 0.0559,-0.7856 l 0.226,-0.7523 c -0.1169,0.1115 -0.2472,0.2229 -0.3882,0.3343 -0.1412,0.1115 -0.2876,0.2229 -0.4395,0.3344 -0.3634,0.2786 -0.748,0.5293 -1.1486,0.7522 -0.4118,0.234 -0.8017,0.3678 -1.1677,0.404 -0.0215,0 -0.0377,0 -0.0484,0 -0.0188,0 -0.043,0 -0.0673,0 -0.3631,0 -0.5674,-0.1616 -0.6101,-0.4848 -0.0561,-0.3148 -0.042,-0.6659 0.042,-1.0531 0.0102,-0.0697 0.0249,-0.1365 0.0442,-0.2006 0.0209,-0.0697 0.041,-0.1365 0.0611,-0.2034 l 1.1702,-3.8949 c 0.0503,-0.1672 0.0767,-0.3092 0.0813,-0.4318 -0.0062,-0.1226 -0.0846,-0.1839 -0.2353,-0.1839 -0.0786,0.0111 -0.183,0.0362 -0.3147,0.0808 -0.1318,0.0446 -0.2942,0.1198 -0.4891,0.2312 z"
         id="path10" />
    </clipPath>
    <clipPath
       id="id3">
      <path
         d="m 104.298,19.0708 h 1.4068 l -1.8575,6.1823 c -0.0168,0.0919 -0.008,0.1532 0.0228,0.1838 0.014,0.0251 0.043,0.0363 0.0887,0.0363 0.0108,0 0.0215,0 0.0323,0 0.1075,0 0.2625,-0.0502 0.4648,-0.1505 0.1989,-0.0891 0.4244,-0.195 0.6764,-0.3176 -0.0524,0.0669 -0.1101,0.1337 -0.1759,0.2006 -0.0638,0.078 -0.134,0.1505 -0.2097,0.2145 -0.1802,0.17 -0.3848,0.3316 -0.6146,0.4876 -0.227,0.156 -0.4515,0.2675 -0.6652,0.3343 -0.0678,0.0195 -0.132,0.0362 -0.1918,0.0474 -0.0652,0.0111 -0.1261,0.0167 -0.1826,0.0167 -0.0403,0 -0.1052,-0.0167 -0.192,-0.0502 -0.0876,-0.0306 -0.1731,-0.0863 -0.2591,-0.1671 -0.1037,-0.1115 -0.1885,-0.2591 -0.2499,-0.4486 -0.0648,-0.1783 -0.057,-0.4012 0.0234,-0.6686 l 0.2753,-0.9166 c -0.1153,0.0975 -0.3004,0.2479 -0.557,0.4485 -0.2546,0.2118 -0.5351,0.4291 -0.8415,0.652 -0.1101,0.0891 -0.2213,0.1727 -0.3308,0.2507 -0.1095,0.078 -0.2227,0.1504 -0.3424,0.2173 -0.2861,0.2006 -0.5545,0.3594 -0.8065,0.482 -0.2661,0.1337 -0.4772,0.2006 -0.6386,0.2006 -0.0214,0 -0.0429,0 -0.0672,0 -0.0215,0 -0.0387,-0.0056 -0.0568,-0.0167 -0.3102,-0.0418 -0.5304,-0.2758 -0.6606,-0.7021 -0.1459,-0.4096 -0.1107,-0.9835 0.1111,-1.7218 0.4679,-1.5574 1.2442,-2.7442 2.3305,-3.5578 1.0702,-0.8135 2.2254,-1.2203 3.4626,-1.2203 z m -0.2509,0.4681 c -0.8102,0.0111 -1.5337,0.3064 -2.1732,0.8859 -0.6368,0.5795 -1.0832,1.2148 -1.3446,1.9057 -0.0241,0.0446 -0.0429,0.0892 -0.0554,0.1309 -0.0143,0.0474 -0.0277,0.092 -0.0411,0.1366 -0.1741,0.5795 -0.1994,0.9862 -0.0788,1.2203 0.1046,0.234 0.2899,0.351 0.5563,0.351 0.0107,0 0.0241,0 0.0349,0 0.1291,0 0.2757,-0.0223 0.4397,-0.0669 0.1506,-0.0445 0.3169,-0.1058 0.491,-0.1838 0.1741,-0.0781 0.3532,-0.1728 0.5346,-0.2842 0.1761,-0.1115 0.3457,-0.2285 0.5116,-0.3511 z"
         id="path13" />
    </clipPath>
    <clipPath
       id="id4">
      <path
         d="m 106.694,22.5645 c 0.6931,-2.3068 1.8297,-4.0843 3.4098,-5.3325 1.5766,-1.237 3.1119,-1.8527 4.6075,-1.8527 l 4.0074,-0.0167 c -0.0258,0.3009 -0.0212,0.5544 0.0111,0.7689 0.0332,0.2118 0.0708,0.4179 0.1173,0.6213 0.0231,0.0753 0.0481,0.1533 0.0784,0.2313 0.0163,0.0891 0.0326,0.1783 0.0496,0.2646 0.0491,0.1589 0.0887,0.3316 0.1187,0.5183 0.0259,0.2005 0.0352,0.429 0.0371,0.6825 -0.0885,-0.064 -0.2121,-0.2256 -0.3717,-0.482 -0.1597,-0.2563 -0.3897,-0.5293 -0.6935,-0.8163 -0.3273,-0.3343 -0.7623,-0.6408 -1.3035,-0.9166 -0.5503,-0.2814 -1.2509,-0.4207 -2.1009,-0.4207 -1.5896,0 -2.7822,0.4959 -3.5779,1.4878 -0.801,0.9918 -1.4035,2.0839 -1.8075,3.2764 -0.0201,0.0668 -0.0402,0.1337 -0.0603,0.2006 -0.02,0.0668 -0.0393,0.1309 -0.0602,0.2006 -0.1231,0.4095 -0.2247,0.8553 -0.3023,1.3373 -0.0928,0.4792 -0.147,0.9639 -0.1653,1.4543 -0.042,1.1785 0.1567,2.2539 0.6006,3.2207 0.4334,0.9834 1.2706,1.4738 2.5079,1.4738 1.127,0 2.0508,-0.2006 2.7639,-0.6046 0.6973,-0.3872 1.2674,-0.8163 1.7119,-1.2844 0.1377,-0.1448 0.2646,-0.2897 0.3853,-0.4318 0.1164,-0.1365 0.2264,-0.2702 0.3285,-0.404 -0.3264,0.8804 -0.8652,1.6354 -1.6155,2.2707 -0.7537,0.6463 -2.0935,0.9695 -4.0167,0.9695 -1.7565,0 -3.1374,-0.5071 -4.1454,-1.5212 -1.022,-1.003 -1.1949,-2.63 -0.5185,-4.8811 z"
         id="path16" />
    </clipPath>
    <clipPath
       id="id5">
      <path
         d="m 119.234,20.1741 c 0.305,-0.326 0.6026,-0.5823 0.8953,-0.769 0.283,-0.1894 0.5538,-0.312 0.818,-0.3677 0.0605,-0.0223 0.1247,-0.039 0.1934,-0.0529 0.0538,0 0.113,0 0.1775,0 0.2152,0 0.362,0.0668 0.4392,0.2033 0.0675,0.1338 0.0993,0.2786 0.0927,0.4347 0.006,0.1309 -0.005,0.2591 -0.0313,0.3817 -0.026,0.1225 -0.0449,0.2033 -0.055,0.2368 -0.003,0.0111 -0.005,0.0167 -0.005,0.0167 l -0.9392,3.1259 c -0.0268,0.0892 -0.051,0.17 -0.0753,0.2508 -0.0235,0.078 -0.0486,0.1616 -0.0762,0.2535 -0.0795,0.2647 -0.1138,0.5043 -0.1021,0.716 0.0108,0.2145 0.1673,0.3204 0.4685,0.3204 0.0861,0 0.1984,-0.0334 0.3377,-0.1031 0.135,-0.0557 0.2751,-0.1281 0.4203,-0.2173 0.1767,-0.1226 0.3558,-0.2619 0.5425,-0.4179 0.1753,-0.1449 0.3281,-0.2953 0.4584,-0.4513 0.0973,-0.1003 0.1776,-0.2062 0.2406,-0.3176 0.0625,-0.1003 0.1071,-0.1951 0.1338,-0.2842 l 0.8689,-2.8919 c 0.1005,-0.3344 0.3344,-0.6297 0.7046,-0.886 0.3543,-0.248 0.7407,-0.3705 1.1577,-0.3705 l -1.7846,5.9398 c -0.003,0.0112 -0.001,0.0223 0.007,0.0307 0.004,0.0222 0.0172,0.0501 0.0421,0.0835 0.0257,0.0223 0.0645,0.0363 0.1149,0.0474 0.0356,0.0251 0.0913,0.0362 0.1667,0.0362 0.1291,0 0.318,-0.0557 0.5667,-0.1671 0.2345,-0.1003 0.552,-0.3065 0.9605,-0.6185 -0.0773,0.078 -0.2073,0.2061 -0.3872,0.3844 -0.1888,0.1895 -0.4007,0.3845 -0.6313,0.5879 -0.2276,0.1755 -0.4623,0.3482 -0.7043,0.5182 -0.2464,0.1755 -0.483,0.3092 -0.7035,0.3984 -0.0928,0.0223 -0.1801,0.0446 -0.2595,0.0669 -0.0935,0.025 -0.1803,0.0362 -0.2556,0.0362 -0.3093,0 -0.4961,-0.0947 -0.5567,-0.287 -0.0674,-0.1783 -0.0479,-0.4402 0.0559,-0.7856 l 0.226,-0.7523 c -0.1169,0.1115 -0.2472,0.2229 -0.3882,0.3343 -0.1412,0.1115 -0.2876,0.2229 -0.4395,0.3344 -0.3634,0.2786 -0.748,0.5293 -1.1486,0.7522 -0.4118,0.234 -0.8017,0.3678 -1.1677,0.404 -0.0215,0 -0.0377,0 -0.0484,0 -0.0188,0 -0.043,0 -0.0673,0 -0.3631,0 -0.5674,-0.1616 -0.6101,-0.4848 -0.0561,-0.3148 -0.042,-0.6659 0.042,-1.0531 0.0102,-0.0697 0.0249,-0.1365 0.0442,-0.2006 0.0209,-0.0697 0.041,-0.1365 0.0611,-0.2034 l 1.1702,-3.8949 c 0.0503,-0.1672 0.0767,-0.3092 0.0813,-0.4318 -0.006,-0.1226 -0.0846,-0.1839 -0.2353,-0.1839 -0.0786,0.0111 -0.183,0.0362 -0.3147,0.0808 -0.1318,0.0446 -0.2942,0.1198 -0.4891,0.2312 z"
         id="path19" />
    </clipPath>
    <clipPath
       id="id6">
      <path
         d="m 126.772,24.9243 2.0893,-6.954 c 0.2319,-0.7717 0.6443,-1.4459 1.238,-2.0254 0.5796,-0.5684 1.2192,-0.8526 1.9211,-0.8526 l 1.4549,-0.0167 c -0.1712,0.2118 -0.336,0.3845 -0.4946,0.5182 -0.1693,0.1338 -0.3286,0.2341 -0.4777,0.3009 -0.2057,0.1115 -0.3926,0.1783 -0.5606,0.2006 -0.1815,0.0223 -0.3372,0.039 -0.4697,0.0502 -0.1513,0.0111 -0.2746,0.0278 -0.3692,0.0473 -0.097,0.0363 -0.1635,0.1143 -0.2003,0.2368 l -2.5523,8.4947 c -0.0326,0.1087 -0.0345,0.1867 -0.002,0.2313 0.0155,0.0557 0.0618,0.0808 0.1372,0.0808 0.1316,-0.0084 0.3326,-0.0864 0.602,-0.2313 0.2587,-0.1449 0.5594,-0.3399 0.8985,-0.5823 -0.2342,0.287 -0.499,0.56 -0.7912,0.8163 -0.2956,0.2675 -0.584,0.4932 -0.8627,0.6687 -0.215,0.1337 -0.4066,0.234 -0.5773,0.3009 -0.183,0.0808 -0.3453,0.1198 -0.4878,0.1198 -0.3443,0 -0.5425,-0.1282 -0.5911,-0.3873 -0.0628,-0.2563 -0.0324,-0.5906 0.0907,-1.0002 z"
         id="path22" />
    </clipPath>
    <clipPath
       id="id7">
      <path
         d="m 132.09,20.4109 c 0.0391,-0.0585 0.1196,-0.1476 0.2426,-0.2702 0.1121,-0.1226 0.2529,-0.2508 0.4222,-0.3845 0.1825,-0.1421 0.3813,-0.2842 0.5962,-0.4179 0.1955,-0.1226 0.3908,-0.2173 0.5848,-0.2814 0.0546,-0.0112 0.1117,-0.0223 0.1688,-0.0334 0.0571,-0.0112 0.1127,-0.0168 0.1692,-0.0168 0.2878,0 0.4728,0.1003 0.5559,0.2982 0.0655,0.2117 0.0733,0.4457 0.0285,0.702 -0.0168,0.0558 -0.0281,0.1115 -0.0341,0.1672 -0.0201,0.0669 -0.0385,0.1282 -0.0553,0.1839 l -1.4062,4.6805 c -0.0354,0.1895 -0.0309,0.3177 0.0135,0.3845 0.0445,0.0669 0.1044,0.1003 0.1797,0.1003 0.0539,0 0.1181,-0.0167 0.1926,-0.0501 0.0713,-0.0223 0.1467,-0.0585 0.2238,-0.1003 0.039,-0.0223 0.0824,-0.0502 0.1211,-0.0808 0.0398,-0.0251 0.0805,-0.053 0.1201,-0.0864 0.0558,-0.0334 0.1089,-0.0669 0.1611,-0.0975 0.0432,-0.0362 0.0865,-0.0641 0.1228,-0.0864 -0.5775,0.6687 -1.022,1.0559 -1.3319,1.1562 -0.3205,0.1003 -0.5562,0.1505 -0.7068,0.1505 -0.0109,0 -0.0216,0 -0.0297,0 -0.3039,0 -0.4967,-0.1282 -0.5776,-0.3873 -0.0904,-0.2451 -0.0874,-0.5238 0.005,-0.833 l 1.4875,-4.9508 c 0.0243,-0.0808 0.0291,-0.1505 0.0169,-0.2173 -0.0236,-0.0558 -0.079,-0.0864 -0.1651,-0.0864 -0.0968,0 -0.2366,0.0446 -0.4148,0.1365 -0.1774,0.0892 -0.4093,0.234 -0.6955,0.4346 z m 2.0765,-3.9478 c 0.1339,-0.4458 0.3356,-0.7411 0.6042,-0.8832 0.2695,-0.1449 0.5387,-0.2173 0.805,-0.2173 0.2475,0 0.4396,0.0947 0.5772,0.2814 0.1361,0.2006 0.1491,0.4792 0.042,0.8358 -0.0837,0.2786 -0.2303,0.5071 -0.4345,0.6854 -0.2158,0.1811 -0.4327,0.312 -0.6531,0.4012 -0.1243,0.0557 -0.2437,0.0947 -0.3579,0.117 -0.1177,0.0334 -0.2142,0.0501 -0.2868,0.0501 -0.2045,0 -0.3287,-0.1059 -0.3718,-0.3204 -0.0481,-0.1978 -0.0441,-0.4262 0.0123,-0.6853 0.002,-0.0418 0.01,-0.0864 0.0224,-0.1282 0.0108,-0.0362 0.0225,-0.0752 0.0359,-0.1198 z"
         id="path25" />
    </clipPath>
    <clipPath
       id="id8">
      <path
         d="m 139.73,18.9677 c 0.1257,0.0112 0.2417,0.0279 0.3526,0.053 0.1008,0.0223 0.2045,0.0446 0.3054,0.0668 0.0188,0 0.0403,0 0.0618,0 0.0209,0.0112 0.039,0.0223 0.0572,0.0335 0.0802,0.0195 0.1612,0.0362 0.2413,0.0473 0.0711,0.014 0.1574,0.0223 0.2543,0.0223 0.1182,0 0.2603,-0.0251 0.4217,-0.0696 0.1633,-0.0335 0.3468,-0.0892 0.5505,-0.1672 -0.3016,0.3232 -0.5335,0.6297 -0.6941,0.9222 -0.1615,0.287 -0.291,0.521 -0.3884,0.7021 -0.0166,0.0195 -0.027,0.0362 -0.0303,0.0473 -0.0175,0.0223 -0.0279,0.039 -0.0313,0.0502 -0.0929,-0.156 -0.1883,-0.2953 -0.2779,-0.4179 -0.0923,-0.1226 -0.1859,-0.2229 -0.2807,-0.3009 -0.1569,-0.1226 -0.3264,-0.2118 -0.5025,-0.2703 -0.1784,-0.0418 -0.3924,-0.064 -0.6398,-0.064 -0.4196,0 -0.7282,0.078 -0.9276,0.2312 -0.2017,0.17 -0.3339,0.3594 -0.3975,0.5711 -0.0536,0.1784 -0.01,0.3288 0.1253,0.4514 0.122,0.1309 0.2924,0.2535 0.5171,0.365 0.1432,0.0696 0.2898,0.1365 0.4383,0.2061 0.1523,0.0752 0.3064,0.1533 0.4658,0.2313 0.4065,0.2229 0.7552,0.5126 1.0435,0.8692 0.2936,0.3566 0.3403,0.8637 0.1419,1.524 -0.2369,0.7884 -0.609,1.3289 -1.1158,1.6187 -0.5243,0.3037 -1.0432,0.482 -1.5648,0.5349 -0.1324,0.0111 -0.2632,0.0167 -0.395,0.0167 -0.1432,0.0112 -0.2793,0.0167 -0.4058,0.0167 -0.8177,0 -1.2926,-0.156 -1.4257,-0.4652 -0.1356,-0.3009 -0.0204,-1.0782 0.3439,-2.3264 0.002,0.1003 0.0124,0.2006 0.036,0.3009 0.01,0.1114 0.0288,0.2173 0.0499,0.3176 0.102,0.4123 0.3002,0.7913 0.5945,1.1367 0.2942,0.3455 0.7265,0.5182 1.2968,0.5182 0.3901,0 0.7019,-0.0891 0.9384,-0.2674 0.2223,-0.1672 0.3855,-0.4235 0.4893,-0.769 0.0703,-0.234 0.0277,-0.4235 -0.1225,-0.5683 -0.1474,-0.1449 -0.3423,-0.2842 -0.5845,-0.4179 -0.1097,-0.0558 -0.2258,-0.1171 -0.3456,-0.1839 -0.1332,-0.0669 -0.2584,-0.1338 -0.3774,-0.2034 -0.3956,-0.2229 -0.7238,-0.5182 -0.9898,-0.886 -0.2829,-0.3566 -0.3159,-0.8915 -0.1016,-1.6047 0.231,-0.769 0.6265,-1.2705 1.1809,-1.5045 0.5438,-0.234 1.1061,-0.351 1.6871,-0.351 z"
         id="path28" />
    </clipPath>
  </defs>
  <sodipodi:namedview
     id="base"
     pagecolor="#4c4c4c"
     bordercolor="#666666"
     borderopacity="1.0"
     inkscape:pageopacity="0"
     inkscape:pageshadow="2"
     inkscape:zoom="0.72559305"
     inkscape:cx="-278.00994"
     inkscape:cy="170.40858"
     inkscape:document-units="mm"
     inkscape:current-layer="g9449"
     showgrid="false"
     inkscape:window-width="1350"
     inkscape:window-height="705"
     inkscape:window-x="0"
     inkscape:window-y="26"
     inkscape:window-maximized="1"
     inkscape:document-rotation="0" />
  <metadata
     id="metadata5">
    <rdf:RDF>
      <cc:Work
         rdf:about="">
        <dc:format>image/svg+xml</dc:format>
        <dc:type
           rdf:resource="http://purl.org/dc/dcmitype/StillImage" />
        <dc:title />
      </cc:Work>
    </rdf:RDF>
  </metadata>
  <g
     inkscape:label="Layer 1"
     inkscape:groupmode="layer"
     id="layer1"
     transform="translate(105.42112,-8.9272634)">
    <g
       id="g9449">
      <text
         id="text4967"
         y="111.94916"
         x="300.38208"
         style="line-height:0%;font-family:Cantarell;-inkscape-font-specification:'Cantarell, Normal';letter-spacing:0.0820209px;word-spacing:-0.291042px;writing-mode:lr-tb;stroke-width:0.264583"
         xml:space="preserve"><tspan
           style="font-style:normal;font-variant:normal;font-weight:normal;font-stretch:normal;font-size:7.05556px;line-height:0;font-family:Neckar;-inkscape-font-specification:'Neckar, Normal';font-variant-ligatures:normal;font-variant-caps:normal;font-variant-numeric:normal;font-feature-settings:normal;text-align:start;word-spacing:-0.518583px;writing-mode:lr-tb;text-anchor:start;stroke-width:0.264583"
           y="111.94916"
           x="300.38208"
           id="tspan4965"
           sodipodi:role="line"></tspan></text>
      <flowRoot
         style="line-height:0.01%;font-family:Cantarell;-inkscape-font-specification:'Cantarell, Normal';letter-spacing:0.31px;word-spacing:-1.1px;writing-mode:lr-tb"
         id="flowRoot20476"
         xml:space="preserve"><flowRegion
           id="flowRegion20478"><rect
             y="130.50426"
             x="1244.5079"
             height="574.17072"
             width="797.61646"
             id="rect20480" /></flowRegion><flowPara
           id="flowPara20482"
           style="font-size:26.6667px;line-height:0"></flowPara></flowRoot>
      <flowRoot
         style="line-height:0.01%;font-family:Cantarell;-inkscape-font-specification:'Cantarell, Normal';letter-spacing:0.31px;word-spacing:-1.1px;writing-mode:lr-tb"
         id="flowRoot20492"
         xml:space="preserve"><flowRegion
           id="flowRegion20494"><rect
             y="-2.4318113"
             x="1945.9579"
             height="149.90663"
             width="214.96046"
             id="rect20496" /></flowRegion><flowPara
           id="flowPara20498"
           style="font-size:26.6667px;line-height:0"></flowPara></flowRoot>
      <text
         id="text9514"
         y="28.013163"
         x="404.76212"
         style="line-height:0%;font-family:Cantarell;-inkscape-font-specification:'Cantarell, Normal';letter-spacing:0.0820209px;word-spacing:-0.291042px;writing-mode:lr-tb;stroke-width:0.264583"
         xml:space="preserve"><tspan
           style="font-size:7.05555px;line-height:0;stroke-width:0.264583"
           y="28.013163"
           x="404.76212"
           id="tspan9512"
           sodipodi:role="line"></tspan></text>
      <g
         id="g1182">
        <path
           sodipodi:nodetypes="cccccccccccccsccccccccccccccc"
           inkscape:connector-curvature="0"
           d="m -40.37006,67.088668 c 3.247806,-9.736185 8.57389,-17.238384 15.978177,-22.506592 7.387896,-5.220942 14.5822373,-7.819591 21.5905939,-7.819591 l 18.7784771,-0.0705 c -0.12092,1.269992 -0.0992,2.339927 0.0517,3.245256 0.1559,0.893932 0.33158,1.763805 0.54966,2.622286 0.108,0.317822 0.2255,0.647025 0.36734,0.976236 0.0764,0.37604 0.15286,0.75254 0.23272,1.116784 0.23005,0.670658 0.41573,1.399565 0.55624,2.18756 0.12168,0.84624 0.16503,1.810657 0.17378,2.880589 -0.4149,-0.270137 -0.99393,-0.952176 -1.74178,-2.034349 -0.74836,-1.081755 -1.826127,-2.23399 -3.249747,-3.445315 -1.53371,-1.410961 -3.5720867,-2.704589 -6.1081667,-3.868643 -2.5786167,-1.187692 -5.86159667,-1.775628 -9.8446734,-1.775628 -7.4488169,0 -13.0373139,2.09302 -16.7659219,6.279478 -3.753478,4.186036 -6.576725,8.795405 -8.469853,13.828525 -0.0943,0.281925 -0.188229,0.564299 -0.282914,0.846662 -0.09354,0.281925 -0.184046,0.552484 -0.281773,0.846662 -0.576855,1.728353 -1.052942,3.609918 -1.416547,5.644271 -0.434904,2.022531 -0.688843,4.068281 -0.774629,6.138085 -0.196596,4.974032 0.734321,9.512915 2.814424,13.593433 5.393843,6.907008 17.692051,6.402481 24.7034439,3.005806 3.26750673,-1.634235 5.9389867,-2.782532 8.0218667,-4.758215 0.6452567,-0.611151 1.6521568,-3.071018 2.2177568,-3.670769 -0.076486,-1.435295 5.6640316,1.78547 4.9803006,3.049763 -8.3645552,6.669143 -20.8525315,10.66531 -30.245466,10.769124 -8.230897,0 -14.701717,-2.140287 -19.425203,-6.420445 -4.789005,-4.23331 -5.599225,-11.100298 -2.429638,-20.601394 z"
           class="fil1 str0"
           id="1234"
           style="clip-rule:evenodd;fill:#aaeeff;fill-rule:evenodd;stroke:#002255;stroke-width:0.6;stroke-miterlimit:4;stroke-dasharray:none;image-rendering:optimizeQuality;shape-rendering:geometricPrecision;text-rendering:geometricPrecision" />
        <path
           inkscape:connector-curvature="0"
           id="path72"
           d="m -45.061615,9.0223403 c -0.342082,3.4807657 -0.809734,7.8314057 -1.391731,13.0523477 -0.648067,5.268209 -0.965307,10.677388 -0.951717,16.227541 0.0042,7.243469 0.906264,14.099065 2.756278,20.530909 1.833618,6.444082 5.520535,10.959328 11.06028,13.546584 h -5.73515 c -4.04586,0 -6.978804,-0.729324 -8.824133,-2.187138 -1.820495,-1.458231 -3.368738,-3.316163 -4.636291,-5.561967 -0.662593,-1.187688 -1.34815,-2.457683 -2.052454,-3.821796 -0.704768,-1.364113 -1.527622,-2.751438 -2.468562,-4.162821 -1.531374,-2.210353 -3.633026,-4.37428 -6.304963,-6.490933 -2.722077,-2.116653 -6.558939,-3.915492 -11.502165,-5.420576 0,0 -1.116662,0.928966 -3.353273,2.79829 -2.306893,1.928835 -5.008353,4.056884 -8.084222,6.361778 -0.887521,0.658421 -1.780194,1.293628 -2.693489,1.916598 -0.893613,0.599751 -1.778324,1.211324 -2.637725,1.822894 -2.279256,1.505083 -4.391684,2.775074 -6.350419,3.809555 -2.004649,1.023087 -3.601629,1.540539 -4.812009,1.540539 -0.90721,0 -1.49436,-0.129137 -1.76567,-0.411515 -0.24603,-0.282381 -0.34585,-0.587936 -0.30318,-0.905328 -0.0152,-0.105941 -0.009,-0.200056 0.0224,-0.29417 0.0312,-0.09412 0.0628,-0.188229 0.0942,-0.281926 0.0312,-0.09411 0.0628,-0.188229 0.0984,-0.294169 0.0156,-0.04685 0.035,-0.105941 0.0665,-0.200055 0.21975,-0.658422 0.45969,-1.15224 0.73335,-1.481451 0.24558,-0.282343 0.62652,-0.517451 1.14291,-0.705691 1.19679,-0.5643 3.60116,-1.575565 7.213569,-3.033801 3.545863,-1.410961 9.682131,-5.220938 18.399898,-11.441327 -1.170085,-0.270556 -2.246451,-0.481996 -3.262371,-0.61157 -1.023415,-0.105522 -1.986843,-0.164615 -2.90717,-0.164615 -1.613374,0 -3.038378,0.152789 -4.29187,0.435152 -1.253963,0.282343 -2.372036,0.611569 -3.350934,0.976236 -0.466716,0.152788 -0.85378,0.293751 -1.203821,0.434725 -0.415648,0.188229 -0.810671,0.352844 -1.164462,0.505633 1.839706,-1.281388 3.733773,-2.198957 5.686412,-2.763256 1.937182,-0.517452 3.841554,-0.823029 5.671422,-0.905329 0.164007,0 0.31535,0 0.466725,0 0.138224,0 0.290025,0 0.440946,0 1.008418,0 2.005123,0.03536 2.982146,0.129137 0.910485,0.141381 1.788632,0.305996 2.64944,0.482417 2.105409,-1.775623 4.158794,-3.586703 6.182192,-5.420997 1.973257,-1.83429 3.871074,-3.668585 5.688758,-5.491482 4.009777,-4.009614 7.625464,-7.97238 10.843782,-11.876476 3.211295,-3.84501 5.812001,-7.373047 7.824618,-10.571454 z M -56.430229,50.660699 c -0.167314,-0.858476 -0.282571,-1.987079 -0.315844,-3.39804 -0.04966,-1.364113 -0.03536,-2.916467 0.04008,-4.656639 0.106815,-2.586834 0.333185,-5.456031 0.67853,-8.607587 0.329876,-3.104285 0.778804,-6.302689 1.322843,-9.595214 -2.919353,3.574462 -5.908062,6.866988 -8.97596,9.865759 -3.121321,3.010163 -6.312925,5.926208 -9.577171,8.760371 0.979837,0.235077 1.977949,0.493818 2.99293,0.776177 1.014976,0.281925 2.014492,0.611151 2.998074,0.987632 2.083848,0.705692 4.09553,1.552354 6.034586,2.539986 1.889375,0.987628 3.478854,2.116653 4.782019,3.386644 z"
           class="fil1 str0"
           style="clip-rule:evenodd;fill:#aaeeff;fill-rule:evenodd;stroke:#002255;stroke-width:0.6;stroke-miterlimit:4;stroke-dasharray:none;image-rendering:optimizeQuality;shape-rendering:geometricPrecision;text-rendering:geometricPrecision" />
      </g>
    </g>
  </g>
</svg>
